<svg width="110" height="110" viewBox="0 0 110 110" fill="none" xmlns="http://www.w3.org/2000/svg">
<mask id="path-1-inside-1_14_2825" fill="white">
<path d="M31.4995 85.5897C31.8775 85.5897 32.2438 85.5661 32.6219 85.5188C33.0827 88.1772 34.2642 90.942 35.8475 93.1633C38.5413 96.9441 42.0387 99.0709 45.8314 99.4253C46.044 99.4608 46.2567 99.4844 46.4694 99.4844H58.3437C60.0451 99.4844 61.4866 98.3265 61.841 96.6606L63.5188 88.8625C63.5897 88.5553 63.7669 88.3545 64.0623 88.2481C65.2911 87.8228 66.508 87.3147 67.6896 86.7476C67.9731 86.6058 68.2449 86.6294 68.5048 86.7948L75.2041 91.131C76.6337 92.0526 78.4651 91.8636 79.6702 90.6584L88.0709 82.2578C89.276 81.0526 89.4651 79.2213 88.5435 77.7916L84.2073 71.0924C84.0301 70.8324 84.0183 70.5607 84.16 70.2771C84.7272 69.0956 85.2352 67.8786 85.6606 66.6498C85.7669 66.3545 85.9678 66.1772 86.275 66.1063L94.073 64.4286C95.739 64.0741 96.8969 62.6326 96.8969 60.9313V49.0687C96.8969 47.3673 95.739 45.9259 94.073 45.5714L86.275 43.8937C85.9678 43.8228 85.7669 43.6455 85.6606 43.3502C85.2352 42.1214 84.7272 40.9044 84.16 39.7229C84.0183 39.4393 84.0419 39.1676 84.2073 38.9076L88.5435 32.2084C89.4651 30.7787 89.276 28.9474 88.0709 27.7422L79.6702 19.3416C78.4651 18.1364 76.6337 17.9474 75.2041 18.869L68.5048 23.2052C68.2449 23.3824 67.9731 23.3942 67.6896 23.2524C66.508 22.6853 65.2911 22.1772 64.0623 21.7519C63.7669 21.6455 63.5897 21.4447 63.5188 21.1375L61.841 13.3394C61.4866 11.6735 60.0451 10.5156 58.3437 10.5156H46.4694H46.4339H46.4221C41.6724 10.5156 37.6906 13.9066 36.7927 18.3963C35.8238 18.101 34.8314 17.9474 33.8152 17.9474C27.3169 17.9474 22.0354 24.2331 22.0354 31.9603C22.0354 32.0311 22.0354 32.1138 22.0354 32.1847C17.0376 32.681 13.1031 37.2889 13.1031 42.8775C13.1031 46.5875 14.8045 49.9313 17.5575 51.8808C15.8324 53.8657 14.8281 56.536 14.8281 59.3244C14.8281 63.826 17.4393 67.8314 21.2084 69.3792C20.9603 70.4662 20.8185 71.6122 20.8185 72.782C20.8185 79.8475 25.6037 85.5897 31.4995 85.5897ZM53.7712 33.9216C64.783 34.6305 73.5263 43.8109 73.5263 55C73.5263 66.189 64.783 75.3695 53.7712 76.0784V33.9216ZM58.3437 13.2567C58.7454 13.2567 59.0763 13.5166 59.159 13.9184L60.8367 21.7164C61.1085 22.957 61.9474 23.9141 63.1525 24.3394C64.2868 24.7411 65.4092 25.2019 66.4962 25.7218C67.6423 26.2771 68.9184 26.1944 69.9935 25.5091L76.6928 21.1729C77.0354 20.9484 77.449 20.9957 77.7325 21.2793L86.1332 29.6799C86.4167 29.9635 86.464 30.3888 86.2395 30.7197L81.9033 37.4189C81.2062 38.4941 81.1353 39.7583 81.6906 40.9162C82.2105 42.0032 82.6831 43.1257 83.073 44.2599C83.4984 45.4651 84.4554 46.304 85.696 46.5757L93.4941 48.2535C93.884 48.3362 94.1557 48.667 94.1557 49.0687V60.9431C94.1557 61.3448 93.8958 61.6756 93.4941 61.7583L85.696 63.4361C84.4554 63.7078 83.4984 64.5467 83.073 65.7519C82.6713 66.8861 82.2105 68.0086 81.6906 69.0956C81.1353 70.2417 81.218 71.5177 81.9033 72.5929L86.2395 79.2922C86.464 79.6348 86.4167 80.0483 86.1332 80.3319L77.7325 88.7325C77.449 89.0161 77.0236 89.0634 76.6928 88.8389L69.9935 84.5027C68.9184 83.8056 67.6541 83.7347 66.4962 84.29C65.4092 84.8099 64.2868 85.2825 63.1525 85.6724C61.9474 86.0977 61.1085 87.0548 60.8367 88.2954L59.159 96.0934C59.0763 96.4833 58.7454 96.7551 58.3437 96.7551H53.7712V78.8195C66.2954 78.1106 76.2674 67.7014 76.2674 55C76.2674 42.2986 66.2954 31.8894 53.7712 31.1804V14.3673C53.7712 13.9893 53.6176 13.6466 53.3695 13.3985C53.3222 13.3512 53.2632 13.304 53.2159 13.2567H58.3437ZM17.5693 59.3244C17.5693 56.6659 18.739 54.1966 20.6885 52.696C21.0784 52.4006 21.2793 51.928 21.2202 51.4436C21.1611 50.9592 20.8539 50.5456 20.4049 50.3566C17.6874 49.1751 15.8561 46.174 15.8561 42.8894C15.8561 38.7186 18.6917 35.2922 22.3072 34.9259C23.2288 40.0537 26.5134 44.2245 30.9205 45.5596C31.0505 45.5951 31.1804 45.6187 31.3104 45.6187C31.9012 45.6187 32.4447 45.2406 32.6219 44.638C32.8346 43.9173 32.4329 43.1493 31.7003 42.9366C27.6241 41.7078 24.7766 37.2062 24.7766 31.9721C24.7766 25.7572 28.8292 20.7003 33.8152 20.7003C35.0322 20.7003 36.2137 20.9957 37.3244 21.5865C37.9978 21.9409 38.8249 21.681 39.1794 21.0193C39.2857 20.8185 39.333 20.594 39.333 20.3813V20.3695C39.333 20.3695 39.333 20.3695 39.333 20.3577V20.3459C39.333 16.435 42.5113 13.2567 46.4221 13.2567C48.1353 13.2567 49.754 13.8593 51.0419 14.9699V95.9162C49.5886 96.4952 48.2535 96.7433 47.0247 96.7551H46.8002C42.2986 96.6724 39.333 93.3523 38.0806 91.58C34.8904 87.102 34.4296 81.7852 36.1547 80.0365C37.6788 78.4769 41.1525 79.363 45.7014 82.4468C46.3276 82.8722 47.1783 82.7068 47.6036 82.0806C48.029 81.4543 47.8636 80.6036 47.2374 80.1783C39.7701 75.0859 36.0247 76.2438 34.1933 78.1106C33.0473 79.2803 32.5038 80.9345 32.4329 82.7777C32.1257 82.8249 31.8185 82.8485 31.5113 82.8485C27.1396 82.8485 23.5714 78.3351 23.5714 72.7938C23.5714 67.2524 27.1278 62.739 31.5113 62.739C32.2675 62.739 32.8818 62.1246 32.8818 61.3684C32.8818 60.6122 32.2675 59.9978 31.5113 59.9978C27.435 59.9978 23.8904 62.7508 22.0945 66.7798C19.4125 65.5983 17.5693 62.6445 17.5693 59.3244ZM37.9742 34.5242C37.6907 32.5865 38.116 30.6606 39.1557 29.101C40.2309 27.4941 41.8378 26.4662 43.6692 26.1944C43.811 26.1708 43.9646 26.159 44.1181 26.1472C44.8743 26.0881 45.5242 26.6552 45.5832 27.4114C45.6423 28.1676 45.0752 28.8174 44.319 28.8765C44.2363 28.8883 44.1536 28.8883 44.0591 28.9001C43.0075 29.0537 42.0741 29.6681 41.4361 30.6133C40.7626 31.6176 40.5027 32.8582 40.6917 34.1224C40.9753 36.0365 42.275 37.6316 43.9409 38.0806C44.6735 38.2814 45.0988 39.0258 44.898 39.7583C44.7325 40.3727 44.1772 40.7744 43.5746 40.7744C43.4565 40.7744 43.3383 40.7626 43.2202 40.7272C40.4672 39.9946 38.4114 37.5489 37.9742 34.5242ZM37.3835 69.9935C36.8281 69.4855 36.7927 68.6112 37.3007 68.0558C42.334 62.5854 42.8657 57.4458 39.0258 51.3963C38.6241 50.7583 38.8131 49.9076 39.4511 49.5059C40.0891 49.1042 40.9398 49.2932 41.3416 49.9313C43.7873 53.783 44.6971 57.3867 44.1418 60.9313C43.6574 63.9678 42.0859 66.8979 39.3212 69.9108C39.0494 70.2062 38.6831 70.3598 38.3169 70.3598C37.986 70.3598 37.6434 70.2417 37.3835 69.9935ZM11.5317 84.0301C11.957 84.6563 11.7798 85.507 11.1536 85.9323C10.9173 86.0859 10.6574 86.1686 10.3974 86.1686C9.96026 86.1686 9.52309 85.956 9.26316 85.5661C3.20193 76.5038 0 65.9291 0 55C0 40.3136 5.71858 26.5016 16.1042 16.1042C26.5016 5.71858 40.3136 0 55 0C64.7476 0 74.2116 2.55209 82.565 7.39635L81.4662 3.27282C81.2653 2.54028 81.7025 1.79592 82.435 1.59506C83.1676 1.3942 83.9119 1.83136 84.1128 2.56391L86.1214 10.043C86.3222 10.7755 85.8851 11.5199 85.1525 11.7207L77.6735 13.7293C77.5553 13.7648 77.4372 13.7766 77.319 13.7766C76.7164 13.7766 76.1611 13.3749 75.9957 12.7605C75.7948 12.0279 76.232 11.2836 76.9645 11.0827L81.4071 9.88937C73.4082 5.19871 64.3459 2.74114 55 2.74114C26.1826 2.74114 2.74114 26.1826 2.74114 55C2.74114 65.3856 5.77766 75.4286 11.5317 84.0301ZM110 55C110 69.6863 104.281 83.4984 93.8958 93.8958C83.4984 104.281 69.6863 110 55 110C45.2524 110 35.7884 107.448 27.435 102.604L28.5456 106.727C28.7465 107.46 28.3093 108.204 27.5768 108.405C27.4586 108.44 27.3405 108.452 27.2223 108.452C26.6198 108.452 26.0644 108.05 25.899 107.436L23.8904 99.957C23.6896 99.2245 24.1267 98.4801 24.8593 98.2793L32.3383 96.2707C33.0709 96.0816 33.8153 96.507 34.0161 97.2395C34.217 97.9721 33.7798 98.7164 33.0473 98.9173L28.6047 100.111C36.5918 104.801 45.6541 107.259 55 107.259C83.8174 107.259 107.259 83.8174 107.259 55C107.259 44.6144 104.222 34.5714 98.4683 25.9699C98.043 25.3437 98.2202 24.493 98.8464 24.0677C99.4726 23.6423 100.323 23.8195 100.749 24.4458C106.798 33.4962 110 44.0709 110 55Z"/>
</mask>
<path d="M31.4995 85.5897C31.8775 85.5897 32.2438 85.5661 32.6219 85.5188C33.0827 88.1772 34.2642 90.942 35.8475 93.1633C38.5413 96.9441 42.0387 99.0709 45.8314 99.4253C46.044 99.4608 46.2567 99.4844 46.4694 99.4844H58.3437C60.0451 99.4844 61.4866 98.3265 61.841 96.6606L63.5188 88.8625C63.5897 88.5553 63.7669 88.3545 64.0623 88.2481C65.2911 87.8228 66.508 87.3147 67.6896 86.7476C67.9731 86.6058 68.2449 86.6294 68.5048 86.7948L75.2041 91.131C76.6337 92.0526 78.4651 91.8636 79.6702 90.6584L88.0709 82.2578C89.276 81.0526 89.4651 79.2213 88.5435 77.7916L84.2073 71.0924C84.0301 70.8324 84.0183 70.5607 84.16 70.2771C84.7272 69.0956 85.2352 67.8786 85.6606 66.6498C85.7669 66.3545 85.9678 66.1772 86.275 66.1063L94.073 64.4286C95.739 64.0741 96.8969 62.6326 96.8969 60.9313V49.0687C96.8969 47.3673 95.739 45.9259 94.073 45.5714L86.275 43.8937C85.9678 43.8228 85.7669 43.6455 85.6606 43.3502C85.2352 42.1214 84.7272 40.9044 84.16 39.7229C84.0183 39.4393 84.0419 39.1676 84.2073 38.9076L88.5435 32.2084C89.4651 30.7787 89.276 28.9474 88.0709 27.7422L79.6702 19.3416C78.4651 18.1364 76.6337 17.9474 75.2041 18.869L68.5048 23.2052C68.2449 23.3824 67.9731 23.3942 67.6896 23.2524C66.508 22.6853 65.2911 22.1772 64.0623 21.7519C63.7669 21.6455 63.5897 21.4447 63.5188 21.1375L61.841 13.3394C61.4866 11.6735 60.0451 10.5156 58.3437 10.5156H46.4694H46.4339H46.4221C41.6724 10.5156 37.6906 13.9066 36.7927 18.3963C35.8238 18.101 34.8314 17.9474 33.8152 17.9474C27.3169 17.9474 22.0354 24.2331 22.0354 31.9603C22.0354 32.0311 22.0354 32.1138 22.0354 32.1847C17.0376 32.681 13.1031 37.2889 13.1031 42.8775C13.1031 46.5875 14.8045 49.9313 17.5575 51.8808C15.8324 53.8657 14.8281 56.536 14.8281 59.3244C14.8281 63.826 17.4393 67.8314 21.2084 69.3792C20.9603 70.4662 20.8185 71.6122 20.8185 72.782C20.8185 79.8475 25.6037 85.5897 31.4995 85.5897ZM53.7712 33.9216C64.783 34.6305 73.5263 43.8109 73.5263 55C73.5263 66.189 64.783 75.3695 53.7712 76.0784V33.9216ZM58.3437 13.2567C58.7454 13.2567 59.0763 13.5166 59.159 13.9184L60.8367 21.7164C61.1085 22.957 61.9474 23.9141 63.1525 24.3394C64.2868 24.7411 65.4092 25.2019 66.4962 25.7218C67.6423 26.2771 68.9184 26.1944 69.9935 25.5091L76.6928 21.1729C77.0354 20.9484 77.449 20.9957 77.7325 21.2793L86.1332 29.6799C86.4167 29.9635 86.464 30.3888 86.2395 30.7197L81.9033 37.4189C81.2062 38.4941 81.1353 39.7583 81.6906 40.9162C82.2105 42.0032 82.6831 43.1257 83.073 44.2599C83.4984 45.4651 84.4554 46.304 85.696 46.5757L93.4941 48.2535C93.884 48.3362 94.1557 48.667 94.1557 49.0687V60.9431C94.1557 61.3448 93.8958 61.6756 93.4941 61.7583L85.696 63.4361C84.4554 63.7078 83.4984 64.5467 83.073 65.7519C82.6713 66.8861 82.2105 68.0086 81.6906 69.0956C81.1353 70.2417 81.218 71.5177 81.9033 72.5929L86.2395 79.2922C86.464 79.6348 86.4167 80.0483 86.1332 80.3319L77.7325 88.7325C77.449 89.0161 77.0236 89.0634 76.6928 88.8389L69.9935 84.5027C68.9184 83.8056 67.6541 83.7347 66.4962 84.29C65.4092 84.8099 64.2868 85.2825 63.1525 85.6724C61.9474 86.0977 61.1085 87.0548 60.8367 88.2954L59.159 96.0934C59.0763 96.4833 58.7454 96.7551 58.3437 96.7551H53.7712V78.8195C66.2954 78.1106 76.2674 67.7014 76.2674 55C76.2674 42.2986 66.2954 31.8894 53.7712 31.1804V14.3673C53.7712 13.9893 53.6176 13.6466 53.3695 13.3985C53.3222 13.3512 53.2632 13.304 53.2159 13.2567H58.3437ZM17.5693 59.3244C17.5693 56.6659 18.739 54.1966 20.6885 52.696C21.0784 52.4006 21.2793 51.928 21.2202 51.4436C21.1611 50.9592 20.8539 50.5456 20.4049 50.3566C17.6874 49.1751 15.8561 46.174 15.8561 42.8894C15.8561 38.7186 18.6917 35.2922 22.3072 34.9259C23.2288 40.0537 26.5134 44.2245 30.9205 45.5596C31.0505 45.5951 31.1804 45.6187 31.3104 45.6187C31.9012 45.6187 32.4447 45.2406 32.6219 44.638C32.8346 43.9173 32.4329 43.1493 31.7003 42.9366C27.6241 41.7078 24.7766 37.2062 24.7766 31.9721C24.7766 25.7572 28.8292 20.7003 33.8152 20.7003C35.0322 20.7003 36.2137 20.9957 37.3244 21.5865C37.9978 21.9409 38.8249 21.681 39.1794 21.0193C39.2857 20.8185 39.333 20.594 39.333 20.3813V20.3695C39.333 20.3695 39.333 20.3695 39.333 20.3577V20.3459C39.333 16.435 42.5113 13.2567 46.4221 13.2567C48.1353 13.2567 49.754 13.8593 51.0419 14.9699V95.9162C49.5886 96.4952 48.2535 96.7433 47.0247 96.7551H46.8002C42.2986 96.6724 39.333 93.3523 38.0806 91.58C34.8904 87.102 34.4296 81.7852 36.1547 80.0365C37.6788 78.4769 41.1525 79.363 45.7014 82.4468C46.3276 82.8722 47.1783 82.7068 47.6036 82.0806C48.029 81.4543 47.8636 80.6036 47.2374 80.1783C39.7701 75.0859 36.0247 76.2438 34.1933 78.1106C33.0473 79.2803 32.5038 80.9345 32.4329 82.7777C32.1257 82.8249 31.8185 82.8485 31.5113 82.8485C27.1396 82.8485 23.5714 78.3351 23.5714 72.7938C23.5714 67.2524 27.1278 62.739 31.5113 62.739C32.2675 62.739 32.8818 62.1246 32.8818 61.3684C32.8818 60.6122 32.2675 59.9978 31.5113 59.9978C27.435 59.9978 23.8904 62.7508 22.0945 66.7798C19.4125 65.5983 17.5693 62.6445 17.5693 59.3244ZM37.9742 34.5242C37.6907 32.5865 38.116 30.6606 39.1557 29.101C40.2309 27.4941 41.8378 26.4662 43.6692 26.1944C43.811 26.1708 43.9646 26.159 44.1181 26.1472C44.8743 26.0881 45.5242 26.6552 45.5832 27.4114C45.6423 28.1676 45.0752 28.8174 44.319 28.8765C44.2363 28.8883 44.1536 28.8883 44.0591 28.9001C43.0075 29.0537 42.0741 29.6681 41.4361 30.6133C40.7626 31.6176 40.5027 32.8582 40.6917 34.1224C40.9753 36.0365 42.275 37.6316 43.9409 38.0806C44.6735 38.2814 45.0988 39.0258 44.898 39.7583C44.7325 40.3727 44.1772 40.7744 43.5746 40.7744C43.4565 40.7744 43.3383 40.7626 43.2202 40.7272C40.4672 39.9946 38.4114 37.5489 37.9742 34.5242ZM37.3835 69.9935C36.8281 69.4855 36.7927 68.6112 37.3007 68.0558C42.334 62.5854 42.8657 57.4458 39.0258 51.3963C38.6241 50.7583 38.8131 49.9076 39.4511 49.5059C40.0891 49.1042 40.9398 49.2932 41.3416 49.9313C43.7873 53.783 44.6971 57.3867 44.1418 60.9313C43.6574 63.9678 42.0859 66.8979 39.3212 69.9108C39.0494 70.2062 38.6831 70.3598 38.3169 70.3598C37.986 70.3598 37.6434 70.2417 37.3835 69.9935ZM11.5317 84.0301C11.957 84.6563 11.7798 85.507 11.1536 85.9323C10.9173 86.0859 10.6574 86.1686 10.3974 86.1686C9.96026 86.1686 9.52309 85.956 9.26316 85.5661C3.20193 76.5038 0 65.9291 0 55C0 40.3136 5.71858 26.5016 16.1042 16.1042C26.5016 5.71858 40.3136 0 55 0C64.7476 0 74.2116 2.55209 82.565 7.39635L81.4662 3.27282C81.2653 2.54028 81.7025 1.79592 82.435 1.59506C83.1676 1.3942 83.9119 1.83136 84.1128 2.56391L86.1214 10.043C86.3222 10.7755 85.8851 11.5199 85.1525 11.7207L77.6735 13.7293C77.5553 13.7648 77.4372 13.7766 77.319 13.7766C76.7164 13.7766 76.1611 13.3749 75.9957 12.7605C75.7948 12.0279 76.232 11.2836 76.9645 11.0827L81.4071 9.88937C73.4082 5.19871 64.3459 2.74114 55 2.74114C26.1826 2.74114 2.74114 26.1826 2.74114 55C2.74114 65.3856 5.77766 75.4286 11.5317 84.0301ZM110 55C110 69.6863 104.281 83.4984 93.8958 93.8958C83.4984 104.281 69.6863 110 55 110C45.2524 110 35.7884 107.448 27.435 102.604L28.5456 106.727C28.7465 107.46 28.3093 108.204 27.5768 108.405C27.4586 108.44 27.3405 108.452 27.2223 108.452C26.6198 108.452 26.0644 108.05 25.899 107.436L23.8904 99.957C23.6896 99.2245 24.1267 98.4801 24.8593 98.2793L32.3383 96.2707C33.0709 96.0816 33.8153 96.507 34.0161 97.2395C34.217 97.9721 33.7798 98.7164 33.0473 98.9173L28.6047 100.111C36.5918 104.801 45.6541 107.259 55 107.259C83.8174 107.259 107.259 83.8174 107.259 55C107.259 44.6144 104.222 34.5714 98.4683 25.9699C98.043 25.3437 98.2202 24.493 98.8464 24.0677C99.4726 23.6423 100.323 23.8195 100.749 24.4458C106.798 33.4962 110 44.0709 110 55Z" fill="white" stroke="white" stroke-width="200" mask="url(#path-1-inside-1_14_2825)"/>
</svg>
