<svg width="101" height="86" viewBox="0 0 101 86" fill="none" xmlns="http://www.w3.org/2000/svg">
<mask id="path-1-inside-1_14_2875" fill="white">
<path d="M75.3597 60.1904V82.7334H85.3907V50.8704H75.3597V60.1904ZM37.2037 39.2764L37.1685 39.2412C33.1333 35.6787 26.9805 36.0185 23.3635 40.0107L23.3244 40.0576V40.0615L23.2893 40.0889C21.5862 42.0147 20.7034 44.5342 20.8362 47.1006C20.8948 48.2764 21.1643 49.4326 21.6292 50.5108C21.6604 50.5694 21.6877 50.6241 21.7112 50.6866C21.7385 50.7491 21.7698 50.8037 21.7893 50.8662C22.344 52.0107 23.1135 53.042 24.0588 53.8935L24.1018 53.9404H24.1096L24.1369 53.9756V53.9717C28.1721 57.5381 34.3249 57.1983 37.9419 53.2099L37.9849 53.1592H37.981L38.0161 53.124V53.1279C41.5786 49.0927 41.2388 42.9399 37.2544 39.3229L37.2036 39.2839L37.2037 39.2764ZM39.0201 37.46H39.0122C44.0083 42.0303 44.4145 49.761 39.9263 54.823C39.8872 54.8777 39.8443 54.9245 39.7974 54.9714V54.9675C35.231 59.9636 27.5004 60.3698 22.4344 55.8777C22.3836 55.8386 22.3328 55.7956 22.2899 55.7527H22.2977H22.2938C21.2 54.7527 20.2938 53.5652 19.618 52.2449C19.3797 52.0183 19.2352 51.7097 19.2195 51.3816C17.3875 46.9949 18.2273 41.948 21.3797 38.3896C21.4188 38.3388 21.4657 38.2958 21.5086 38.2451V38.2412C26.075 33.2451 33.8096 32.8389 38.8716 37.331C38.9224 37.3701 38.9732 37.4131 39.0201 37.46ZM40.9068 35.2764C39.1607 33.6944 37.0709 32.5381 34.8013 31.9014C34.7388 31.8897 34.6763 31.874 34.6138 31.8506C30.0318 30.6279 25.1411 31.5967 21.3718 34.4717C21.3171 34.5186 21.2585 34.5654 21.2038 34.6045C20.528 35.1358 19.903 35.7217 19.3249 36.3545C16.6101 39.3584 15.1999 43.3193 15.3991 47.3665C15.6022 51.4095 17.3991 55.2103 20.3991 57.9325C20.6608 58.1669 20.9264 58.3895 21.196 58.6044C21.2585 58.6434 21.321 58.6903 21.3756 58.7372C21.528 58.8544 21.6764 58.9677 21.8288 59.077V59.0809C21.8952 59.1161 21.9538 59.1552 22.0085 59.202C24.5554 60.9481 27.571 61.8817 30.6569 61.8817C33.7428 61.8817 36.7585 60.9481 39.3053 59.202C39.3599 59.1552 39.4185 59.1161 39.481 59.0809C40.3912 58.4325 41.2271 57.6864 41.981 56.8621C43.4966 55.1902 44.6216 53.2019 45.274 51.0418C45.2897 50.9832 45.3092 50.9208 45.3287 50.8622C45.8014 49.2333 45.9967 47.5379 45.9108 45.8465C45.8561 44.7685 45.6881 43.706 45.4147 42.663C45.3912 42.6005 45.3756 42.534 45.36 42.4676C44.5826 39.702 43.0397 37.2098 40.9069 35.2801L40.9068 35.2764ZM29.7698 28.792C31.1057 28.7256 32.4456 28.8076 33.7659 29.0381V16.4211H21.7859V31.1281C24.2234 29.7297 26.9612 28.9287 29.7698 28.792ZM36.3284 29.6943C41.6292 31.4795 45.7893 35.6396 47.5704 40.9403H74.7034V2.56932H36.3284V29.6943ZM48.2194 43.5033V43.5072C48.3483 44.2377 48.4342 44.9799 48.4654 45.722C48.5397 47.1634 48.4381 48.6087 48.1647 50.0267H72.7977V49.5892C72.7977 48.8783 73.3719 48.3001 74.0829 48.3001H85.3919V40.7571C85.3919 40.0462 85.97 39.468 86.681 39.468H89.2474V16.421H77.2704V42.222C77.2704 42.5658 77.1336 42.89 76.8954 43.1322C76.6532 43.3705 76.3251 43.5072 75.9813 43.5072L48.2194 43.5033ZM47.4576 52.5931V52.597C46.6725 54.804 45.4576 56.8353 43.8795 58.5736C43.7741 58.6908 43.6686 58.7963 43.5631 58.9096H72.7901V52.5932L47.4576 52.5931ZM40.5084 61.4759L40.5123 61.4798C37.6295 63.386 34.2545 64.4134 30.7975 64.4407C27.3405 64.4681 23.9498 63.4915 21.0358 61.6282L17.2116 65.8587C17.3406 66.1986 17.4187 66.554 17.4382 66.9173C17.4773 67.7494 17.2038 68.5696 16.6765 69.2142C16.6335 69.2728 16.5866 69.3314 16.5359 69.3822H16.532L8.07886 78.7181C8.0437 78.765 8.00464 78.8118 7.96167 78.8509C6.75077 80.14 4.75077 80.2689 3.38747 79.1439C3.32887 79.1009 3.27419 79.054 3.22341 79.0032V78.9993L1.10231 77.0813C0.442146 76.4837 0.0476063 75.6477 0.00460634 74.7571C-0.0422687 73.8704 0.270236 72.9993 0.867886 72.343L9.36009 62.968C9.39524 62.9173 9.43431 62.8704 9.48118 62.8274H9.48508C10.0788 62.1946 10.8992 61.8196 11.7663 61.7805C12.1257 61.7649 12.485 61.804 12.8327 61.8977L16.6569 57.6711L16.6608 57.6672C14.0436 54.3586 12.6881 50.2297 12.8288 46.0152C12.9694 41.8004 14.6022 37.7691 17.4343 34.6442C17.9851 34.027 18.5866 33.4528 19.2234 32.9254V15.1364C19.2234 14.4255 19.7976 13.8512 20.5046 13.8512H33.7666V1.2852C33.7666 0.57426 34.3408 0 35.0478 0H75.9818C76.6927 0 77.2709 0.57422 77.2709 1.2852V13.8512H90.5289C91.2398 13.8512 91.8141 14.4215 91.818 15.1324V39.4724H99.2828C99.9898 39.4763 100.564 40.0505 100.564 40.7576V84.0196C100.564 84.7266 99.9898 85.3008 99.2828 85.3048H48.8728C48.1658 85.3009 47.5916 84.7267 47.5876 84.0196V76.8829H26.4316C26.0878 76.8829 25.7636 76.7501 25.5214 76.5079C25.2792 76.2696 25.1425 75.9415 25.1425 75.6016V69.2071C25.1425 68.5001 25.7206 67.9259 26.4277 67.9259H45.9357V61.4807L40.5084 61.4759ZM18.9854 60.0853C18.88 59.9994 18.7862 59.9134 18.6886 59.8236C18.5909 59.7338 18.4932 59.6517 18.3995 59.5541L14.9659 63.3432L15.5557 63.8744L18.9854 60.0853ZM14.6299 66.4876L14.5792 66.4486L14.5401 66.4095L12.462 64.5267C12.4464 64.515 12.4268 64.4993 12.4112 64.4876L12.4034 64.4837L12.4073 64.4876C12.255 64.3743 12.0675 64.3197 11.88 64.3353C11.6729 64.3431 11.4776 64.4329 11.337 64.5892L11.294 64.64H11.2979L11.2511 64.679L2.76276 74.0618C2.62214 74.222 2.55182 74.429 2.56354 74.64C2.57135 74.847 2.6651 75.0423 2.81354 75.1829L4.98154 77.1438C4.99716 77.1595 5.01669 77.1712 5.03232 77.1829H5.04013C5.18857 77.2923 5.37216 77.347 5.55966 77.3391C5.76669 77.3313 5.962 77.2376 6.10263 77.0813L6.18857 76.9954L14.6847 67.6126C14.6964 67.597 14.712 67.5774 14.7237 67.5618H14.7276V67.5657C14.8409 67.4134 14.8917 67.2298 14.88 67.0384C14.8722 66.8313 14.7784 66.636 14.6261 66.4915L14.6299 66.4876ZM97.9969 42.0386L87.9659 42.0464V82.7344H97.9969V42.0386ZM60.1879 61.4796H48.5039V67.9249H60.1879V61.4796ZM62.7582 69.2062V82.7332H72.7892V61.9832H62.7582V69.2062ZM60.1879 70.4953H50.1569V82.7333H60.1879V70.4953ZM47.5859 70.4953H27.7109V74.3156H47.5859V70.4953ZM51.7148 24.2723V19.2371C51.7148 18.8973 51.8476 18.5691 52.0898 18.3309C52.3281 18.0887 52.6562 17.952 52.9961 17.9559H58.0313C58.3711 17.952 58.6993 18.0887 58.9414 18.327C59.1836 18.5691 59.3204 18.8973 59.3204 19.2371V24.2723C59.3204 24.6122 59.1836 24.9403 58.9414 25.1825C58.6993 25.4208 58.3711 25.5575 58.0313 25.5536H52.9961C52.6562 25.5536 52.3281 25.4208 52.0898 25.1786C51.8476 24.9403 51.7148 24.6122 51.7148 24.2723ZM54.2812 20.5184V22.9872H56.75V20.5184H54.2812ZM62.1757 30.9524V34.6243C62.1757 35.3313 61.6015 35.9095 60.8905 35.9095C60.1796 35.9095 59.6053 35.3314 59.6053 34.6243V30.9563H56.8045V37.8235V37.8196C56.8045 38.5306 56.2303 39.1048 55.5193 39.1048C54.8084 39.1048 54.2341 38.5306 54.2341 37.8196V30.9563H51.4294V34.6243C51.4372 34.9681 51.3083 35.304 51.0662 35.554C50.824 35.804 50.4919 35.9446 50.1443 35.9446C49.8005 35.9446 49.4685 35.804 49.2263 35.554C48.9841 35.304 48.8513 34.9681 48.863 34.6243V30.9563H47.6013C47.2576 30.9563 46.9334 30.8196 46.6912 30.5774C46.449 30.3352 46.3162 30.0071 46.3162 29.6672V28.4133H42.6482C41.9372 28.4133 41.3591 27.8352 41.3591 27.1281C41.3591 26.4172 41.9372 25.8429 42.6482 25.8429H46.324L46.3201 23.0382H39.449C38.738 23.0382 38.1638 22.464 38.1638 21.753C38.1638 21.046 38.738 20.4678 39.449 20.4678H46.3201V17.667L42.6482 17.6709C41.9372 17.6709 41.3591 17.0928 41.3591 16.3857C41.3591 15.6748 41.9372 15.1005 42.6482 15.1005H46.324L46.32 13.8427C46.32 13.5029 46.4529 13.1748 46.695 12.9326C46.9333 12.6904 47.2615 12.5576 47.6013 12.5537H48.863L48.8669 8.88568C48.8552 8.54193 48.988 8.20599 49.2302 7.95599C49.4685 7.70599 49.8005 7.56536 50.1482 7.56536C50.4958 7.56536 50.8278 7.70599 51.07 7.95599C51.3122 8.20599 51.4411 8.54193 51.4333 8.88568V12.5537H54.2341V5.69038C54.2341 4.97944 54.8083 4.40518 55.5193 4.40518C56.2263 4.40518 56.8045 4.9794 56.8045 5.69038V12.5576H59.6053L59.6014 8.88568C59.6014 8.17865 60.1795 7.60048 60.8866 7.60048C61.5975 7.60048 62.1757 8.1786 62.1757 8.88568V12.5537H63.4296C64.1405 12.5537 64.7187 13.1318 64.7187 13.8428V15.0967L68.3867 15.1006C69.0976 15.1006 69.6719 15.6748 69.6719 16.3858C69.6719 17.0928 69.0977 17.671 68.3867 17.671H64.7148V20.4718H71.582V20.4679C72.289 20.4679 72.8672 21.046 72.8672 21.7531C72.8672 22.464 72.2891 23.0383 71.582 23.0383H64.7148V25.843H68.3867C69.0976 25.843 69.6719 26.4172 69.6719 27.1282C69.6719 27.8352 69.0977 28.4134 68.3867 28.4134H64.7148V29.6673C64.7148 30.3782 64.1367 30.9564 63.4257 30.9564L62.1757 30.9524ZM48.8867 15.1284V28.3824H62.1447V15.1284H48.8867Z"/>
</mask>
<path d="M75.3597 60.1904V82.7334H85.3907V50.8704H75.3597V60.1904ZM37.2037 39.2764L37.1685 39.2412C33.1333 35.6787 26.9805 36.0185 23.3635 40.0107L23.3244 40.0576V40.0615L23.2893 40.0889C21.5862 42.0147 20.7034 44.5342 20.8362 47.1006C20.8948 48.2764 21.1643 49.4326 21.6292 50.5108C21.6604 50.5694 21.6877 50.6241 21.7112 50.6866C21.7385 50.7491 21.7698 50.8037 21.7893 50.8662C22.344 52.0107 23.1135 53.042 24.0588 53.8935L24.1018 53.9404H24.1096L24.1369 53.9756V53.9717C28.1721 57.5381 34.3249 57.1983 37.9419 53.2099L37.9849 53.1592H37.981L38.0161 53.124V53.1279C41.5786 49.0927 41.2388 42.9399 37.2544 39.3229L37.2036 39.2839L37.2037 39.2764ZM39.0201 37.46H39.0122C44.0083 42.0303 44.4145 49.761 39.9263 54.823C39.8872 54.8777 39.8443 54.9245 39.7974 54.9714V54.9675C35.231 59.9636 27.5004 60.3698 22.4344 55.8777C22.3836 55.8386 22.3328 55.7956 22.2899 55.7527H22.2977H22.2938C21.2 54.7527 20.2938 53.5652 19.618 52.2449C19.3797 52.0183 19.2352 51.7097 19.2195 51.3816C17.3875 46.9949 18.2273 41.948 21.3797 38.3896C21.4188 38.3388 21.4657 38.2958 21.5086 38.2451V38.2412C26.075 33.2451 33.8096 32.8389 38.8716 37.331C38.9224 37.3701 38.9732 37.4131 39.0201 37.46ZM40.9068 35.2764C39.1607 33.6944 37.0709 32.5381 34.8013 31.9014C34.7388 31.8897 34.6763 31.874 34.6138 31.8506C30.0318 30.6279 25.1411 31.5967 21.3718 34.4717C21.3171 34.5186 21.2585 34.5654 21.2038 34.6045C20.528 35.1358 19.903 35.7217 19.3249 36.3545C16.6101 39.3584 15.1999 43.3193 15.3991 47.3665C15.6022 51.4095 17.3991 55.2103 20.3991 57.9325C20.6608 58.1669 20.9264 58.3895 21.196 58.6044C21.2585 58.6434 21.321 58.6903 21.3756 58.7372C21.528 58.8544 21.6764 58.9677 21.8288 59.077V59.0809C21.8952 59.1161 21.9538 59.1552 22.0085 59.202C24.5554 60.9481 27.571 61.8817 30.6569 61.8817C33.7428 61.8817 36.7585 60.9481 39.3053 59.202C39.3599 59.1552 39.4185 59.1161 39.481 59.0809C40.3912 58.4325 41.2271 57.6864 41.981 56.8621C43.4966 55.1902 44.6216 53.2019 45.274 51.0418C45.2897 50.9832 45.3092 50.9208 45.3287 50.8622C45.8014 49.2333 45.9967 47.5379 45.9108 45.8465C45.8561 44.7685 45.6881 43.706 45.4147 42.663C45.3912 42.6005 45.3756 42.534 45.36 42.4676C44.5826 39.702 43.0397 37.2098 40.9069 35.2801L40.9068 35.2764ZM29.7698 28.792C31.1057 28.7256 32.4456 28.8076 33.7659 29.0381V16.4211H21.7859V31.1281C24.2234 29.7297 26.9612 28.9287 29.7698 28.792ZM36.3284 29.6943C41.6292 31.4795 45.7893 35.6396 47.5704 40.9403H74.7034V2.56932H36.3284V29.6943ZM48.2194 43.5033V43.5072C48.3483 44.2377 48.4342 44.9799 48.4654 45.722C48.5397 47.1634 48.4381 48.6087 48.1647 50.0267H72.7977V49.5892C72.7977 48.8783 73.3719 48.3001 74.0829 48.3001H85.3919V40.7571C85.3919 40.0462 85.97 39.468 86.681 39.468H89.2474V16.421H77.2704V42.222C77.2704 42.5658 77.1336 42.89 76.8954 43.1322C76.6532 43.3705 76.3251 43.5072 75.9813 43.5072L48.2194 43.5033ZM47.4576 52.5931V52.597C46.6725 54.804 45.4576 56.8353 43.8795 58.5736C43.7741 58.6908 43.6686 58.7963 43.5631 58.9096H72.7901V52.5932L47.4576 52.5931ZM40.5084 61.4759L40.5123 61.4798C37.6295 63.386 34.2545 64.4134 30.7975 64.4407C27.3405 64.4681 23.9498 63.4915 21.0358 61.6282L17.2116 65.8587C17.3406 66.1986 17.4187 66.554 17.4382 66.9173C17.4773 67.7494 17.2038 68.5696 16.6765 69.2142C16.6335 69.2728 16.5866 69.3314 16.5359 69.3822H16.532L8.07886 78.7181C8.0437 78.765 8.00464 78.8118 7.96167 78.8509C6.75077 80.14 4.75077 80.2689 3.38747 79.1439C3.32887 79.1009 3.27419 79.054 3.22341 79.0032V78.9993L1.10231 77.0813C0.442146 76.4837 0.0476063 75.6477 0.00460634 74.7571C-0.0422687 73.8704 0.270236 72.9993 0.867886 72.343L9.36009 62.968C9.39524 62.9173 9.43431 62.8704 9.48118 62.8274H9.48508C10.0788 62.1946 10.8992 61.8196 11.7663 61.7805C12.1257 61.7649 12.485 61.804 12.8327 61.8977L16.6569 57.6711L16.6608 57.6672C14.0436 54.3586 12.6881 50.2297 12.8288 46.0152C12.9694 41.8004 14.6022 37.7691 17.4343 34.6442C17.9851 34.027 18.5866 33.4528 19.2234 32.9254V15.1364C19.2234 14.4255 19.7976 13.8512 20.5046 13.8512H33.7666V1.2852C33.7666 0.57426 34.3408 0 35.0478 0H75.9818C76.6927 0 77.2709 0.57422 77.2709 1.2852V13.8512H90.5289C91.2398 13.8512 91.8141 14.4215 91.818 15.1324V39.4724H99.2828C99.9898 39.4763 100.564 40.0505 100.564 40.7576V84.0196C100.564 84.7266 99.9898 85.3008 99.2828 85.3048H48.8728C48.1658 85.3009 47.5916 84.7267 47.5876 84.0196V76.8829H26.4316C26.0878 76.8829 25.7636 76.7501 25.5214 76.5079C25.2792 76.2696 25.1425 75.9415 25.1425 75.6016V69.2071C25.1425 68.5001 25.7206 67.9259 26.4277 67.9259H45.9357V61.4807L40.5084 61.4759ZM18.9854 60.0853C18.88 59.9994 18.7862 59.9134 18.6886 59.8236C18.5909 59.7338 18.4932 59.6517 18.3995 59.5541L14.9659 63.3432L15.5557 63.8744L18.9854 60.0853ZM14.6299 66.4876L14.5792 66.4486L14.5401 66.4095L12.462 64.5267C12.4464 64.515 12.4268 64.4993 12.4112 64.4876L12.4034 64.4837L12.4073 64.4876C12.255 64.3743 12.0675 64.3197 11.88 64.3353C11.6729 64.3431 11.4776 64.4329 11.337 64.5892L11.294 64.64H11.2979L11.2511 64.679L2.76276 74.0618C2.62214 74.222 2.55182 74.429 2.56354 74.64C2.57135 74.847 2.6651 75.0423 2.81354 75.1829L4.98154 77.1438C4.99716 77.1595 5.01669 77.1712 5.03232 77.1829H5.04013C5.18857 77.2923 5.37216 77.347 5.55966 77.3391C5.76669 77.3313 5.962 77.2376 6.10263 77.0813L6.18857 76.9954L14.6847 67.6126C14.6964 67.597 14.712 67.5774 14.7237 67.5618H14.7276V67.5657C14.8409 67.4134 14.8917 67.2298 14.88 67.0384C14.8722 66.8313 14.7784 66.636 14.6261 66.4915L14.6299 66.4876ZM97.9969 42.0386L87.9659 42.0464V82.7344H97.9969V42.0386ZM60.1879 61.4796H48.5039V67.9249H60.1879V61.4796ZM62.7582 69.2062V82.7332H72.7892V61.9832H62.7582V69.2062ZM60.1879 70.4953H50.1569V82.7333H60.1879V70.4953ZM47.5859 70.4953H27.7109V74.3156H47.5859V70.4953ZM51.7148 24.2723V19.2371C51.7148 18.8973 51.8476 18.5691 52.0898 18.3309C52.3281 18.0887 52.6562 17.952 52.9961 17.9559H58.0313C58.3711 17.952 58.6993 18.0887 58.9414 18.327C59.1836 18.5691 59.3204 18.8973 59.3204 19.2371V24.2723C59.3204 24.6122 59.1836 24.9403 58.9414 25.1825C58.6993 25.4208 58.3711 25.5575 58.0313 25.5536H52.9961C52.6562 25.5536 52.3281 25.4208 52.0898 25.1786C51.8476 24.9403 51.7148 24.6122 51.7148 24.2723ZM54.2812 20.5184V22.9872H56.75V20.5184H54.2812ZM62.1757 30.9524V34.6243C62.1757 35.3313 61.6015 35.9095 60.8905 35.9095C60.1796 35.9095 59.6053 35.3314 59.6053 34.6243V30.9563H56.8045V37.8235V37.8196C56.8045 38.5306 56.2303 39.1048 55.5193 39.1048C54.8084 39.1048 54.2341 38.5306 54.2341 37.8196V30.9563H51.4294V34.6243C51.4372 34.9681 51.3083 35.304 51.0662 35.554C50.824 35.804 50.4919 35.9446 50.1443 35.9446C49.8005 35.9446 49.4685 35.804 49.2263 35.554C48.9841 35.304 48.8513 34.9681 48.863 34.6243V30.9563H47.6013C47.2576 30.9563 46.9334 30.8196 46.6912 30.5774C46.449 30.3352 46.3162 30.0071 46.3162 29.6672V28.4133H42.6482C41.9372 28.4133 41.3591 27.8352 41.3591 27.1281C41.3591 26.4172 41.9372 25.8429 42.6482 25.8429H46.324L46.3201 23.0382H39.449C38.738 23.0382 38.1638 22.464 38.1638 21.753C38.1638 21.046 38.738 20.4678 39.449 20.4678H46.3201V17.667L42.6482 17.6709C41.9372 17.6709 41.3591 17.0928 41.3591 16.3857C41.3591 15.6748 41.9372 15.1005 42.6482 15.1005H46.324L46.32 13.8427C46.32 13.5029 46.4529 13.1748 46.695 12.9326C46.9333 12.6904 47.2615 12.5576 47.6013 12.5537H48.863L48.8669 8.88568C48.8552 8.54193 48.988 8.20599 49.2302 7.95599C49.4685 7.70599 49.8005 7.56536 50.1482 7.56536C50.4958 7.56536 50.8278 7.70599 51.07 7.95599C51.3122 8.20599 51.4411 8.54193 51.4333 8.88568V12.5537H54.2341V5.69038C54.2341 4.97944 54.8083 4.40518 55.5193 4.40518C56.2263 4.40518 56.8045 4.9794 56.8045 5.69038V12.5576H59.6053L59.6014 8.88568C59.6014 8.17865 60.1795 7.60048 60.8866 7.60048C61.5975 7.60048 62.1757 8.1786 62.1757 8.88568V12.5537H63.4296C64.1405 12.5537 64.7187 13.1318 64.7187 13.8428V15.0967L68.3867 15.1006C69.0976 15.1006 69.6719 15.6748 69.6719 16.3858C69.6719 17.0928 69.0977 17.671 68.3867 17.671H64.7148V20.4718H71.582V20.4679C72.289 20.4679 72.8672 21.046 72.8672 21.7531C72.8672 22.464 72.2891 23.0383 71.582 23.0383H64.7148V25.843H68.3867C69.0976 25.843 69.6719 26.4172 69.6719 27.1282C69.6719 27.8352 69.0977 28.4134 68.3867 28.4134H64.7148V29.6673C64.7148 30.3782 64.1367 30.9564 63.4257 30.9564L62.1757 30.9524ZM48.8867 15.1284V28.3824H62.1447V15.1284H48.8867Z" fill="white" stroke="white" stroke-width="200" mask="url(#path-1-inside-1_14_2875)"/>
</svg>
