<svg width="100" height="124" viewBox="0 0 100 124" fill="none" xmlns="http://www.w3.org/2000/svg">
<g filter="url(#filter0_f_14_2773)">
<path d="M31.208 83.4148C27.8762 78.4001 25.1591 72.9295 23.6388 67.0437C22.0376 61.1823 22.2883 54.7266 24.5607 49.0444C25.9354 45.5194 27.9814 42.2631 30.5934 39.5033C33.2054 36.7517 36.3835 34.5293 39.8932 33.0395C42.578 31.8591 45.4973 31.3462 48.3843 31.045C52.735 30.6461 57.1908 31.2404 61.3232 32.8197C65.4555 34.3909 69.1754 37.0204 72.1918 40.3093C72.774 40.8873 73.2431 41.5792 73.6798 42.2631C73.793 42.434 73.7202 42.7027 73.6798 42.8818C73.6636 42.9469 73.5099 42.9387 73.421 42.8736C72.96 42.5317 72.4667 42.2468 72.0705 41.8153C67.461 37.2727 61.7032 34.4967 55.5573 33.2756C52.2094 32.6162 48.732 32.6976 45.4326 33.4547C42.1251 34.2037 39.0036 35.6202 36.238 37.5251C31.4749 40.8547 27.7145 45.6903 26.0001 51.2505C25.806 51.7308 25.7171 52.2518 25.5877 52.7566L25.2238 54.2708L25.0135 55.8175C24.9488 56.3304 24.8518 56.8432 24.8518 57.3643C24.7062 59.4483 24.8437 61.4916 25.1914 63.5513C26.0001 67.6542 27.4719 71.6758 29.437 75.445L30.3023 77.0487C30.6177 77.5697 30.933 78.0908 31.2322 78.6118C32.6798 81.1028 34.2971 83.4962 36.1005 85.735C37.8958 87.9737 39.8851 90.0415 42.0847 91.7754L42.5457 92.1744C42.7316 92.329 42.8772 92.5081 43.0228 92.6872C43.3139 93.0373 43.5322 93.4036 43.7182 93.7618C44.0821 94.4782 44.2762 95.1539 44.4218 95.7889C44.7048 97.0588 44.7695 98.1578 44.907 99.2161C44.9555 99.6557 44.8666 100.217 44.6482 100.348C44.4299 100.478 43.8072 100.209 43.5403 99.786C42.675 98.4835 42.0604 96.9774 41.5105 95.7644C41.2437 95.162 40.9364 94.6573 40.5563 94.3154L38.8904 92.8419C38.3324 92.3209 37.8068 91.7673 37.2731 91.23C36.7393 90.6846 36.2622 90.0984 35.7447 89.5367C34.0869 87.5911 32.5261 85.5803 31.1676 83.4311L31.208 83.4067V83.4148Z" fill="white"/>
<path d="M62.1562 90.0903C64.8249 87.3794 67.073 84.2533 69.0947 81.0133C70.7848 78.2861 72.3132 75.4368 73.599 72.498C73.9872 71.5455 74.4158 70.6012 74.7393 69.6243L75.2568 68.1671L75.6935 66.6854L75.9119 65.9446L76.0817 65.1957L76.4294 63.6978C76.5669 62.6883 76.8095 61.687 76.8499 60.6694C76.8823 60.1891 76.9712 59.7088 76.9793 59.2203L77.044 57.7631C77.1411 56.7862 77.0764 55.8093 77.0602 54.8324C77.0602 54.3603 77.2947 53.6927 77.505 53.5788C77.7395 53.4566 77.9659 53.6276 78.1115 53.9369C78.257 54.2463 78.3622 54.6778 78.4592 55.0441C78.5724 55.5081 78.6614 55.9884 78.7503 56.4687C78.8069 56.9572 78.8231 57.4456 78.8716 57.9341C79.284 61.8417 78.7422 65.8307 77.6586 69.5429C76.6801 72.9701 75.3134 76.2753 73.5748 79.3607C72.3213 81.6157 70.8495 83.7404 69.305 85.7919C67.728 87.8271 66.0055 89.7483 64.1698 91.5719C63.2884 92.3941 62.4393 93.257 61.5012 94.0467L60.8138 94.6573L60.6359 94.8364L60.4823 95.0317C60.2801 95.3167 60.0941 95.7156 59.9243 96.1796C59.6979 96.7901 59.5766 97.5472 59.3178 98.2881C59.0752 98.98 58.6142 99.6394 58.0886 100.063C57.563 100.486 56.9888 100.633 56.6087 100.486C56.3661 100.397 56.2448 100.03 56.2125 99.5662C56.1882 99.094 56.2286 98.4834 56.4065 97.7915C56.7624 96.5134 57.1101 95.0643 58.0967 93.6071C58.3716 93.1756 58.8488 92.7279 59.2288 92.4348L60.1992 91.6533C60.8624 91.1567 61.4608 90.5706 62.0754 90.0089L62.1643 90.0903H62.1562Z" fill="white"/>
<path d="M51.2147 107.121L47.1308 107.08H45.0849H44.8261L44.5107 107.064C44.3005 107.039 44.0902 107.015 43.888 106.958C43.4756 106.852 43.0874 106.673 42.7316 106.437C41.8583 105.851 41.2032 104.898 41.0172 103.807C40.8151 102.725 41.1224 101.503 41.8744 100.616C42.4567 99.9242 43.3139 99.5497 44.1792 99.3706C44.9151 99.2322 45.3032 99.2485 45.8046 99.1915L47.2521 99.0613L50.1472 98.7926C50.3251 98.7763 50.503 98.7926 50.6809 98.8496C50.7214 98.8659 50.7618 99.0775 50.7941 99.2159C50.8022 99.2648 50.778 99.3869 50.7618 99.4194C50.6405 99.5823 50.5192 99.8102 50.3898 99.8753C48.9504 100.559 47.5109 101.162 46.031 101.153C45.6267 101.153 45.2224 101.17 44.8261 101.202C44.5269 101.235 44.2439 101.341 44.0093 101.503C43.5322 101.821 43.2492 102.326 43.1521 102.806C42.9581 103.653 43.4028 104.516 44.1145 104.792C44.3813 104.89 44.5835 104.923 44.9231 104.882L46.4273 104.792L49.4356 104.605C49.7186 104.589 50.0097 104.524 50.2928 104.524C51.6513 104.524 53.018 104.556 54.3766 104.532C54.9669 104.532 55.5168 104.792 56.0263 105.444C56.1314 105.582 56.2446 105.948 56.2365 106.193C56.2365 106.453 56.1152 106.852 56.0101 106.933C55.6786 107.186 55.3227 107.454 54.975 107.471C54.2957 107.503 53.6164 107.365 52.9371 107.3L51.2147 107.161V107.121Z" fill="white"/>
<path d="M57.8216 104.605C58.1289 104.068 58.1128 103.441 57.9268 102.936C57.7812 102.513 57.5224 102.138 57.1585 101.853C56.924 101.666 56.649 101.544 56.3337 101.487C56.269 101.471 56.1558 101.455 56.0264 101.446L55.6625 101.406L54.9427 101.3C54.4818 101.227 54.0289 100.974 53.5842 100.722C53.479 100.665 53.3335 100.307 53.3254 100.062C53.293 99.5333 53.5195 99.4356 53.6893 99.3705C53.8995 99.2891 54.1179 99.2973 54.3281 99.2565L55.6139 99.0042L56.2609 98.8821C56.5844 98.8495 56.9159 98.8495 57.2475 98.8983C58.4686 99.053 59.6654 99.7776 60.2962 100.901C61.2585 102.545 60.935 104.638 59.8595 105.997C59.3743 106.632 58.8163 107.259 58.0642 107.658C57.8216 107.788 57.579 107.975 57.296 108.016C57.0372 108.057 56.7461 107.878 56.552 107.576C56.3498 107.275 56.2528 106.868 56.2366 106.453C56.2366 105.932 56.4226 105.305 56.5844 105.167C56.7461 105.037 56.9402 105.037 57.1262 104.947C57.3445 104.841 57.5548 104.711 57.7327 104.532L57.8297 104.605H57.8216Z" fill="white"/>
<path d="M49.4112 113.047H48.74C48.5217 113.039 48.3034 113.039 47.9961 113.015C47.4381 112.958 46.8882 112.762 46.4191 112.461C45.4649 111.867 44.818 110.825 44.6805 109.702C44.4864 108.342 44.9797 106.73 46.2574 105.835C46.7426 105.493 47.341 105.379 47.9071 105.265C49.2172 105.086 50.5353 104.898 51.8534 104.719C51.9667 104.703 52.088 104.719 52.2012 104.776C52.2335 104.793 52.2578 105.004 52.274 105.143C52.274 105.192 52.2659 105.314 52.2497 105.346C52.1688 105.509 52.0961 105.737 52.0071 105.802C51.0609 106.486 50.1067 107.088 49.1282 107.08C48.8613 107.08 48.5945 107.096 48.3357 107.129C48.1416 107.17 47.9475 107.227 47.7858 107.333C47.4542 107.528 47.2116 107.813 47.0418 108.09C46.7345 108.57 46.6375 109.132 46.8073 109.612C47.0418 110.296 47.7535 110.662 48.2953 110.532L48.5136 110.491C48.6107 110.475 48.6996 110.459 48.7966 110.459C49.6943 110.459 50.5919 110.491 51.4976 110.467C51.8858 110.467 52.2497 110.727 52.5893 111.379C52.6621 111.517 52.7349 111.883 52.7268 112.128C52.7268 112.388 52.646 112.787 52.5813 112.868C52.3629 113.121 52.1284 113.389 51.902 113.406C51.4491 113.438 51.0043 113.3 50.5515 113.235L49.4193 113.096V113.056L49.4112 113.047Z" fill="white"/>
<path d="M53.8669 110.971C54.1499 110.67 54.2874 110.288 54.3682 109.946C54.441 109.661 54.4895 109.368 54.4895 109.058C54.5057 108.659 54.3844 108.26 54.1822 107.821C54.0852 107.617 54.0529 107.284 53.9316 106.934C53.9073 106.852 53.972 106.494 54.0529 106.258C54.2389 105.761 54.4572 105.761 54.6189 105.761C54.8211 105.786 54.9909 105.891 55.1688 105.989C55.8886 106.331 56.5921 106.901 57.0045 107.699C57.3927 108.423 57.5787 109.294 57.4008 110.125C57.1501 111.354 56.2848 112.323 55.3306 112.925C54.8858 113.21 54.4653 113.56 53.9396 113.78C53.7698 113.853 53.6081 113.992 53.414 114C53.042 114.016 52.7104 113.186 52.7104 112.372C52.7104 111.851 52.8317 111.216 52.9369 111.102C53.0501 110.988 53.1795 111.028 53.3089 110.996C53.4625 110.963 53.6243 110.922 53.7779 110.857L53.8426 110.955L53.8669 110.971Z" fill="white"/>
<path d="M54.6193 86.0604C54.6597 84.074 54.8295 82.0877 55.1288 80.1176C55.4361 78.1557 55.8242 76.1937 56.4712 74.3051C57.1262 72.4245 58.0562 70.5847 59.528 69.1682C59.9161 68.8263 60.3609 68.5332 60.8946 68.403C61.4203 68.2565 62.0915 68.4356 62.4311 68.9077C63.0619 69.7951 63.2155 70.9104 62.981 71.928C62.8355 72.5548 62.5201 73.1572 62.0753 73.6212C61.6548 74.0934 61.1615 74.5086 60.6116 74.8179C59.4956 75.4448 58.2098 75.6646 56.9725 75.6483C55.7191 75.6483 54.5061 75.3715 53.3173 75.0296C52.727 74.8505 52.1447 74.6307 51.5706 74.4028C51.0207 74.126 50.4303 73.9143 49.9047 73.5805C48.2469 72.6606 46.7509 71.4395 45.4408 70.0719C43.4919 67.9959 41.9473 65.513 41.082 62.7695C40.9607 62.4358 40.8637 62.0857 40.7828 61.7357C40.7019 61.3856 40.6049 61.0356 40.5402 60.6855C40.4351 59.9691 40.2976 59.2609 40.2814 58.5363L40.2491 57.999L40.2329 57.7304C40.2329 57.6246 40.2329 57.5025 40.2572 57.3966C40.3219 56.9489 40.5321 56.5256 40.8718 56.2081C41.2195 55.8987 41.6562 55.687 42.1899 55.7196C42.7317 55.7685 43.1199 56.1022 43.3868 56.3953C43.7507 56.8023 44.0741 57.2582 44.3329 57.7223C44.3976 57.8444 44.3976 57.9746 44.4057 58.0642C44.4057 58.0967 44.341 58.056 44.3006 57.999C44.0822 57.706 43.8396 57.4455 43.5889 57.1443C43.2493 56.7535 42.9096 56.2813 42.3355 56.1266C41.7613 56.0045 41.2195 56.3465 40.9526 56.7942C40.8152 57.0221 40.7343 57.2745 40.7181 57.535C40.7019 57.7955 40.7586 58.056 40.7666 58.3165C40.8071 58.8375 40.8556 59.3586 40.9607 59.8714C41.3165 61.931 42.0363 63.9337 43.0471 65.8061C45.2386 69.8765 49.0637 73.0025 53.3982 74.3621C55.2743 74.9319 57.3041 75.2413 59.1479 74.7284C60.927 74.2318 62.609 72.6851 62.4635 70.8289C62.4473 70.5033 62.3826 70.1858 62.2613 69.8846C62.1481 69.5834 61.9944 69.2985 61.8084 69.1519C61.4607 68.8426 60.8461 68.981 60.3205 69.3555C59.8029 69.7055 59.3662 70.2754 58.9457 70.8289C58.5414 71.3907 58.1856 72.0012 57.8863 72.6362C56.6814 75.1924 56.1639 78.0743 55.7757 80.9154C55.6625 81.7295 55.6059 82.5517 55.5331 83.3739C55.2258 87.2734 55.428 91.2135 56.1396 95.056C56.4388 96.7167 56.7461 98.2716 56.9806 99.7369C57.0291 100.038 57.013 100.38 56.9402 100.396C56.8674 100.413 56.6572 100.12 56.5439 99.8265C56.1881 98.9147 55.8485 97.946 55.6301 96.9528C55.1854 95.0153 54.9185 93.0289 54.7568 91.0507C54.6193 89.3818 54.5708 87.7048 54.6112 86.0278H54.6274L54.6193 86.0604Z" fill="white"/>
<path d="M48.9341 92.5892L48.3196 84.8392C48.1416 82.6656 47.9476 80.492 47.7373 78.3266C47.4624 75.5424 47.1227 72.7582 46.7103 69.9904C46.5243 68.6797 46.3464 67.369 46.1604 66.0746C46.1119 65.7653 46.1361 65.3501 46.2008 65.2931C46.3383 65.171 46.5 65.806 46.6213 66.2782C46.7669 66.8724 46.872 67.4993 47.0014 68.1098C47.4947 70.5521 47.9152 73.0106 48.2549 75.4854C48.5702 77.7486 48.829 80.0361 49.015 82.3156C49.29 85.637 49.4517 88.9666 49.6539 92.288C49.7428 93.8348 49.9046 95.3815 49.9207 96.969C49.9207 97.4982 49.9369 98.0273 49.8884 98.5565C49.8075 99.5334 49.3789 100.404 49.1201 100.445C48.9503 100.47 48.9341 99.7369 48.9908 98.7763C49.0474 97.8808 49.0797 96.9527 49.0555 96.0328C49.0312 94.9012 48.9584 93.7615 48.8937 92.6218H48.9261L48.9341 92.5892Z" fill="white"/>
<path d="M43.4677 105.127C43.7264 104.768 43.9933 104.418 44.2359 104.052C44.3896 103.824 44.4866 103.563 44.6241 103.319C44.6726 103.23 44.7535 103.156 44.802 103.059C44.9395 102.782 45.0769 102.489 45.2225 102.204C45.2387 102.18 45.2548 102.155 45.2872 102.147C45.2872 102.147 45.3519 102.18 45.3842 102.196C45.4004 102.196 45.4247 102.228 45.4327 102.237C45.4651 102.285 45.5055 102.334 45.5055 102.367C45.5379 102.676 45.546 102.969 45.4085 103.165C45.2548 103.376 45.1821 103.645 45.0608 103.873C44.9556 104.076 44.8343 104.264 44.7211 104.459L44.244 105.306C44.244 105.306 44.2116 105.395 44.1874 105.436L43.8073 105.965C43.7507 106.046 43.6375 106.071 43.4272 106.03C43.3868 106.022 43.2817 105.973 43.2251 105.932C43.1604 105.892 43.0714 105.802 43.0633 105.778C43.031 105.688 42.9986 105.599 43.031 105.55C43.0876 105.452 43.1846 105.387 43.2655 105.306L43.4596 105.102H43.4677V105.127Z" fill="white"/>
<path d="M47.0257 101.016C46.961 101.146 46.9044 101.284 46.8316 101.406C46.7669 101.512 46.6942 101.61 46.6133 101.699C46.5082 101.813 46.403 101.927 46.2737 102.025C46.209 102.074 46.1119 102.09 46.0068 102.098C45.9825 102.098 45.8855 102.058 45.8208 102.017C45.6914 101.927 45.6914 101.879 45.6914 101.846C45.6914 101.805 45.7157 101.781 45.7238 101.74C45.7642 101.602 45.7965 101.455 45.8531 101.317C45.9017 101.195 45.9502 101.073 46.031 100.975C46.1524 100.828 46.306 100.714 46.4273 100.576C46.4839 100.511 46.5082 100.421 46.5405 100.332C46.5486 100.307 46.5405 100.259 46.5648 100.242C46.6052 100.21 46.8316 100.316 47.0257 100.462C47.147 100.552 47.2764 100.698 47.2683 100.763C47.2683 100.82 47.2117 100.853 47.1794 100.894C47.1389 100.934 47.0904 100.983 47.05 101.032L47.0176 101.007L47.0257 101.016Z" fill="white"/>
<path d="M46.031 104.988C46.3221 104.614 46.6213 104.247 46.8963 103.857C47.0661 103.621 47.1874 103.344 47.341 103.091C47.3976 102.994 47.4866 102.92 47.5432 102.823C47.7049 102.53 47.8667 102.22 48.0284 101.919C48.0446 101.895 48.0688 101.87 48.1012 101.854C48.1012 101.854 48.1659 101.887 48.1982 101.903C48.2144 101.903 48.2387 101.935 48.2387 101.944C48.2629 101.992 48.3034 102.049 48.3034 102.082C48.3114 102.408 48.3034 102.717 48.1497 102.92C47.9799 103.14 47.8828 103.425 47.7454 103.669C47.6241 103.881 47.4866 104.085 47.3572 104.288L46.8154 105.184C46.7911 105.224 46.775 105.281 46.7426 105.314L46.314 105.876C46.2574 105.957 46.128 105.99 45.9258 105.941C45.8854 105.933 45.7803 105.884 45.7237 105.835C45.659 105.786 45.5781 105.705 45.57 105.672C45.5458 105.582 45.5134 105.485 45.5538 105.436C45.6185 105.338 45.7237 105.265 45.8126 105.184L46.031 104.972H46.0391L46.031 104.988Z" fill="white"/>
<path d="M49.9694 100.641C49.8967 100.779 49.832 100.926 49.743 101.056C49.6702 101.17 49.5894 101.268 49.5004 101.366C49.3872 101.488 49.2659 101.61 49.1284 101.716C49.0637 101.765 48.9586 101.781 48.8535 101.797C48.8292 101.797 48.7322 101.756 48.6675 101.716C48.5381 101.626 48.5381 101.577 48.5381 101.537C48.5381 101.488 48.5623 101.463 48.5785 101.431C48.6351 101.284 48.6756 101.13 48.7403 100.991C48.7969 100.861 48.8535 100.731 48.9424 100.633C49.0718 100.478 49.2416 100.356 49.3791 100.21C49.4438 100.144 49.4681 100.047 49.5085 99.9573C49.5247 99.9247 49.5085 99.884 49.5408 99.8677C49.5813 99.827 49.8077 99.941 50.0018 100.088C50.1231 100.177 50.2444 100.332 50.2363 100.397C50.2282 100.462 50.1797 100.495 50.1393 100.535C50.0908 100.584 50.0422 100.633 49.9937 100.682L49.9694 100.657V100.641Z" fill="white"/>
<path d="M48.8779 105.476C49.2176 105.053 49.5734 104.638 49.905 104.198C50.1071 103.93 50.2608 103.62 50.4468 103.335C50.5195 103.23 50.6166 103.14 50.6894 103.026C50.8915 102.692 51.0856 102.35 51.2878 102.017C51.304 101.984 51.3363 101.96 51.3687 101.943C51.3767 101.943 51.4334 101.976 51.4657 101.992C51.4819 101.992 51.5061 102.025 51.5061 102.033C51.5304 102.082 51.5708 102.147 51.5627 102.179C51.5385 102.529 51.5061 102.871 51.3201 103.107C51.118 103.36 50.9967 103.669 50.8188 103.946C50.6732 104.19 50.5034 104.41 50.3497 104.646C50.1233 104.98 49.905 105.322 49.6866 105.656C49.6543 105.704 49.6381 105.761 49.5977 105.81C49.4278 106.022 49.2499 106.234 49.0882 106.453C49.0154 106.551 48.886 106.584 48.6677 106.543C48.6272 106.535 48.5221 106.486 48.4655 106.437C48.4089 106.388 48.328 106.299 48.3199 106.266C48.3038 106.168 48.2876 106.063 48.3199 106.006C48.4008 105.892 48.514 105.81 48.6111 105.721C48.6919 105.639 48.7728 105.558 48.8618 105.476C48.8618 105.476 48.8618 105.476 48.8698 105.485L48.8779 105.476Z" fill="white"/>
<path d="M53.463 100.527C53.3741 100.682 53.2851 100.844 53.1881 100.991C53.0991 101.113 53.0021 101.227 52.8969 101.341C52.7595 101.479 52.622 101.618 52.4683 101.74C52.3956 101.797 52.2823 101.821 52.161 101.846C52.1368 101.846 52.0317 101.805 51.975 101.764C51.8457 101.667 51.8537 101.618 51.8618 101.577C51.8618 101.528 51.8942 101.496 51.9184 101.455C51.9912 101.292 52.0478 101.121 52.1287 100.967C52.2015 100.82 52.2743 100.682 52.3794 100.56C52.533 100.389 52.719 100.242 52.8808 100.079C52.9535 99.9978 52.994 99.892 53.0425 99.7943C53.0587 99.7617 53.0587 99.7129 53.0829 99.6885C53.1315 99.6478 53.366 99.7536 53.5601 99.9001C53.6814 99.9897 53.8027 100.153 53.7784 100.226C53.7622 100.291 53.7056 100.332 53.6652 100.38C53.6086 100.437 53.552 100.494 53.4954 100.551C53.4873 100.551 53.4792 100.535 53.4711 100.527H53.463Z" fill="white"/>
<path d="M52.258 105.648C52.5896 105.224 52.9292 104.801 53.2365 104.361C53.4306 104.093 53.5761 103.783 53.7541 103.499C53.8187 103.393 53.9158 103.303 53.9805 103.189C54.1665 102.855 54.3606 102.513 54.5466 102.18C54.5627 102.147 54.587 102.123 54.6274 102.106C54.6355 102.106 54.6921 102.139 54.7245 102.155C54.7406 102.155 54.7649 102.188 54.7649 102.196C54.7892 102.245 54.8296 102.302 54.8296 102.334C54.8215 102.684 54.7892 103.018 54.6113 103.254C54.4172 103.507 54.304 103.816 54.1422 104.093C54.0047 104.337 53.843 104.557 53.6974 104.793L53.0667 105.802C53.0343 105.851 53.0182 105.908 52.9858 105.949L52.5006 106.592C52.4359 106.69 52.2984 106.722 52.0882 106.69C52.0397 106.69 51.9426 106.633 51.886 106.592C51.8213 106.543 51.7404 106.454 51.7404 106.421C51.7162 106.323 51.7 106.218 51.7404 106.161C51.8132 106.047 51.9264 105.965 52.0235 105.868L52.2661 105.623H52.2742L52.258 105.648Z" fill="white"/>
<path d="M56.6651 100.666C56.5761 100.82 56.4952 100.983 56.4063 101.13C56.3254 101.252 56.2284 101.374 56.1313 101.48C56.002 101.618 55.8726 101.756 55.7189 101.878C55.6461 101.935 55.5329 101.96 55.4197 101.984C55.3954 101.984 55.2903 101.952 55.2337 101.903C55.1043 101.813 55.1124 101.756 55.1124 101.716C55.1124 101.667 55.1447 101.634 55.1609 101.594C55.2256 101.431 55.2822 101.26 55.355 101.105C55.4197 100.959 55.4925 100.82 55.5895 100.698C55.7351 100.527 55.9211 100.381 56.0747 100.21C56.1475 100.128 56.1799 100.022 56.2284 99.9247C56.2445 99.8921 56.2446 99.8433 56.2688 99.8189C56.3173 99.7782 56.5438 99.8758 56.7459 100.022C56.8672 100.112 56.9885 100.267 56.9724 100.34C56.9562 100.405 56.8996 100.446 56.8591 100.495C56.8025 100.552 56.754 100.609 56.6974 100.666L56.6651 100.641V100.666Z" fill="white"/>
<path d="M54.7165 106.031C55.0481 105.599 55.3877 105.184 55.695 104.744C55.8891 104.476 56.0346 104.166 56.2126 103.881C56.2772 103.776 56.3743 103.686 56.439 103.572C56.625 103.238 56.8191 102.896 57.0051 102.563C57.0212 102.53 57.0455 102.506 57.0859 102.489C57.094 102.489 57.1506 102.522 57.183 102.538C57.1991 102.538 57.2234 102.571 57.2234 102.579C57.2477 102.628 57.2881 102.685 57.2881 102.717C57.28 103.067 57.2477 103.401 57.0697 103.637C56.8757 103.889 56.7625 104.199 56.6007 104.476C56.4632 104.72 56.3015 104.94 56.1559 105.176L55.5252 106.185C55.4928 106.234 55.4767 106.291 55.4443 106.332L54.9591 106.975C54.8944 107.073 54.7569 107.105 54.5467 107.073C54.4982 107.073 54.4011 107.016 54.3445 106.975C54.2798 106.926 54.1989 106.836 54.1989 106.804C54.1747 106.706 54.1585 106.6 54.1989 106.543C54.2717 106.429 54.3849 106.348 54.482 106.25L54.7246 106.006H54.7327L54.7165 106.031Z" fill="white"/>
<path d="M59.1319 101.04C59.0429 101.195 58.962 101.358 58.8731 101.504C58.7922 101.626 58.6952 101.748 58.5981 101.854C58.4687 101.992 58.3394 102.131 58.1857 102.253C58.1129 102.31 57.9997 102.334 57.8865 102.359C57.8622 102.359 57.7571 102.326 57.7005 102.277C57.5711 102.188 57.5792 102.131 57.5792 102.09C57.5792 102.041 57.6115 102.009 57.6277 101.968C57.6924 101.805 57.749 101.634 57.8218 101.48C57.8865 101.333 57.9593 101.195 58.0563 101.073C58.2019 100.902 58.3879 100.755 58.5415 100.584C58.6143 100.503 58.6467 100.397 58.6952 100.299C58.7113 100.267 58.7114 100.218 58.7356 100.193C58.7841 100.153 59.0106 100.25 59.2127 100.397C59.334 100.486 59.4553 100.641 59.4392 100.714C59.423 100.78 59.3664 100.82 59.3259 100.869C59.2774 100.926 59.2208 100.983 59.1642 101.04L59.1319 101.016V101.04Z" fill="white"/>
<path d="M47.2121 110.353C47.487 110.019 47.7781 109.693 48.0369 109.343C48.1987 109.131 48.3119 108.879 48.4574 108.643C48.514 108.553 48.5949 108.488 48.6515 108.399C48.8052 108.13 48.9588 107.853 49.1125 107.577C49.1286 107.552 49.1529 107.536 49.1772 107.52C49.1772 107.52 49.2419 107.552 49.2742 107.577C49.2823 107.577 49.3146 107.609 49.3146 107.617C49.3389 107.666 49.3793 107.723 49.3793 107.747C49.3955 108.057 49.3874 108.35 49.2419 108.529C49.0801 108.724 48.9912 108.985 48.8618 109.213C48.7486 109.408 48.6192 109.587 48.4979 109.775L47.9803 110.589C47.9803 110.589 47.9399 110.678 47.9156 110.711L47.5032 111.215C47.4466 111.289 47.3253 111.305 47.1231 111.248C47.0827 111.24 46.9856 111.183 46.929 111.134C46.8724 111.085 46.7916 110.996 46.7835 110.971C46.7592 110.882 46.7269 110.792 46.7592 110.743C46.8239 110.654 46.921 110.597 47.0018 110.523L47.204 110.336H47.2121V110.353Z" fill="white"/>
<path d="M50.9726 106.502C50.8998 106.632 50.8432 106.763 50.7624 106.877C50.6977 106.974 50.6168 107.064 50.5278 107.153C50.4146 107.259 50.3014 107.365 50.172 107.455C50.1073 107.495 50.0022 107.503 49.9052 107.512C49.8809 107.512 49.7839 107.463 49.7273 107.422C49.606 107.324 49.606 107.275 49.606 107.243C49.606 107.202 49.6302 107.178 49.6464 107.145C49.6949 107.007 49.7353 106.868 49.792 106.738C49.8486 106.616 49.8971 106.502 49.986 106.413C50.1073 106.282 50.2691 106.176 50.3985 106.046C50.4551 105.989 50.4793 105.892 50.5198 105.818C50.5359 105.794 50.5198 105.753 50.5521 105.729C50.5925 105.696 50.8109 105.81 51.005 105.965C51.1263 106.062 51.2476 106.217 51.2395 106.274C51.2314 106.331 51.1829 106.356 51.1505 106.396C51.1101 106.437 51.0616 106.478 51.0131 106.527L50.9888 106.502H50.9726Z" fill="white"/>
<path d="M50.9318 110.907C51.1987 110.557 51.4817 110.223 51.7324 109.856C51.886 109.637 51.9993 109.376 52.1367 109.14C52.1933 109.05 52.2742 108.985 52.3227 108.888C52.4683 108.611 52.6139 108.326 52.7594 108.049C52.7756 108.025 52.7918 108 52.8241 107.992C52.8241 107.992 52.8888 108.025 52.9211 108.041C52.9373 108.041 52.9616 108.074 52.9697 108.082C52.9939 108.131 53.0425 108.179 53.0425 108.212C53.0667 108.521 53.0667 108.814 52.9211 109.01C52.7594 109.213 52.6785 109.482 52.5492 109.718C52.4359 109.922 52.3066 110.109 52.1933 110.304L51.6839 111.151C51.6839 111.151 51.6434 111.24 51.6192 111.281L51.2148 111.81C51.1582 111.892 51.045 111.908 50.8428 111.851C50.8024 111.843 50.7054 111.786 50.6488 111.737C50.5922 111.688 50.5113 111.599 50.5032 111.566C50.4789 111.476 50.4466 111.379 50.4789 111.33C50.5355 111.24 50.6326 111.175 50.7135 111.102L50.9156 110.907H50.9237H50.9318Z" fill="white"/>
<path d="M54.6277 106.885C54.563 107.015 54.4983 107.153 54.4255 107.276C54.3608 107.381 54.28 107.471 54.1991 107.56C54.0859 107.674 53.9727 107.788 53.8433 107.886C53.7786 107.935 53.6734 107.943 53.5683 107.959C53.5441 107.959 53.447 107.919 53.3823 107.878C53.2529 107.788 53.2529 107.74 53.2529 107.707C53.2529 107.666 53.2772 107.642 53.2853 107.601C53.3338 107.463 53.3661 107.316 53.4228 107.186C53.4713 107.064 53.5279 106.95 53.6087 106.852C53.7301 106.714 53.8918 106.6 54.0212 106.47C54.0778 106.404 54.102 106.315 54.1344 106.234C54.1425 106.209 54.1344 106.168 54.1587 106.144C54.1991 106.111 54.4255 106.209 54.6358 106.348C54.7652 106.437 54.8945 106.575 54.8865 106.641C54.8865 106.698 54.8299 106.73 54.7975 106.771C54.7571 106.812 54.7086 106.86 54.66 106.909L54.6277 106.885Z" fill="white"/>
</g>
<defs>
<filter id="filter0_f_14_2773" x="12.6138" y="20.9248" width="76.396" height="103.075" filterUnits="userSpaceOnUse" color-interpolation-filters="sRGB">
<feFlood flood-opacity="0" result="BackgroundImageFix"/>
<feBlend mode="normal" in="SourceGraphic" in2="BackgroundImageFix" result="shape"/>
<feGaussianBlur stdDeviation="5" result="effect1_foregroundBlur_14_2773"/>
</filter>
</defs>
</svg>
