<svg width="110" height="110" viewBox="0 0 110 110" fill="none" xmlns="http://www.w3.org/2000/svg">
<mask id="path-1-inside-1_14_2839" fill="white">
<path fill-rule="evenodd" clip-rule="evenodd" d="M89.5232 53.2033H99.0839C100.043 53.2033 100.789 53.9702 100.744 55.0214V72.1862H101.18C101.337 72.1396 102.443 71.2526 104.298 71.2526C107.444 71.2526 109.994 73.7997 109.994 76.968C109.994 80.9266 106.092 83.6832 102.372 82.3417C101.949 82.1897 101.553 81.9925 101.19 81.756H100.744V94.7453H100.75C100.75 98.0447 98.0694 100.732 94.7778 100.732V100.725H80.152C79.2353 100.725 78.4922 99.9805 78.4922 99.0616H78.486V96.4116C78.486 95.282 79.4113 95.2734 79.4113 93.8338C79.4113 91.724 76.8555 90.663 75.3668 92.1541C74.5088 93.0142 74.4269 94.3937 75.214 95.3469C75.4988 95.6924 75.6223 96.1175 75.5917 96.5316V99.0592C75.5917 99.9781 74.8485 100.723 73.9318 100.723H37.7305V101.16C37.7769 101.317 38.6618 102.426 38.6618 104.286C38.6618 109.383 32.4869 111.897 28.9276 108.328C27.379 106.775 26.8387 104.473 27.599 102.355C27.7518 101.927 27.951 101.527 28.1894 101.16V100.723H15.2235V100.729C11.9319 100.729 9.25141 98.0423 9.25141 94.7441H9.25752V80.0836C9.25752 79.1648 10.0007 78.4199 10.9174 78.4199H13.5612C13.9633 78.4199 14.3324 78.5632 14.6197 78.8021L14.6221 78.7984C16.1695 80.0824 18.5077 78.9516 18.5077 76.9656H18.5016C18.5016 74.9587 16.1585 73.8585 14.6221 75.1327C14.3116 75.39 13.9352 75.5162 13.5612 75.5162V75.5186H10.9174C9.997 75.5186 9.25019 74.7701 9.25019 73.8475V37.5676H8.81017C8.65127 37.6141 7.55123 38.495 5.70192 38.495C2.557 38.495 0.00611152 35.9479 0.00611152 32.7796H0C0 28.8419 3.89662 26.0607 7.62823 27.406C8.05114 27.5579 8.44715 27.7551 8.81017 27.9916H9.25019V15.0023C9.25019 11.7066 11.9184 9.02342 15.221 9.02342H29.8468C30.7635 9.02342 31.5066 9.76833 31.5066 10.6872V13.3373C31.5066 13.7404 31.3636 14.1104 31.1253 14.3983L31.1289 14.4007C29.8578 15.9408 30.9554 18.2894 32.9575 18.2894C34.9596 18.2894 36.0572 15.9408 34.786 14.4007C34.5012 14.0552 34.3778 13.6301 34.4083 13.216V10.6884C34.4083 9.76956 35.1515 9.02465 36.0682 9.02465V9.01852H54.9988C55.9583 9.01852 56.7039 9.78548 56.6586 10.8367V20.246L61.1224 15.8121C61.7726 15.164 62.8214 15.1665 63.4692 15.8158L63.4728 15.8121L65.3013 17.6462C66.0848 18.4316 65.4627 19.0919 66.4405 20.0708C67.884 21.5165 70.3432 20.4666 70.3432 18.4536C70.3432 17.2823 69.4412 16.2814 68.2715 16.1711C67.8706 16.1331 67.5173 15.9555 67.2533 15.6908L67.2497 15.6945L65.4199 13.8604C64.7697 13.2086 64.7697 12.1501 65.4199 11.4983L74.9146 1.98111C77.5498 -0.66037 81.8424 -0.66037 84.4776 1.98111L92.794 10.3172L93.0678 10.0428C93.146 9.8982 93.2841 8.54315 94.5834 7.24079C95.6798 6.14181 97.1172 5.59171 98.5534 5.59171V5.59783C103.545 5.59783 106.048 11.6674 102.525 15.1995C101.23 16.497 99.8661 16.644 99.728 16.7188L99.4554 16.992L107.771 25.3268C109.088 26.6476 109.747 28.3849 109.747 30.1197H109.741C109.741 31.8595 109.085 33.5968 107.771 34.9126L98.2759 44.4298C97.6257 45.0816 96.5696 45.0816 95.9194 44.4298L94.0909 42.5969C93.3074 41.8116 93.9295 41.1512 92.9517 40.1723C91.5094 38.7266 89.049 39.7766 89.049 41.7895H89.0551C89.0551 42.9706 89.9571 43.9618 91.1207 44.072C91.5216 44.11 91.8749 44.2877 92.1389 44.5523L92.1425 44.5486L93.9711 46.3815C94.6213 47.0333 94.6213 48.0918 93.9711 48.7436L89.5208 53.2045L89.5232 53.2033ZM79.4895 54.5657V37.5615C70.4496 35.4958 62.0342 31.9599 55.0024 26.3866C47.9719 31.9575 39.559 35.4934 30.5215 37.559V54.1503C30.5215 60.8398 33.1836 67.2401 37.5227 72.4863C41.9571 77.8477 48.1284 81.9949 55.0024 84.0275C61.78 82.0207 67.9684 77.8759 72.4358 72.5439C76.781 67.359 79.4834 61.0677 79.4834 54.5645L79.4895 54.5657ZM27.1883 53.2106V36.2211C27.1883 35.3757 27.8141 34.6786 28.6257 34.5659C33.7556 33.473 38.4259 31.9624 42.6367 30.0315C46.6017 28.2146 50.1708 26.0191 53.3414 23.4462V12.3571H37.7317V12.7872C37.7781 12.944 38.6631 14.0528 38.6631 15.9126C38.6631 20.9873 32.5126 23.5467 28.9288 19.9544C27.3802 18.4021 26.84 16.1 27.6002 13.9817C27.7542 13.5541 27.9522 13.1535 28.1906 12.7872V12.3498H15.2247C13.7861 12.3498 12.587 13.5431 12.587 15.0011V29.6615C12.587 30.5841 11.8402 31.3327 10.9198 31.3327H8.27604V31.3302C7.15276 31.3302 7.13565 30.4052 5.70437 30.4052C4.39531 30.4052 3.33559 31.4687 3.33559 32.7796H3.32948C3.32948 34.8575 5.77526 35.8217 7.16621 34.6517C7.46078 34.3882 7.84946 34.2278 8.27604 34.2278H10.9198C11.8402 34.2278 12.587 34.9763 12.587 35.8989V53.2106H27.1883ZM53.3365 87.0047C39.8976 82.7374 28.4729 70.7539 27.2885 56.5382H12.587V72.1788H13.027C13.1859 72.1323 14.286 71.2514 16.1353 71.2514C19.2839 71.2514 21.8372 73.8107 21.8372 76.9668H21.8311C21.8311 80.9241 17.9296 83.682 14.209 82.3404C13.7824 82.1873 13.3827 81.9876 13.0172 81.7487H12.5809V94.7453H12.587C12.587 96.1996 13.7738 97.3893 15.2247 97.3893V97.3954H29.8504C30.7671 97.3954 31.5103 98.1403 31.5103 99.0592V101.587C31.558 102.879 30.5924 102.797 30.5924 104.286C30.5924 106.376 33.1274 107.479 34.6369 105.965C35.4949 105.105 35.5768 103.726 34.7897 102.773L34.7933 102.77C34.555 102.482 34.412 102.112 34.412 101.709V99.0592C34.412 98.1403 35.1551 97.3954 36.0718 97.3954H53.3353V87.0022L53.3365 87.0047ZM82.7445 56.5456C81.708 70.662 69.9582 82.7729 56.6696 87.0047V97.3978H72.2732V96.9605C72.2268 96.8036 71.3418 95.6948 71.3418 93.835C71.3418 88.7603 77.4923 86.201 81.076 89.7932C82.6247 91.3455 83.1649 93.6476 82.4047 95.7659C82.2531 96.1898 82.0563 96.5868 81.8204 96.9506V97.3978H94.779V97.3917C96.2298 97.3917 97.4179 96.2021 97.4179 94.7478H97.424L97.4179 80.0873C97.4179 79.1648 98.1647 78.4162 99.0851 78.4162H101.729V78.4186C102.852 78.4186 102.869 79.3436 104.301 79.3436C105.613 79.3436 106.677 78.2692 106.677 76.9693C106.677 74.9832 104.338 73.8524 102.791 75.1364L102.789 75.1327C102.501 75.3716 102.132 75.515 101.73 75.515H99.0863C98.1696 75.515 97.4264 74.7701 97.4264 73.8512V56.5468H82.7457L82.7445 56.5456ZM82.8117 36.313V53.2045H84.8125L90.4411 47.5626L90.1674 47.2881C90.0231 47.2097 88.6713 47.0713 87.372 45.7689C86.2756 44.6699 85.7268 43.2291 85.7268 41.7895H85.7329C85.7329 36.7688 91.7966 34.2853 95.3119 37.8102C96.6112 39.1138 96.7493 40.4676 96.8275 40.6134L97.1013 40.8878L105.416 32.5517C106.087 31.8791 106.424 30.9982 106.424 30.121H106.418C106.418 29.2388 106.084 28.3592 105.418 27.6902L95.9243 18.1743C95.274 17.5225 95.274 16.4639 95.9243 15.8121L97.7528 13.9793L97.7565 13.9829C98.5326 13.2037 99.2024 13.809 100.172 12.8374C101.616 11.3892 100.568 8.92541 98.5583 8.92541V8.93154C97.3934 8.93154 96.3802 9.88227 96.2922 10.9004C96.2787 11.3096 96.1162 11.7139 95.8057 12.0251L93.9772 13.858C93.3269 14.5098 92.2709 14.5098 91.6206 13.858L82.126 4.3408C80.7925 3.00413 78.6095 3.00413 77.276 4.3408L68.9596 12.6757L69.2334 12.9501C69.3715 13.0248 70.7356 13.1731 72.0288 14.4693C75.533 17.9819 73.0665 24.0784 68.0576 24.0784C65.9027 24.0784 63.919 22.8459 62.9802 20.8476C62.7957 20.4555 62.66 20.0463 62.5708 19.6273L62.2884 19.3443L57.4947 24.1066C64.359 29.4189 72.6509 32.733 81.488 34.5892C82.3044 34.7595 82.8545 35.5019 82.8092 36.3118L82.8117 36.313ZM69.8372 69.2886C73.2315 65.052 75.4132 59.9773 75.4132 54.5669H75.4071V42.026C75.4071 41.2652 74.8974 40.6232 74.202 40.4247V40.4198C67.7043 38.5526 61.5392 35.8854 55.9289 32.118C55.3435 31.7247 54.5979 31.7541 54.0527 32.1364C48.7028 35.8021 42.05 38.6323 35.8066 40.4198C35.0745 40.6281 34.5965 41.2982 34.5965 42.0248V54.1516C34.5965 65.8508 43.9971 75.7429 54.4353 79.5372C54.8167 79.6757 55.2151 79.6659 55.5684 79.5372C60.9244 77.5757 66.1215 73.9296 69.8384 69.2874L69.8372 69.2886ZM54.9988 76.1913C63.5951 72.8232 72.0813 64.361 72.0813 54.5669H72.0874V43.2745C66.0873 41.4477 60.2937 38.9042 55.0049 35.4934C49.7185 38.903 43.9262 41.4465 37.9285 43.272V54.1516C37.9285 64.198 46.1092 72.7326 54.9988 76.1913ZM63.5339 48.4962L53.4379 58.6161C52.7877 59.2679 51.7316 59.2679 51.0814 58.6161L46.4758 53.9996C45.6203 53.142 44.101 53.7215 44.101 54.9871C44.101 55.3461 44.2354 55.7051 44.5055 55.9746L51.64 63.126C51.9798 63.4666 52.542 63.4666 52.883 63.126L65.5067 50.4724C65.7768 50.2016 65.9113 49.8438 65.9113 49.4849H65.9174C65.9174 48.2413 64.403 47.6287 63.5352 48.4974L63.5339 48.4962ZM52.2597 55.0729L48.8324 51.6375C47.912 50.7149 46.7007 50.2531 45.4907 50.2531C41.2689 50.2531 39.1984 55.3804 42.149 58.3368L49.2834 65.4881C50.9262 67.1348 53.5968 67.1348 55.2396 65.4881L67.8632 52.8345C68.7836 51.9119 69.2444 50.6978 69.2444 49.4849H69.2383C69.2383 45.2311 64.1182 43.1887 61.1798 46.1352L52.2621 55.0741L52.2597 55.0729Z"/>
</mask>
<path fill-rule="evenodd" clip-rule="evenodd" d="M89.5232 53.2033H99.0839C100.043 53.2033 100.789 53.9702 100.744 55.0214V72.1862H101.18C101.337 72.1396 102.443 71.2526 104.298 71.2526C107.444 71.2526 109.994 73.7997 109.994 76.968C109.994 80.9266 106.092 83.6832 102.372 82.3417C101.949 82.1897 101.553 81.9925 101.19 81.756H100.744V94.7453H100.75C100.75 98.0447 98.0694 100.732 94.7778 100.732V100.725H80.152C79.2353 100.725 78.4922 99.9805 78.4922 99.0616H78.486V96.4116C78.486 95.282 79.4113 95.2734 79.4113 93.8338C79.4113 91.724 76.8555 90.663 75.3668 92.1541C74.5088 93.0142 74.4269 94.3937 75.214 95.3469C75.4988 95.6924 75.6223 96.1175 75.5917 96.5316V99.0592C75.5917 99.9781 74.8485 100.723 73.9318 100.723H37.7305V101.16C37.7769 101.317 38.6618 102.426 38.6618 104.286C38.6618 109.383 32.4869 111.897 28.9276 108.328C27.379 106.775 26.8387 104.473 27.599 102.355C27.7518 101.927 27.951 101.527 28.1894 101.16V100.723H15.2235V100.729C11.9319 100.729 9.25141 98.0423 9.25141 94.7441H9.25752V80.0836C9.25752 79.1648 10.0007 78.4199 10.9174 78.4199H13.5612C13.9633 78.4199 14.3324 78.5632 14.6197 78.8021L14.6221 78.7984C16.1695 80.0824 18.5077 78.9516 18.5077 76.9656H18.5016C18.5016 74.9587 16.1585 73.8585 14.6221 75.1327C14.3116 75.39 13.9352 75.5162 13.5612 75.5162V75.5186H10.9174C9.997 75.5186 9.25019 74.7701 9.25019 73.8475V37.5676H8.81017C8.65127 37.6141 7.55123 38.495 5.70192 38.495C2.557 38.495 0.00611152 35.9479 0.00611152 32.7796H0C0 28.8419 3.89662 26.0607 7.62823 27.406C8.05114 27.5579 8.44715 27.7551 8.81017 27.9916H9.25019V15.0023C9.25019 11.7066 11.9184 9.02342 15.221 9.02342H29.8468C30.7635 9.02342 31.5066 9.76833 31.5066 10.6872V13.3373C31.5066 13.7404 31.3636 14.1104 31.1253 14.3983L31.1289 14.4007C29.8578 15.9408 30.9554 18.2894 32.9575 18.2894C34.9596 18.2894 36.0572 15.9408 34.786 14.4007C34.5012 14.0552 34.3778 13.6301 34.4083 13.216V10.6884C34.4083 9.76956 35.1515 9.02465 36.0682 9.02465V9.01852H54.9988C55.9583 9.01852 56.7039 9.78548 56.6586 10.8367V20.246L61.1224 15.8121C61.7726 15.164 62.8214 15.1665 63.4692 15.8158L63.4728 15.8121L65.3013 17.6462C66.0848 18.4316 65.4627 19.0919 66.4405 20.0708C67.884 21.5165 70.3432 20.4666 70.3432 18.4536C70.3432 17.2823 69.4412 16.2814 68.2715 16.1711C67.8706 16.1331 67.5173 15.9555 67.2533 15.6908L67.2497 15.6945L65.4199 13.8604C64.7697 13.2086 64.7697 12.1501 65.4199 11.4983L74.9146 1.98111C77.5498 -0.66037 81.8424 -0.66037 84.4776 1.98111L92.794 10.3172L93.0678 10.0428C93.146 9.8982 93.2841 8.54315 94.5834 7.24079C95.6798 6.14181 97.1172 5.59171 98.5534 5.59171V5.59783C103.545 5.59783 106.048 11.6674 102.525 15.1995C101.23 16.497 99.8661 16.644 99.728 16.7188L99.4554 16.992L107.771 25.3268C109.088 26.6476 109.747 28.3849 109.747 30.1197H109.741C109.741 31.8595 109.085 33.5968 107.771 34.9126L98.2759 44.4298C97.6257 45.0816 96.5696 45.0816 95.9194 44.4298L94.0909 42.5969C93.3074 41.8116 93.9295 41.1512 92.9517 40.1723C91.5094 38.7266 89.049 39.7766 89.049 41.7895H89.0551C89.0551 42.9706 89.9571 43.9618 91.1207 44.072C91.5216 44.11 91.8749 44.2877 92.1389 44.5523L92.1425 44.5486L93.9711 46.3815C94.6213 47.0333 94.6213 48.0918 93.9711 48.7436L89.5208 53.2045L89.5232 53.2033ZM79.4895 54.5657V37.5615C70.4496 35.4958 62.0342 31.9599 55.0024 26.3866C47.9719 31.9575 39.559 35.4934 30.5215 37.559V54.1503C30.5215 60.8398 33.1836 67.2401 37.5227 72.4863C41.9571 77.8477 48.1284 81.9949 55.0024 84.0275C61.78 82.0207 67.9684 77.8759 72.4358 72.5439C76.781 67.359 79.4834 61.0677 79.4834 54.5645L79.4895 54.5657ZM27.1883 53.2106V36.2211C27.1883 35.3757 27.8141 34.6786 28.6257 34.5659C33.7556 33.473 38.4259 31.9624 42.6367 30.0315C46.6017 28.2146 50.1708 26.0191 53.3414 23.4462V12.3571H37.7317V12.7872C37.7781 12.944 38.6631 14.0528 38.6631 15.9126C38.6631 20.9873 32.5126 23.5467 28.9288 19.9544C27.3802 18.4021 26.84 16.1 27.6002 13.9817C27.7542 13.5541 27.9522 13.1535 28.1906 12.7872V12.3498H15.2247C13.7861 12.3498 12.587 13.5431 12.587 15.0011V29.6615C12.587 30.5841 11.8402 31.3327 10.9198 31.3327H8.27604V31.3302C7.15276 31.3302 7.13565 30.4052 5.70437 30.4052C4.39531 30.4052 3.33559 31.4687 3.33559 32.7796H3.32948C3.32948 34.8575 5.77526 35.8217 7.16621 34.6517C7.46078 34.3882 7.84946 34.2278 8.27604 34.2278H10.9198C11.8402 34.2278 12.587 34.9763 12.587 35.8989V53.2106H27.1883ZM53.3365 87.0047C39.8976 82.7374 28.4729 70.7539 27.2885 56.5382H12.587V72.1788H13.027C13.1859 72.1323 14.286 71.2514 16.1353 71.2514C19.2839 71.2514 21.8372 73.8107 21.8372 76.9668H21.8311C21.8311 80.9241 17.9296 83.682 14.209 82.3404C13.7824 82.1873 13.3827 81.9876 13.0172 81.7487H12.5809V94.7453H12.587C12.587 96.1996 13.7738 97.3893 15.2247 97.3893V97.3954H29.8504C30.7671 97.3954 31.5103 98.1403 31.5103 99.0592V101.587C31.558 102.879 30.5924 102.797 30.5924 104.286C30.5924 106.376 33.1274 107.479 34.6369 105.965C35.4949 105.105 35.5768 103.726 34.7897 102.773L34.7933 102.77C34.555 102.482 34.412 102.112 34.412 101.709V99.0592C34.412 98.1403 35.1551 97.3954 36.0718 97.3954H53.3353V87.0022L53.3365 87.0047ZM82.7445 56.5456C81.708 70.662 69.9582 82.7729 56.6696 87.0047V97.3978H72.2732V96.9605C72.2268 96.8036 71.3418 95.6948 71.3418 93.835C71.3418 88.7603 77.4923 86.201 81.076 89.7932C82.6247 91.3455 83.1649 93.6476 82.4047 95.7659C82.2531 96.1898 82.0563 96.5868 81.8204 96.9506V97.3978H94.779V97.3917C96.2298 97.3917 97.4179 96.2021 97.4179 94.7478H97.424L97.4179 80.0873C97.4179 79.1648 98.1647 78.4162 99.0851 78.4162H101.729V78.4186C102.852 78.4186 102.869 79.3436 104.301 79.3436C105.613 79.3436 106.677 78.2692 106.677 76.9693C106.677 74.9832 104.338 73.8524 102.791 75.1364L102.789 75.1327C102.501 75.3716 102.132 75.515 101.73 75.515H99.0863C98.1696 75.515 97.4264 74.7701 97.4264 73.8512V56.5468H82.7457L82.7445 56.5456ZM82.8117 36.313V53.2045H84.8125L90.4411 47.5626L90.1674 47.2881C90.0231 47.2097 88.6713 47.0713 87.372 45.7689C86.2756 44.6699 85.7268 43.2291 85.7268 41.7895H85.7329C85.7329 36.7688 91.7966 34.2853 95.3119 37.8102C96.6112 39.1138 96.7493 40.4676 96.8275 40.6134L97.1013 40.8878L105.416 32.5517C106.087 31.8791 106.424 30.9982 106.424 30.121H106.418C106.418 29.2388 106.084 28.3592 105.418 27.6902L95.9243 18.1743C95.274 17.5225 95.274 16.4639 95.9243 15.8121L97.7528 13.9793L97.7565 13.9829C98.5326 13.2037 99.2024 13.809 100.172 12.8374C101.616 11.3892 100.568 8.92541 98.5583 8.92541V8.93154C97.3934 8.93154 96.3802 9.88227 96.2922 10.9004C96.2787 11.3096 96.1162 11.7139 95.8057 12.0251L93.9772 13.858C93.3269 14.5098 92.2709 14.5098 91.6206 13.858L82.126 4.3408C80.7925 3.00413 78.6095 3.00413 77.276 4.3408L68.9596 12.6757L69.2334 12.9501C69.3715 13.0248 70.7356 13.1731 72.0288 14.4693C75.533 17.9819 73.0665 24.0784 68.0576 24.0784C65.9027 24.0784 63.919 22.8459 62.9802 20.8476C62.7957 20.4555 62.66 20.0463 62.5708 19.6273L62.2884 19.3443L57.4947 24.1066C64.359 29.4189 72.6509 32.733 81.488 34.5892C82.3044 34.7595 82.8545 35.5019 82.8092 36.3118L82.8117 36.313ZM69.8372 69.2886C73.2315 65.052 75.4132 59.9773 75.4132 54.5669H75.4071V42.026C75.4071 41.2652 74.8974 40.6232 74.202 40.4247V40.4198C67.7043 38.5526 61.5392 35.8854 55.9289 32.118C55.3435 31.7247 54.5979 31.7541 54.0527 32.1364C48.7028 35.8021 42.05 38.6323 35.8066 40.4198C35.0745 40.6281 34.5965 41.2982 34.5965 42.0248V54.1516C34.5965 65.8508 43.9971 75.7429 54.4353 79.5372C54.8167 79.6757 55.2151 79.6659 55.5684 79.5372C60.9244 77.5757 66.1215 73.9296 69.8384 69.2874L69.8372 69.2886ZM54.9988 76.1913C63.5951 72.8232 72.0813 64.361 72.0813 54.5669H72.0874V43.2745C66.0873 41.4477 60.2937 38.9042 55.0049 35.4934C49.7185 38.903 43.9262 41.4465 37.9285 43.272V54.1516C37.9285 64.198 46.1092 72.7326 54.9988 76.1913ZM63.5339 48.4962L53.4379 58.6161C52.7877 59.2679 51.7316 59.2679 51.0814 58.6161L46.4758 53.9996C45.6203 53.142 44.101 53.7215 44.101 54.9871C44.101 55.3461 44.2354 55.7051 44.5055 55.9746L51.64 63.126C51.9798 63.4666 52.542 63.4666 52.883 63.126L65.5067 50.4724C65.7768 50.2016 65.9113 49.8438 65.9113 49.4849H65.9174C65.9174 48.2413 64.403 47.6287 63.5352 48.4974L63.5339 48.4962ZM52.2597 55.0729L48.8324 51.6375C47.912 50.7149 46.7007 50.2531 45.4907 50.2531C41.2689 50.2531 39.1984 55.3804 42.149 58.3368L49.2834 65.4881C50.9262 67.1348 53.5968 67.1348 55.2396 65.4881L67.8632 52.8345C68.7836 51.9119 69.2444 50.6978 69.2444 49.4849H69.2383C69.2383 45.2311 64.1182 43.1887 61.1798 46.1352L52.2621 55.0741L52.2597 55.0729Z" fill="white"/>
<path d="M109.994 96.968H110V56.968H109.994V96.968ZM35.221 9.02342V9.0173H-4.77899V9.02342H35.221ZM-4.77532 12.3498V12.3559H35.2247V12.3498H-4.77532ZM106.677 56.9692H106.671V96.9693H106.677V56.9692ZM89.5232 53.2033V13.2033H80.0926L71.6553 17.4159L89.5232 53.2033ZM100.744 55.0214L60.7807 53.3022L60.7437 54.1614V55.0214H100.744ZM100.744 72.1862H60.7437V112.186H100.744V72.1862ZM101.18 72.1862V112.186H107.005L112.589 110.525L101.18 72.1862ZM102.372 82.3417L115.94 44.7131L115.917 44.705L115.895 44.6969L102.372 82.3417ZM101.19 81.756L123.022 48.2393L113.068 41.756H101.19V81.756ZM100.744 81.756V41.756H60.7437V81.756H100.744ZM100.744 94.7453H60.7437V134.745H100.744V94.7453ZM100.75 94.7453H140.75V54.7453H100.75V94.7453ZM94.7778 100.732H54.7778V140.732H94.7778V100.732ZM94.7778 100.725H134.778V60.7254H94.7778V100.725ZM78.4922 99.0616H118.492V59.0616H78.4922V99.0616ZM78.486 99.0616H38.486V139.062H78.486V99.0616ZM75.3668 92.1541L47.0606 63.8917L47.0548 63.8975L47.049 63.9033L75.3668 92.1541ZM75.214 95.3469L106.08 69.9047L106.068 69.8908L106.057 69.8768L75.214 95.3469ZM75.5917 96.5316L35.7001 93.5881L35.5917 95.0579V96.5316H75.5917ZM37.7305 100.723V60.723H-2.26955V100.723H37.7305ZM37.7305 101.16H-2.26955V106.959L-0.622765 112.52L37.7305 101.16ZM28.9276 108.328L57.2502 80.0818L57.2454 80.0769L28.9276 108.328ZM27.599 102.355L65.2477 115.867L65.2572 115.841L65.2666 115.814L27.599 102.355ZM28.1894 101.16L61.7174 122.975L68.1894 113.028V101.16H28.1894ZM28.1894 100.723H68.1894V60.723H28.1894V100.723ZM15.2235 100.723V60.723H-24.7765V100.723H15.2235ZM15.2235 100.729V140.729H55.2235V100.729H15.2235ZM9.25141 94.7441V54.7441H-30.7486V94.7441H9.25141ZM9.25752 94.7441V134.744H49.2575V94.7441H9.25752ZM14.6197 78.8021L-10.9591 109.555L23.255 138.013L47.9161 100.968L14.6197 78.8021ZM14.6221 78.7984L40.1646 48.0157L5.95762 19.6318L-18.6744 56.6322L14.6221 78.7984ZM18.5077 76.9656H58.5077V36.9656H18.5077V76.9656ZM18.5016 76.9656H-21.4984V116.966H18.5016V76.9656ZM14.6221 75.1327L40.1458 105.931L40.1567 105.922L14.6221 75.1327ZM13.5612 75.5162V35.5162H-26.4388V75.5162H13.5612ZM13.5612 75.5186V115.519H53.5612V75.5186H13.5612ZM9.25019 37.5676H49.2502V-2.43242H9.25019V37.5676ZM8.81017 37.5676V-2.43242H3.07079L-2.43703 -0.818619L8.81017 37.5676ZM0.00611152 32.7796H40.0061V-7.22041H0.00611152V32.7796ZM0 32.7796H-40V72.7796H0V32.7796ZM7.62823 27.406L-5.93719 65.0355L-5.91607 65.0431L-5.89495 65.0507L7.62823 27.406ZM8.81017 27.9916L-13.0217 61.5083L-3.06843 67.9916H8.81017V27.9916ZM9.25019 27.9916V67.9916H49.2502V27.9916H9.25019ZM31.1253 14.3983L0.313088 -11.1088L-27.9446 23.0262L8.89598 47.6527L31.1253 14.3983ZM31.1289 14.4007L61.9777 39.8635L90.1458 5.7373L53.3582 -18.8537L31.1289 14.4007ZM34.786 14.4007L3.92024 39.8429L3.92874 39.8532L3.93725 39.8635L34.786 14.4007ZM34.4083 13.216L74.2999 16.1596L74.4083 14.6898V13.216H34.4083ZM36.0682 9.02465V49.0247H76.0682V9.02465H36.0682ZM36.0682 9.01852V-30.9815H-3.93184V9.01852H36.0682ZM56.6586 10.8367L16.6956 9.11742L16.6586 9.97665V10.8367H56.6586ZM56.6586 20.246H16.6586V116.358L84.8479 48.625L56.6586 20.246ZM61.1224 15.8121L89.3116 44.1911L89.3359 44.167L89.3602 44.1428L61.1224 15.8121ZM63.4692 15.8158L35.1514 44.0665L63.4782 72.4605L91.7959 44.0575L63.4692 15.8158ZM63.4728 15.8121L91.8 -12.4291L63.4733 -40.8421L35.1461 -12.4296L63.4728 15.8121ZM65.3013 17.6462L36.9741 45.8875L36.9836 45.897L65.3013 17.6462ZM66.4405 20.0708L94.7463 -8.19189L94.7406 -8.19761L66.4405 20.0708ZM68.2715 16.1711L64.4989 55.9928L64.5082 55.9937L64.5174 55.9946L68.2715 16.1711ZM67.2533 15.6908L95.5711 -12.5599L67.2443 -40.9539L38.9266 -12.5509L67.2533 15.6908ZM67.2497 15.6945L38.9319 43.9453L67.2587 72.3392L95.5764 43.9362L67.2497 15.6945ZM65.4199 13.8604L37.1021 42.1112L37.1022 42.1112L65.4199 13.8604ZM65.4199 11.4983L37.1021 -16.7525V-16.7525L65.4199 11.4983ZM74.9146 1.98111L103.232 30.2319V30.2318L74.9146 1.98111ZM84.4776 1.98111L56.1599 30.2318L56.1599 30.2319L84.4776 1.98111ZM92.794 10.3172L64.4762 38.568L92.7941 66.9529L121.112 38.5679L92.794 10.3172ZM93.0678 10.0428L121.386 38.2934L125.485 34.1839L128.248 29.0784L93.0678 10.0428ZM94.5834 7.24079L122.901 35.4915L94.5834 7.24079ZM98.5534 5.59171H138.553V-34.4083H98.5534V5.59171ZM98.5534 5.59783H58.5534V45.5978H98.5534V5.59783ZM99.728 16.7188L80.692 -18.4612L75.5441 -15.6757L71.4101 -11.5319L99.728 16.7188ZM99.4554 16.992L71.1375 -11.2586L42.9539 16.9921L71.1376 45.2427L99.4554 16.992ZM107.771 25.3268L79.4528 53.5776L79.4528 53.5776L107.771 25.3268ZM109.747 30.1197V70.1197H149.747V30.1197H109.747ZM109.741 30.1197V-9.88026H69.7409V30.1197H109.741ZM107.771 34.9126L79.466 6.64871L79.4594 6.6553L79.4528 6.66189L107.771 34.9126ZM98.2759 44.4298L126.594 72.6805L98.2759 44.4298ZM95.9194 44.4298L67.6015 72.6805L67.6016 72.6805L95.9194 44.4298ZM94.0909 42.5969L122.409 14.3463L122.409 14.3462L94.0909 42.5969ZM92.9517 40.1723L64.6339 68.423L64.6428 68.4319L64.6516 68.4408L92.9517 40.1723ZM89.049 41.7895H49.049V81.7895H89.049V41.7895ZM89.0551 41.7895H129.055V1.78954H89.0551V41.7895ZM91.1207 44.072L87.3471 83.8936L87.3482 83.8937L91.1207 44.072ZM92.1389 44.5523L63.8211 72.803L92.1389 101.188L120.457 72.803L92.1389 44.5523ZM92.1425 44.5486L120.46 16.2979L92.1425 -12.087L63.8248 16.2979L92.1425 44.5486ZM93.9711 46.3815L122.289 18.1308L122.289 18.1307L93.9711 46.3815ZM93.9711 48.7436L122.289 76.9944L122.289 76.9944L93.9711 48.7436ZM89.5208 53.2045L61.203 24.9537L107.389 88.9919L89.5208 53.2045ZM79.4895 54.5657L71.6385 93.7876L119.49 103.366V54.5657H79.4895ZM79.4895 37.5615H119.49V5.67055L88.4 -1.43347L79.4895 37.5615ZM55.0024 26.3866L79.8484 -4.96106L55.0057 -24.6512L30.1605 -4.96428L55.0024 26.3866ZM30.5215 37.559L21.6088 -1.4354L-9.47853 5.67003V37.559H30.5215ZM37.5227 72.4863L6.69938 97.98L6.69962 97.9802L37.5227 72.4863ZM55.0024 84.0275L43.6604 122.386L55.0104 125.742L66.3591 122.381L55.0024 84.0275ZM72.4358 72.5439L41.778 46.8515L41.7752 46.8548L72.4358 72.5439ZM79.4834 54.5645L87.3344 15.3425L39.4834 5.76422V54.5645H79.4834ZM27.1883 53.2106V93.2106H67.1883V53.2106H27.1883ZM28.6257 34.5659L34.1282 74.1856L35.5531 73.9877L36.9602 73.688L28.6257 34.5659ZM42.6367 30.0315L25.9734 -6.33241L25.9637 -6.32795L42.6367 30.0315ZM53.3414 23.4462L78.546 54.5062L93.3414 42.5001V23.4462H53.3414ZM53.3414 12.3571H93.3414V-27.6429H53.3414V12.3571ZM37.7317 12.3571V-27.6429H-2.26832V12.3571H37.7317ZM37.7317 12.7872H-2.26832V18.5861L-0.621543 24.1463L37.7317 12.7872ZM27.6002 13.9817L-10.0331 0.427036L-10.0408 0.448413L-10.0485 0.4698L27.6002 13.9817ZM28.1906 12.7872L61.7187 34.6016L68.1906 24.6544V12.7872H28.1906ZM28.1906 12.3498H68.1906V-27.6502H28.1906V12.3498ZM8.27604 31.3327H-31.724V71.3327H8.27604V31.3327ZM8.27604 31.3302H48.276V-8.66979H8.27604V31.3302ZM3.33559 32.7796V72.7796H43.3356V32.7796H3.33559ZM3.32948 32.7796V-7.22041H-36.6705V32.7796H3.32948ZM7.16621 34.6517L32.9151 65.262L33.3784 64.8723L33.8297 64.4688L7.16621 34.6517ZM12.587 53.2106H-27.413V93.2106H12.587V53.2106ZM53.3365 87.0047L41.2308 125.129L131.323 153.736L89.1305 69.15L53.3365 87.0047ZM27.2885 56.5382L67.1504 53.2171L64.0945 16.5382H27.2885V56.5382ZM12.587 56.5382V16.5382H-27.413V56.5382H12.587ZM12.587 72.1788H-27.413V112.179H12.587V72.1788ZM13.027 72.1788V112.179H18.7664L24.2742 110.565L13.027 72.1788ZM21.8372 76.9668V116.967H61.8372V76.9668H21.8372ZM21.8311 76.9668V36.9668H-18.1689V76.9668H21.8311ZM14.209 82.3404L27.777 44.7119L27.751 44.7025L27.7249 44.6931L14.209 82.3404ZM13.0172 81.7487L34.9043 48.268L24.9317 41.7487H13.0172V81.7487ZM12.5809 81.7487V41.7487H-27.4191V81.7487H12.5809ZM12.5809 94.7453H-27.4191V134.745H12.5809V94.7453ZM12.587 94.7453H52.587V54.7453H12.587V94.7453ZM15.2247 97.3893H55.2247V57.3893H15.2247V97.3893ZM15.2247 97.3954H-24.7753V137.395H15.2247V97.3954ZM31.5103 101.587H-8.48971V102.324L-8.46253 103.061L31.5103 101.587ZM34.7897 102.773L12.5652 69.515L-24.24 94.11L3.94691 128.243L34.7897 102.773ZM34.7933 102.77L57.0177 136.028L93.8674 111.403L65.6055 77.2632L34.7933 102.77ZM53.3353 97.3954V137.395H93.3353V97.3954H53.3353ZM53.3353 87.0022L89.1293 69.1476L13.3353 87.0022H53.3353ZM82.7445 56.5456L111.062 28.2948L49.2596 -33.6544L42.8518 53.6165L82.7445 56.5456ZM56.6696 87.0047L44.5322 48.8906L16.6696 57.7634V87.0047H56.6696ZM56.6696 97.3978H16.6696V137.398H56.6696V97.3978ZM72.2732 97.3978V137.398H112.273V97.3978H72.2732ZM72.2732 96.9605H112.273V91.1615L110.626 85.6013L72.2732 96.9605ZM81.076 89.7932L52.7583 118.044L81.076 89.7932ZM82.4047 95.7659L44.7559 82.254L44.7478 82.2767L44.7396 82.2994L82.4047 95.7659ZM81.8204 96.9506L48.2565 75.1914L41.8204 85.1192V96.9506H81.8204ZM81.8204 97.3978H41.8204V137.398H81.8204V97.3978ZM94.779 97.3978V137.398H134.779V97.3978H94.779ZM94.779 97.3917V57.3917H54.779V97.3917H94.779ZM97.4179 94.7478V54.7478H57.4179V94.7478H97.4179ZM97.424 94.7478V134.748H137.441L137.424 94.7311L97.424 94.7478ZM97.4179 80.0873H57.4179V80.0957L57.4179 80.104L97.4179 80.0873ZM101.729 78.4162H141.729V38.4162H101.729V78.4162ZM101.729 78.4186H61.7289V118.419H101.729V78.4186ZM102.791 75.1364L69.4848 97.288L94.1114 134.316L128.334 105.919L102.791 75.1364ZM102.789 75.1327L136.095 52.9811L111.439 15.9097L77.2098 44.38L102.789 75.1327ZM97.4264 56.5468H137.426V16.5468H97.4264V56.5468ZM82.7457 56.5468L54.4279 84.7975L66.1494 96.5468H82.7457V56.5468ZM82.8117 36.313H122.812V11.6179L100.734 0.5529L82.8117 36.313ZM82.8117 53.2045H42.8117V93.2045H82.8117V53.2045ZM84.8125 53.2045V93.2045H101.409L113.13 81.4553L84.8125 53.2045ZM90.4411 47.5626L118.759 75.8133L146.943 47.5626L118.759 19.3118L90.4411 47.5626ZM90.1674 47.2881L118.485 19.0374L114.38 14.9222L109.273 12.1458L90.1674 47.2881ZM87.372 45.7689L59.0542 74.0197L87.372 45.7689ZM85.7268 41.7895V1.78954H45.7268V41.7895H85.7268ZM85.7329 41.7895V81.7895H125.733V41.7895H85.7329ZM95.3119 37.8102L123.643 9.57275L123.635 9.56435L95.3119 37.8102ZM96.8275 40.6134L61.5805 59.5249L64.359 64.7035L68.5098 68.8641L96.8275 40.6134ZM97.1013 40.8878L68.7836 69.1385L97.1034 97.5256L125.421 69.1365L97.1013 40.8878ZM105.416 32.5517L77.0987 4.30097L77.0966 4.30304L105.416 32.5517ZM106.424 30.121H146.424V-9.87904H106.424V30.121ZM106.418 30.121H66.4175V70.121H106.418V30.121ZM105.418 27.6902L133.761 -0.534563L133.748 -0.547551L133.735 -0.560528L105.418 27.6902ZM95.9243 18.1743L124.242 -10.0765V-10.0765L95.9243 18.1743ZM95.9243 15.8121L124.242 44.0629L124.242 44.0628L95.9243 15.8121ZM97.7528 13.9793L126.044 -14.2984L97.7258 -42.6294L69.435 -14.2714L97.7528 13.9793ZM97.7565 13.9829L69.4656 42.2606L97.8057 70.6139L126.096 42.2114L97.7565 13.9829ZM100.172 12.8374L71.8539 -15.4133L100.172 12.8374ZM98.5583 8.92541V-31.0746H58.5583V8.92541H98.5583ZM98.5583 8.93154V48.9315H138.558V8.93154H98.5583ZM96.2922 10.9004L56.4408 7.45574L56.3488 8.5196L56.3137 9.58685L96.2922 10.9004ZM95.8057 12.0251L124.123 40.2759L124.123 40.2758L95.8057 12.0251ZM93.9772 13.858L65.6594 -14.3928L65.6594 -14.3928L93.9772 13.858ZM91.6206 13.858L63.3029 42.1087H63.3029L91.6206 13.858ZM82.126 4.3408L110.444 -23.9099L110.444 -23.9099L82.126 4.3408ZM77.276 4.3408L105.592 32.5936L105.594 32.5915L77.276 4.3408ZM68.9596 12.6757L40.6439 -15.5772L12.4557 12.6738L40.642 40.9266L68.9596 12.6757ZM69.2334 12.9501L40.9158 41.201L45.0497 45.3446L50.1974 48.1301L69.2334 12.9501ZM72.0288 14.4693L43.711 42.7201L72.0288 14.4693ZM62.9802 20.8476L99.1845 3.84021L99.1776 3.82544L99.1706 3.81069L62.9802 20.8476ZM62.5708 19.6273L101.694 11.2963L99.2329 -0.259234L90.8886 -8.62336L62.5708 19.6273ZM62.2884 19.3443L90.6063 -8.90637L62.4151 -37.1645L34.0976 -9.03307L62.2884 19.3443ZM57.4947 24.1066L29.3038 -4.27081L-3.02718 27.8477L33.0133 55.7398L57.4947 24.1066ZM81.488 34.5892L73.2657 73.735L73.2932 73.7408L73.3206 73.7465L81.488 34.5892ZM82.8092 36.3118L42.8715 34.0815L41.4071 60.3042L64.8868 72.0719L82.8092 36.3118ZM69.8372 69.2886L38.6202 44.2787L98.155 97.5394L69.8372 69.2886ZM75.4132 54.5669H115.413V14.5669H75.4132V54.5669ZM75.4071 54.5669H35.4071V94.5669H75.4071V54.5669ZM74.202 40.4247H34.202V70.6063L63.2248 78.889L74.202 40.4247ZM74.202 40.4198H114.202V10.2955L85.2494 1.97561L74.202 40.4198ZM55.9289 32.118L33.6245 65.3221L33.6294 65.3254L55.9289 32.118ZM54.0527 32.1364L76.6622 65.1335L76.8407 65.0112L77.0178 64.887L54.0527 32.1364ZM35.8066 40.4198L46.7515 78.8933L46.784 78.884L46.8165 78.8747L35.8066 40.4198ZM54.4353 79.5372L40.7699 117.131L40.7777 117.133L40.7854 117.136L54.4353 79.5372ZM55.5684 79.5372L69.2563 117.122L69.2901 117.11L69.3239 117.098L55.5684 79.5372ZM69.8384 69.2874L101.063 94.2883L41.5207 41.0367L69.8384 69.2874ZM54.9988 76.1913L40.4951 113.469L55.0496 119.132L69.5907 113.435L54.9988 76.1913ZM72.0813 54.5669V14.5669H32.0813V54.5669H72.0813ZM72.0874 54.5669V94.5669H112.087V54.5669H72.0874ZM72.0874 43.2745H112.087V13.6397L83.7374 5.00857L72.0874 43.2745ZM55.0049 35.4934L76.6844 1.87792L55.0038 -12.1045L33.3238 1.87894L55.0049 35.4934ZM37.9285 43.272L26.2813 5.00527L-2.07153 13.635V43.272H37.9285ZM63.5339 48.4962L91.8517 20.2454L63.5339 -8.13953L35.2162 20.2454L63.5339 48.4962ZM53.4379 58.6161L25.1202 30.3654L53.4379 58.6161ZM51.0814 58.6161L22.7636 86.8668L22.7636 86.8669L51.0814 58.6161ZM46.4758 53.9996L74.7936 25.7489L74.7936 25.7489L46.4758 53.9996ZM44.5055 55.9746L72.8233 27.7239L72.7913 27.6918L72.7592 27.6598L44.5055 55.9746ZM51.64 63.126L79.9577 34.8752L79.9577 34.8752L51.64 63.126ZM52.883 63.126L81.15 91.4275L81.1754 91.4021L81.2008 91.3767L52.883 63.126ZM65.5067 50.4724L93.8244 78.7231H93.8245L65.5067 50.4724ZM65.9113 49.4849V9.48487H25.9113V49.4849H65.9113ZM65.9174 49.4849V89.4849H105.917V49.4849H65.9174ZM63.5352 48.4974L35.2174 76.7481L63.5152 105.113L91.833 76.7681L63.5352 48.4974ZM52.2597 55.0729L23.9419 83.3236L28.5298 87.9224L34.3372 90.833L52.2597 55.0729ZM42.149 58.3368L70.4668 30.086L70.4609 30.0802L42.149 58.3368ZM49.2834 65.4881L20.9656 93.7389L20.9657 93.7389L49.2834 65.4881ZM67.8632 52.8345L39.5455 24.5838L67.8632 52.8345ZM69.2444 49.4849H109.244V9.48487H69.2444V49.4849ZM69.2383 49.4849H29.2383V89.4849H69.2383V49.4849ZM61.1798 46.1352L89.4976 74.386L89.5035 74.3801L61.1798 46.1352ZM52.2621 55.0741L34.3396 90.8342L60.1721 103.781L80.5799 83.3249L52.2621 55.0741ZM89.5232 93.2033H99.0839V13.2033H89.5232V93.2033ZM99.0839 93.2033C76.1678 93.2033 59.8957 73.872 60.7807 53.3022L140.707 56.7407C141.682 34.0684 123.919 13.2033 99.0839 13.2033V93.2033ZM60.7437 55.0214V72.1862H140.744V55.0214H60.7437ZM100.744 112.186H101.18V32.1862H100.744V112.186ZM112.589 110.525C114.975 109.815 116.786 109.03 117.665 108.633C118.66 108.183 119.442 107.78 119.896 107.54C120.758 107.085 121.428 106.69 121.553 106.617C121.706 106.526 121.941 106.386 121.83 106.452C121.808 106.465 121.693 106.534 121.538 106.624C120.847 107.024 119.587 107.723 117.934 108.435C114.577 109.882 109.91 111.253 104.298 111.253V31.2526C96.8304 31.2526 90.6831 33.0664 86.2699 34.9684C84.0887 35.9086 82.4069 36.8376 81.4064 37.4178C81.1741 37.5525 80.9885 37.6628 80.9035 37.7134C80.7297 37.8169 80.9084 37.7104 81.0131 37.6488C81.0892 37.6041 81.7168 37.2326 82.5446 36.7955C82.9813 36.565 83.7486 36.1697 84.7304 35.7262C85.5957 35.3353 87.3948 34.5549 89.7713 33.8477L112.589 110.525ZM104.298 111.253C85.2746 111.253 69.9939 95.8128 69.9939 76.968H149.994C149.994 51.7866 129.614 31.2526 104.298 31.2526V111.253ZM69.9939 76.968C69.9939 53.4054 93.4106 36.5896 115.94 44.7131L88.8038 119.97C118.774 130.777 149.994 108.448 149.994 76.968H69.9939ZM115.895 44.6969C118.365 45.5842 120.76 46.7662 123.022 48.2393L79.358 115.273C82.3455 117.219 85.533 118.795 88.8486 119.986L115.895 44.6969ZM101.19 41.756H100.744V121.756H101.19V41.756ZM60.7437 81.756V94.7453H140.744V81.756H60.7437ZM100.744 134.745H100.75V54.7453H100.744V134.745ZM60.7498 94.7453C60.7498 76.0428 75.8887 60.7316 94.7778 60.7316V140.732C120.25 140.732 140.75 120.047 140.75 94.7453H60.7498ZM134.778 100.732V100.725H54.7778V100.732H134.778ZM94.7778 60.7254H80.152V140.725H94.7778V60.7254ZM80.152 60.7254C101.416 60.7254 118.492 77.9785 118.492 99.0616H38.4922C38.4922 121.982 57.0546 140.725 80.152 140.725V60.7254ZM78.4922 59.0616H78.486V139.062H78.4922V59.0616ZM118.486 99.0616V96.4116H38.486V99.0616H118.486ZM118.486 96.4116C118.486 99.0482 118.211 101.914 117.528 104.913C116.841 107.934 115.847 110.618 114.745 112.933C113.681 115.167 112.621 116.831 112.016 117.735C111.719 118.178 111.482 118.51 111.405 118.618C111.366 118.672 111.336 118.714 111.356 118.687C111.361 118.68 111.417 118.601 111.479 118.515C112.004 117.782 114.531 114.318 116.499 109.306C117.49 106.783 118.244 104.143 118.736 101.414C119.223 98.7175 119.411 96.1691 119.411 93.8338H39.4113C39.4113 91.8584 39.5712 89.6252 40.0073 87.2086C40.449 84.7605 41.1306 82.3664 42.0346 80.0643C43.8294 75.4937 46.125 72.3728 46.418 71.9633C46.4512 71.9169 46.4788 71.8787 46.4551 71.9115C46.4459 71.9243 46.3868 72.0062 46.3196 72.1002C46.1857 72.2877 45.8932 72.699 45.542 73.2234C44.8282 74.2894 43.6671 76.1205 42.5167 78.5364C41.3274 81.0336 40.2616 83.9148 39.5234 87.158C38.7902 90.379 38.486 93.4925 38.486 96.4116H118.486ZM119.411 93.8338C119.411 56.2495 73.8637 37.0471 47.0606 63.8917L103.673 120.416C79.8474 144.279 39.4113 127.199 39.4113 93.8338H119.411ZM47.049 63.9033C31.8607 79.1277 30.2687 103.74 44.3713 120.817L106.057 69.8768C118.585 85.0479 117.157 106.901 103.685 120.405L47.049 63.9033ZM44.3483 120.789C37.8616 112.92 34.9987 103.094 35.7001 93.5881L115.483 99.4752C116.246 89.1414 113.136 78.4651 106.08 69.9047L44.3483 120.789ZM35.5917 96.5316V99.0592H115.592V96.5316H35.5917ZM35.5917 99.0592C35.5917 77.9761 52.6679 60.723 73.9318 60.723V140.723C97.0293 140.723 115.592 121.98 115.592 99.0592H35.5917ZM73.9318 60.723H37.7305V140.723H73.9318V60.723ZM-2.26955 100.723V101.16H77.7305V100.723H-2.26955ZM-0.622765 112.52C0.0815868 114.898 0.860465 116.703 1.25486 117.58C1.70135 118.573 2.10154 119.354 2.3397 119.808C2.79208 120.669 3.185 121.337 3.25814 121.462C3.34795 121.615 3.48728 121.85 3.42191 121.74C3.40902 121.718 3.34088 121.603 3.25159 121.448C2.85333 120.758 2.15992 119.501 1.45295 117.853C0.0173462 114.507 -1.33817 109.864 -1.33817 104.286H78.6618C78.6618 96.8477 76.8639 90.7208 74.9742 86.3156C74.0402 84.1382 73.1168 82.4586 72.5396 81.4585C72.4055 81.2262 72.2958 81.0408 72.2454 80.9557C72.1425 80.782 72.2483 80.9604 72.3095 81.0649C72.354 81.141 72.7231 81.7676 73.1574 82.5941C73.3866 83.0301 73.7791 83.7959 74.2196 84.7755C74.6079 85.6392 75.3822 87.4328 76.0837 89.8012L-0.622765 112.52ZM-1.33817 104.286C-1.33817 73.5611 35.739 58.5121 57.2502 80.0818L0.605006 136.574C29.2348 165.281 78.6618 145.204 78.6618 104.286H-1.33817ZM57.2454 80.0769C66.5151 89.3686 69.76 103.294 65.2477 115.867L-10.0497 88.843C-16.0825 105.652 -11.7571 124.182 0.609856 136.578L57.2454 80.0769ZM65.2666 115.814C64.3767 118.305 63.1908 120.71 61.7174 122.975L-5.33872 79.346C-7.28872 82.3431 -8.87309 85.5499 -10.0686 88.8956L65.2666 115.814ZM68.1894 101.16V100.723H-11.8106V101.16H68.1894ZM28.1894 60.723H15.2235V140.723H28.1894V60.723ZM-24.7765 100.723V100.729H55.2235V100.723H-24.7765ZM15.2235 60.7291C34.1072 60.7291 49.2514 76.0349 49.2514 94.7441H-30.7486C-30.7486 120.05 -10.2435 140.729 15.2235 140.729V60.7291ZM9.25141 134.744H9.25752V54.7441H9.25141V134.744ZM49.2575 94.7441V80.0836H-30.7425V94.7441H49.2575ZM49.2575 80.0836C49.2575 101.167 32.1815 118.42 10.9174 118.42V38.4199C-12.1801 38.4199 -30.7425 57.1629 -30.7425 80.0836H49.2575ZM10.9174 118.42H13.5612V38.4199H10.9174V118.42ZM13.5612 118.42C4.28849 118.42 -4.31996 115.077 -10.9591 109.555L40.1984 48.0494C32.9848 42.0495 23.6381 38.4199 13.5612 38.4199V118.42ZM47.9161 100.968L47.9186 100.965L-18.6744 56.6322L-18.6768 56.6359L47.9161 100.968ZM-10.9205 109.581C17.2097 132.923 58.5077 112.156 58.5077 76.9656H-21.4923C-21.4923 45.7475 15.1293 27.2422 40.1646 48.0157L-10.9205 109.581ZM18.5077 36.9656H18.5016V116.966H18.5077V36.9656ZM58.5016 76.9656C58.5016 41.2476 16.8158 21.3474 -10.9125 44.3433L40.1567 105.922C15.5012 126.37 -21.4984 108.67 -21.4984 76.9656H58.5016ZM-10.9016 44.3343C-3.8083 38.4559 4.91511 35.5162 13.5612 35.5162V115.516C22.9552 115.516 32.4316 112.324 40.1458 105.931L-10.9016 44.3343ZM-26.4388 75.5162V75.5186H53.5612V75.5162H-26.4388ZM13.5612 35.5186H10.9174V115.519H13.5612V35.5186ZM10.9174 35.5186C32.1777 35.5186 49.2502 52.7681 49.2502 73.8475H-30.7498C-30.7498 96.7721 -12.1837 115.519 10.9174 115.519V35.5186ZM49.2502 73.8475V37.5676H-30.7498V73.8475H49.2502ZM9.25019 -2.43242H8.81017V77.5676H9.25019V-2.43242ZM-2.43703 -0.818619C-4.8065 -0.124361 -6.60899 0.645365 -7.5018 1.0436C-8.50546 1.49127 -9.29596 1.89371 -9.75941 2.13594C-10.6398 2.59611 -11.3218 2.99595 -11.4579 3.07544C-11.6282 3.1748 -11.8588 3.31182 -11.7606 3.25362C-11.7456 3.24477 -11.634 3.17862 -11.4835 3.09173C-10.8071 2.70114 -9.5522 2.00718 -7.90226 1.29818C-4.54796 -0.14321 0.107492 -1.50496 5.70192 -1.50496V78.495C13.1457 78.495 19.2758 76.6928 23.6822 74.7994C25.8581 73.8643 27.5334 72.9414 28.5186 72.3726C28.7463 72.2411 28.9281 72.1335 29.0062 72.0873C29.1675 71.9917 28.9929 72.0953 28.8716 72.1662C28.7843 72.2171 28.1441 72.5932 27.2982 73.0354C26.852 73.2686 26.0769 73.6635 25.0868 74.1051C24.2076 74.4972 22.4169 75.2624 20.0574 75.9538L-2.43703 -0.818619ZM5.70192 -1.50496C24.7209 -1.50496 40.0061 13.9291 40.0061 32.7796H-39.9939C-39.9939 57.9667 -19.6069 78.495 5.70192 78.495V-1.50496ZM0.00611152 -7.22041H0V72.7796H0.00611152V-7.22041ZM40 32.7796C40 56.2379 16.6967 73.195 -5.93719 65.0355L21.1936 -10.2235C-8.90347 -21.0735 -40 1.44584 -40 32.7796H40ZM-5.89495 65.0507C-8.36424 64.1636 -10.7597 62.9817 -13.0217 61.5083L30.6421 -5.52509C27.6541 -7.4714 24.4665 -9.04784 21.1514 -10.2387L-5.89495 65.0507ZM8.81017 67.9916H9.25019V-12.0084H8.81017V67.9916ZM49.2502 27.9916V15.0023H-30.7498V27.9916H49.2502ZM49.2502 15.0023C49.2502 33.6979 34.1098 49.0234 15.221 49.0234V-30.9766C-10.2729 -30.9766 -30.7498 -10.2847 -30.7498 15.0023H49.2502ZM15.221 49.0234H29.8468V-30.9766H15.221V49.0234ZM29.8468 49.0234C8.5828 49.0234 -8.49338 31.7703 -8.49338 10.6872H71.5066C71.5066 -12.2337 52.9442 -30.9766 29.8468 -30.9766V49.0234ZM-8.49338 10.6872V13.3373H71.5066V10.6872H-8.49338ZM-8.49338 13.3373C-8.49338 4.11866 -5.18693 -4.46482 0.313088 -11.1088L61.9375 39.9053C67.9142 32.6855 71.5066 23.362 71.5066 13.3373H-8.49338ZM8.89598 47.6527L8.89965 47.6552L53.3582 -18.8537L53.3546 -18.8562L8.89598 47.6527ZM0.280196 -11.0621C-22.3856 16.398 -3.08658 58.2894 32.9575 58.2894V-21.7106C64.9973 -21.7106 82.1011 15.4836 61.9777 39.8635L0.280196 -11.0621ZM32.9575 58.2894C69.0016 58.2894 88.3005 16.3979 65.6347 -11.0621L3.93725 39.8635C-16.1861 15.4836 0.917518 -21.7106 32.9575 -21.7106V58.2894ZM65.6517 -11.0415C72.1384 -3.1721 75.0013 6.65393 74.2999 16.1596L-5.48324 10.2724C-6.24576 20.6062 -3.13595 31.2825 3.92024 39.8429L65.6517 -11.0415ZM74.4083 13.216V10.6884H-5.59169V13.216H74.4083ZM74.4083 10.6884C74.4083 31.7715 57.3322 49.0247 36.0682 49.0247V-30.9753C12.9707 -30.9753 -5.59169 -12.2324 -5.59169 10.6884H74.4083ZM76.0682 9.02465V9.01852H-3.93184V9.02465H76.0682ZM36.0682 49.0185H54.9988V-30.9815H36.0682V49.0185ZM54.9988 49.0185C32.0827 49.0185 15.8107 29.6872 16.6956 9.11742L96.6217 12.556C97.5971 -10.1162 79.8339 -30.9815 54.9988 -30.9815V49.0185ZM16.6586 10.8367V20.246H96.6586V10.8367H16.6586ZM84.8479 48.625L89.3116 44.1911L32.9331 -12.5668L28.4694 -8.13292L84.8479 48.625ZM89.3602 44.1428C74.348 59.1057 50.0802 59.0308 35.1514 44.0665L91.7869 -12.4349C75.5625 -28.6978 49.1973 -28.7777 32.8846 -12.5186L89.3602 44.1428ZM91.7959 44.0575L91.7996 44.0539L35.1461 -12.4296L35.1424 -12.4259L91.7959 44.0575ZM35.1456 44.0534L36.9741 45.8875L93.6286 -10.5951L91.8 -12.4291L35.1456 44.0534ZM36.9836 45.897C35.1234 44.0323 33.3059 41.822 31.6833 39.2442C30.0499 36.6494 28.8638 34.0791 28.01 31.6926C27.185 29.3866 26.7532 27.4778 26.5364 26.4016C26.4299 25.873 26.3603 25.4661 26.3357 25.3211C26.3232 25.2473 26.3142 25.1923 26.318 25.2153C26.3182 25.2164 26.323 25.2458 26.3272 25.2708C26.332 25.3001 26.3394 25.3446 26.3482 25.3975C26.4775 26.1687 27.1292 30.3612 29.2343 35.239C30.3019 37.7129 31.6252 40.1221 33.2114 42.4227C34.7803 44.6982 36.4632 46.6602 38.1404 48.3393L94.7406 -8.19761C96.1734 -6.76325 97.6618 -5.03603 99.0745 -2.98713C100.504 -0.913068 101.71 1.27784 102.686 3.53988C104.608 7.99405 105.183 11.7888 105.248 12.1743C105.255 12.2191 105.262 12.2624 105.254 12.2125C105.25 12.1877 105.233 12.0849 105.213 11.9636C105.172 11.7235 105.086 11.2221 104.96 10.5992C104.705 9.33449 104.227 7.23848 103.335 4.74488C102.414 2.17065 101.14 -0.587691 99.387 -3.37276C97.6446 -6.14078 95.6752 -8.54355 93.6191 -10.6045L36.9836 45.897ZM38.1347 48.3336C65.2276 75.4677 110.343 55.4658 110.343 18.4536H30.3432C30.3432 -14.5326 70.5405 -32.4346 94.7463 -8.19189L38.1347 48.3336ZM110.343 18.4536C110.343 -3.17745 93.9172 -21.5887 72.0255 -23.6523L64.5174 55.9946C44.9651 54.1514 30.3432 37.7421 30.3432 18.4536H110.343ZM72.044 -23.6506C81.303 -22.7734 89.5262 -18.6192 95.5711 -12.5599L38.9356 43.9416C45.5085 50.5301 54.4381 55.0397 64.4989 55.9928L72.044 -23.6506ZM38.9266 -12.5509L38.9229 -12.5472L95.5764 43.9362L95.5801 43.9326L38.9266 -12.5509ZM95.5674 -12.5562L93.7377 -14.3903L37.1022 42.1112L38.9319 43.9453L95.5674 -12.5562ZM93.7377 -14.3903C108.664 0.571157 108.664 24.7875 93.7377 39.749L37.1021 -16.7525C20.8756 -0.487396 20.8756 25.8461 37.1021 42.1112L93.7377 -14.3903ZM93.7377 39.749L103.232 30.2319L46.5968 -26.2696L37.1021 -16.7525L93.7377 39.749ZM103.232 30.2318C90.2389 43.2561 69.1533 43.2561 56.1599 30.2318L112.795 -26.2696C94.5316 -44.5768 64.8606 -44.5768 46.5968 -26.2696L103.232 30.2318ZM56.1599 30.2319L64.4762 38.568L121.112 -17.9335L112.795 -26.2696L56.1599 30.2319ZM121.112 38.5679L121.386 38.2934L64.75 -18.2079L64.4762 -17.9335L121.112 38.5679ZM128.248 29.0784C129.408 26.9342 130.126 25.1334 130.476 24.2087C130.867 23.1781 131.14 22.3301 131.296 21.8244C131.593 20.8653 131.791 20.0918 131.831 19.9377C131.88 19.7485 131.946 19.4826 131.917 19.6016C131.911 19.6229 131.878 19.7554 131.831 19.9317C131.622 20.7252 131.217 22.1467 130.535 23.8618C129.138 27.3715 126.785 31.5981 122.901 35.4915L66.2657 -21.0099C61.0822 -15.8142 58.0105 -10.2589 56.2008 -5.70986C55.3118 -3.47521 54.7763 -1.60639 54.4785 -0.477486C54.4098 -0.21733 54.357 -0.00799328 54.3342 0.0826425C54.2869 0.270871 54.3381 0.0666027 54.3731 -0.0690911C54.3991 -0.169803 54.585 -0.898069 54.8705 -1.82079C55.0214 -2.30838 55.2886 -3.14034 55.6743 -4.15731C56.0197 -5.06826 56.7323 -6.85767 57.8876 -8.99285L128.248 29.0784ZM122.901 35.4915C116.21 42.199 107.334 45.5917 98.5534 45.5917V-34.4083C86.9009 -34.4083 75.1501 -29.9154 66.2657 -21.0099L122.901 35.4915ZM58.5534 5.59171V5.59783H138.553V5.59171H58.5534ZM98.5534 45.5978C67.7216 45.5978 52.7266 8.47999 74.2068 -13.0512L130.842 43.4503C159.37 14.8547 139.369 -34.4022 98.5534 -34.4022V45.5978ZM74.2068 -13.0512C78.1146 -16.9683 82.3475 -19.3239 85.8217 -20.7153C87.5261 -21.3978 88.9438 -21.8067 89.758 -22.0233C89.9415 -22.0721 90.08 -22.1072 90.1145 -22.1159C90.2588 -22.1524 89.9821 -22.0827 89.8275 -22.0427C89.697 -22.009 88.9461 -21.8169 88.0178 -21.5316C87.5286 -21.3813 86.6871 -21.1132 85.6605 -20.727C84.756 -20.3867 82.9028 -19.6575 80.692 -18.4612L118.764 51.8987C116.562 53.0903 114.72 53.8148 113.828 54.15C112.815 54.5312 111.989 54.7941 111.518 54.9389C110.626 55.2132 109.919 55.3932 109.842 55.4132C109.007 55.6291 110.24 55.3103 110.324 55.2879C111.474 54.9822 113.339 54.4414 115.564 53.5506C120.078 51.7427 125.64 48.6648 130.842 43.4503L74.2068 -13.0512ZM71.4101 -11.5319L71.1375 -11.2586L127.773 45.2426L128.046 44.9694L71.4101 -11.5319ZM71.1376 45.2427L79.4528 53.5776L136.088 -2.92388L127.773 -11.2588L71.1376 45.2427ZM79.4528 53.5776C72.9447 47.054 69.747 38.4788 69.747 30.1197H149.747C149.747 18.291 145.232 6.24113 136.088 -2.92389L79.4528 53.5776ZM109.747 -9.88026H109.741V70.1197H109.747V-9.88026ZM69.7409 30.1197C69.7409 21.8393 72.8918 13.2324 79.466 6.64871L136.075 63.1765C145.277 53.9612 149.741 41.8796 149.741 30.1197H69.7409ZM79.4528 6.66189L69.9582 16.1791L126.594 72.6805L136.088 63.1634L79.4528 6.66189ZM69.9582 16.1791C84.9365 1.16517 109.259 1.16517 124.237 16.1791L67.6016 72.6805C83.8805 88.998 110.315 88.998 126.594 72.6805L69.9582 16.1791ZM124.237 16.1791L122.409 14.3463L65.773 70.8476L67.6015 72.6805L124.237 16.1791ZM122.409 14.3462C124.269 16.2108 126.086 18.4212 127.709 20.999C129.342 23.5938 130.528 26.1641 131.382 28.5507C132.207 30.8566 132.639 32.7654 132.856 33.8417C132.962 34.3703 133.032 34.7772 133.056 34.9222C133.069 34.9959 133.078 35.051 133.074 35.0279C133.074 35.0269 133.069 34.9974 133.065 34.9725C133.06 34.9432 133.053 34.8986 133.044 34.8457C132.915 34.0746 132.263 29.8821 130.158 25.0042C129.09 22.5303 127.767 20.121 126.181 17.8204C124.612 15.5449 122.929 13.583 121.252 11.9039L64.6516 68.4408C63.2188 67.0064 61.7303 65.2792 60.3177 63.2302C58.8877 61.1562 57.6823 58.9653 56.7061 56.7032C54.7839 52.249 54.2089 48.4542 54.1443 48.0687C54.1368 48.024 54.1297 47.9806 54.138 48.0305C54.142 48.0554 54.1589 48.1581 54.1795 48.2794C54.2201 48.5195 54.3065 49.021 54.432 49.6438C54.6869 50.9086 55.1653 53.0046 56.0574 55.4982C56.9784 58.0724 58.2521 60.8308 60.0052 63.6159C61.7476 66.3839 63.717 68.7867 65.7731 70.8477L122.409 14.3462ZM121.269 11.9216C94.1687 -15.2435 49.049 4.78947 49.049 41.7895H129.049C129.049 74.7637 88.8501 92.6967 64.6339 68.423L121.269 11.9216ZM89.049 81.7895H89.0551V1.78954H89.049V81.7895ZM49.0551 41.7895C49.0551 63.4741 65.5208 81.8253 87.3471 83.8936L94.8943 4.25044C114.393 6.09822 129.055 22.4671 129.055 41.7895H49.0551ZM87.3482 83.8937C78.0893 83.0166 69.8662 78.8624 63.8211 72.803L120.457 16.3016C113.884 9.71291 104.954 5.20345 94.8933 4.25034L87.3482 83.8937ZM120.457 72.803L120.46 72.7994L63.8248 16.2979L63.8211 16.3016L120.457 72.803ZM63.8248 72.7994L65.6533 74.6323L122.289 18.1307L120.46 16.2979L63.8248 72.7994ZM65.6533 74.6322C50.7272 59.6708 50.7272 35.4544 65.6533 20.4929L122.289 76.9944C138.515 60.7293 138.515 34.3958 122.289 18.1308L65.6533 74.6322ZM65.6533 20.4929L61.203 24.9537L117.838 81.4553L122.289 76.9944L65.6533 20.4929ZM107.389 88.9919L107.391 88.9907L71.6553 17.4159L71.6528 17.4171L107.389 88.9919ZM119.49 54.5657V37.5615H39.4895V54.5657H119.49ZM88.4 -1.43347C83.6514 -2.51853 81.1175 -3.95521 79.8484 -4.96106L30.1565 57.7343C42.9509 67.8751 57.2478 73.5101 70.5791 76.5564L88.4 -1.43347ZM30.1605 -4.96428C28.8886 -3.9564 26.3532 -2.51981 21.6088 -1.4354L39.4342 76.5534C52.7648 73.5065 67.0553 67.8714 79.8444 57.7375L30.1605 -4.96428ZM-9.47853 37.559V54.1503H70.5215V37.559H-9.47853ZM-9.47853 54.1503C-9.47853 71.6142 -2.56315 86.781 6.69938 97.98L68.346 46.9927C68.9303 47.6992 70.5215 50.0654 70.5215 54.1503H-9.47853ZM6.69962 97.9802C16.1303 109.382 29.0478 118.065 43.6604 122.386L66.3444 45.6692C66.8584 45.8212 67.2115 46.008 67.4586 46.1719C67.7017 46.3332 68.0038 46.579 68.3457 46.9924L6.69962 97.9802ZM66.3591 122.381C80.8809 118.082 93.7178 109.426 103.096 98.233L41.7752 46.8548C42.0773 46.4943 42.3246 46.2985 42.5143 46.173C42.7061 46.046 43.0559 45.8482 43.6458 45.6735L66.3591 122.381ZM103.094 98.2364C112.207 87.3616 119.483 72.2628 119.483 54.5645H39.4834C39.4834 49.8726 41.3549 47.3563 41.778 46.8515L103.094 98.2364ZM71.6324 93.7864L71.6385 93.7876L87.3406 15.3437L87.3344 15.3425L71.6324 93.7864ZM67.1883 53.2106V36.2211H-12.8117V53.2106H67.1883ZM67.1883 36.2211C67.1883 55.5958 52.8386 71.5871 34.1282 74.1856L23.1232 -5.05382C2.78961 -2.22983 -12.8117 15.1557 -12.8117 36.2211H67.1883ZM36.9602 73.688C44.5852 72.0636 52.1 69.6971 59.3097 66.391L25.9637 -6.32795C24.7519 -5.77226 22.926 -5.11748 20.2913 -4.55618L36.9602 73.688ZM59.2999 66.3955C66.1157 63.2722 72.5907 59.3389 78.546 54.5062L28.1367 -7.61384C27.7509 -7.30072 27.0878 -6.84305 25.9734 -6.33241L59.2999 66.3955ZM93.3414 23.4462V12.3571H13.3414V23.4462H93.3414ZM53.3414 -27.6429H37.7317V52.3571H53.3414V-27.6429ZM-2.26832 12.3571V12.7872H77.7317V12.3571H-2.26832ZM-0.621543 24.1463C0.0828052 26.5245 0.861679 28.3298 1.25607 29.207C1.70256 30.2001 2.10274 30.9812 2.3409 31.4344C2.79328 32.2953 3.18619 32.9636 3.25932 33.0886C3.34913 33.2421 3.48846 33.4767 3.42309 33.3663C3.4102 33.3446 3.34207 33.2296 3.25278 33.0749C2.85452 32.3849 2.16112 31.1282 1.45415 29.4801C0.018565 26.1334 -1.33695 21.4909 -1.33695 15.9126H78.6631C78.6631 8.47449 76.8651 2.34765 74.9754 -2.05757C74.0414 -4.23495 73.1181 -5.91449 72.5408 -6.91466C72.4068 -7.14689 72.2971 -7.33234 72.2467 -7.41743C72.1438 -7.59109 72.2496 -7.41275 72.3107 -7.3082C72.3552 -7.23215 72.7244 -6.60556 73.1587 -5.77905C73.3878 -5.34303 73.7804 -4.57728 74.2208 -3.5977C74.6091 -2.734 75.3835 -0.940366 76.0849 1.428L-0.621543 24.1463ZM-1.33695 15.9126C-1.33695 -14.4272 35.4728 -30.1217 57.2466 -8.29629L0.61108 48.2052C29.5523 77.2151 78.6631 56.4017 78.6631 15.9126H-1.33695ZM57.2466 -8.29629C66.5163 0.995372 69.7612 14.9211 65.249 27.4936L-10.0485 0.4698C-16.0812 17.279 -11.7558 35.8089 0.61108 48.2052L57.2466 -8.29629ZM65.2336 27.5364C64.3837 29.8962 63.228 32.2817 61.7187 34.6016L-5.3375 -9.02722C-7.32353 -5.97474 -8.87518 -2.78794 -10.0331 0.427036L65.2336 27.5364ZM68.1906 12.7872V12.3498H-11.8094V12.7872H68.1906ZM28.1906 -27.6502H15.2247V52.3498H28.1906V-27.6502ZM15.2247 -27.6502C-8.38263 -27.6502 -27.413 -8.47091 -27.413 15.0011H52.587C52.587 35.5571 35.9547 52.3498 15.2247 52.3498V-27.6502ZM-27.413 15.0011V29.6615H52.587V15.0011H-27.413ZM-27.413 29.6615C-27.413 8.5821 -10.3405 -8.66734 10.9198 -8.66734V71.3327C34.0209 71.3327 52.587 52.5861 52.587 29.6615H-27.413ZM10.9198 -8.66734H8.27604V71.3327H10.9198V-8.66734ZM48.276 31.3327V31.3302H-31.724V31.3327H48.276ZM8.27604 -8.66979C10.9293 -8.66979 13.8047 -8.39123 16.8066 -7.70574C19.8289 -7.01558 22.5084 -6.02059 24.813 -4.92204C27.0363 -3.86229 28.6922 -2.80785 29.5891 -2.20779C30.0294 -1.91314 30.3589 -1.67856 30.4657 -1.6023C30.5194 -1.56397 30.5611 -1.53391 30.534 -1.55339C30.5268 -1.55855 30.4489 -1.61473 30.3626 -1.67637C29.6399 -2.19282 26.1878 -4.70948 21.196 -6.67331C18.6796 -7.66329 16.0414 -8.41967 13.309 -8.9146C10.6073 -9.40395 8.05125 -9.5948 5.70437 -9.5948V70.4052C3.7153 70.4052 1.47288 70.2433 -0.949496 69.8045C-3.40268 69.3602 -5.79591 68.676 -8.09188 67.7728C-12.6428 65.9824 -15.7521 63.697 -16.1512 63.4118C-16.197 63.3791 -16.2348 63.3518 -16.202 63.3754C-16.189 63.3847 -16.1075 63.4435 -16.014 63.5102C-15.8274 63.6434 -15.4182 63.934 -14.8968 64.2829C-13.8379 64.9913 -12.015 66.1469 -9.6098 67.2934C-7.12323 68.4787 -4.24697 69.5459 -1.00311 70.2867C2.22033 71.0227 5.34199 71.3302 8.27604 71.3302V-8.66979ZM5.70437 -9.5948C-17.7988 -9.5948 -36.6644 9.48013 -36.6644 32.7796H43.3356C43.3356 53.4572 26.5894 70.4052 5.70437 70.4052V-9.5948ZM3.33559 -7.22041H3.32948V72.7796H3.33559V-7.22041ZM-36.6705 32.7796C-36.6705 70.3265 6.63565 87.3678 32.9151 65.262L-18.5827 4.0413C-5.64283 -6.84348 10.3095 -6.43317 21.185 -1.52335C32.9564 3.79095 43.3295 16.2381 43.3295 32.7796H-36.6705ZM33.8297 64.4688C27.0932 70.4928 18.085 74.2278 8.27604 74.2278V-5.77225C-2.38613 -5.77225 -12.1716 -1.71627 -19.4972 4.83454L33.8297 64.4688ZM8.27604 74.2278H10.9198V-5.77225H8.27604V74.2278ZM10.9198 74.2278C-10.3404 74.2278 -27.413 56.9784 -27.413 35.8989H52.587C52.587 12.9743 34.0208 -5.77225 10.9198 -5.77225V74.2278ZM-27.413 35.8989V53.2106H52.587V35.8989H-27.413ZM12.587 93.2106H27.1883V13.2106H12.587V93.2106ZM65.4421 48.8805C65.6445 48.9448 65.6837 48.9841 65.6344 48.9519C65.5855 48.9199 65.6078 48.9208 65.7047 49.0306C65.8351 49.1783 66.9247 50.5072 67.1504 53.2171L-12.5733 59.8593C-9.78686 93.3044 15.5128 116.963 41.2308 125.129L65.4421 48.8805ZM27.2885 16.5382H12.587V96.5382H27.2885V16.5382ZM-27.413 56.5382V72.1788H52.587V56.5382H-27.413ZM12.587 112.179H13.027V32.1788H12.587V112.179ZM24.2742 110.565C26.6437 109.871 28.4462 109.101 29.339 108.703C30.3427 108.255 31.1332 107.853 31.5967 107.61C32.4771 107.15 33.159 106.75 33.2952 106.671C33.4654 106.572 33.6961 106.435 33.5978 106.493C33.5829 106.502 33.4713 106.568 33.3208 106.655C32.6443 107.045 31.3895 107.739 29.7395 108.448C26.3852 109.89 21.7297 111.251 16.1353 111.251V31.2514C8.6915 31.2514 2.56135 33.0536 -1.84503 34.9471C-4.02101 35.8821 -5.69626 36.805 -6.68146 37.3739C-6.90914 37.5054 -7.09094 37.6129 -7.16903 37.6591C-7.33042 37.7547 -7.15582 37.6511 -7.03448 37.5803C-6.94721 37.5293 -6.30701 37.1532 -5.46106 36.711C-5.01485 36.4778 -4.23976 36.083 -3.24969 35.6413C-2.37047 35.2492 -0.579737 34.484 1.77982 33.7926L24.2742 110.565ZM16.1353 111.251C-2.89684 111.251 -18.1628 95.8127 -18.1628 76.9668H61.8372C61.8372 51.8088 41.4646 31.2514 16.1353 31.2514V111.251ZM21.8372 36.9668H21.8311V116.967H21.8372V36.9668ZM-18.1689 76.9668C-18.1689 53.4096 5.24162 36.5861 27.777 44.7119L0.640951 119.969C30.6175 130.778 61.8311 108.439 61.8311 76.9668H-18.1689ZM27.7249 44.6931C30.2259 45.591 32.6376 46.7862 34.9043 48.268L-8.8698 115.229C-5.87216 117.189 -2.66111 118.784 0.692989 119.988L27.7249 44.6931ZM13.0172 41.7487H12.5809V121.749H13.0172V41.7487ZM-27.4191 81.7487V94.7453H52.5809V81.7487H-27.4191ZM12.5809 134.745H12.587V54.7453H12.5809V134.745ZM-27.413 94.7453C-27.413 118.202 -8.40677 137.389 15.2247 137.389V57.3893C35.9544 57.3893 52.587 74.1976 52.587 94.7453H-27.413ZM-24.7753 97.3893V97.3954H55.2247V97.3893H-24.7753ZM15.2247 137.395H29.8504V57.3954H15.2247V137.395ZM29.8504 137.395C8.58637 137.395 -8.48971 120.142 -8.48971 99.0592H71.5103C71.5103 76.1384 52.9479 57.3954 29.8504 57.3954V137.395ZM-8.48971 99.0592V101.587H71.5103V99.0592H-8.48971ZM-8.46253 103.061C-8.54877 100.723 -8.42801 98.029 -7.91253 95.0938C-7.6566 93.6365 -7.31498 92.1864 -6.88706 90.7521C-6.45902 89.3174 -5.96511 87.9673 -5.42919 86.7057C-4.35379 84.174 -3.20742 82.2332 -2.41569 81.0005C-2.03217 80.4033 -1.71375 79.9454 -1.54832 79.7105C-1.46398 79.5908 -1.3998 79.5013 -1.37782 79.4707C-1.36637 79.4547 -1.35895 79.4444 -1.36333 79.4505C-1.37105 79.4612 -1.36221 79.449 -1.37388 79.4651C-1.37911 79.4724 -1.38707 79.4835 -1.39622 79.4962C-1.45138 79.5728 -1.69252 79.9072 -1.9804 80.3259C-2.28345 80.7667 -2.70207 81.3924 -3.17283 82.1576C-4.14363 83.7354 -5.29209 85.8323 -6.33594 88.4115C-6.85149 89.6853 -7.31631 91.0144 -7.71936 92.3965C-8.12198 93.7771 -8.44872 95.162 -8.70362 96.5449C-9.21523 99.3206 -9.40764 101.926 -9.40764 104.286H70.5924C70.5924 106.273 70.4301 108.556 69.9711 111.046C69.5049 113.575 68.7822 116.049 67.8209 118.424C66.8669 120.782 65.8229 122.683 64.9636 124.079C64.5485 124.754 64.1874 125.293 63.9426 125.649C63.8199 125.827 63.7184 125.971 63.6511 126.066C63.5864 126.157 63.5386 126.224 63.5346 126.229C63.4679 126.322 63.678 126.031 63.8618 125.77C64.0847 125.454 64.4595 124.914 64.8973 124.232C65.7975 122.83 67.0439 120.712 68.2031 117.983C69.3878 115.194 70.3137 112.166 70.8816 108.932C71.4408 105.748 71.5813 102.774 71.4831 100.113L-8.46253 103.061ZM-9.40764 104.286C-9.40764 140.921 35.4758 161.76 62.9546 134.216L6.31911 77.7148C30.7789 53.1969 70.5924 71.8313 70.5924 104.286H-9.40764ZM62.9546 134.216C78.143 118.992 79.735 94.38 65.6324 77.3026L3.94691 128.243C-8.5814 113.072 -7.15316 91.219 6.31911 77.7148L62.9546 134.216ZM57.0141 136.03L57.0177 136.028L12.5689 69.5125L12.5652 69.515L57.0141 136.03ZM65.6055 77.2632C71.1055 83.9071 74.412 92.4905 74.412 101.709H-5.58803C-5.58803 111.734 -1.99551 121.058 3.98114 128.277L65.6055 77.2632ZM74.412 101.709V99.0592H-5.58803V101.709H74.412ZM74.412 99.0592C74.412 120.142 57.3358 137.395 36.0718 137.395V57.3954C12.9744 57.3954 -5.58803 76.1383 -5.58803 99.0592H74.412ZM36.0718 137.395H53.3353V57.3954H36.0718V137.395ZM93.3353 97.3954V87.0022H13.3353V97.3954H93.3353ZM17.5412 104.857L17.5425 104.859L89.1305 69.15L89.1293 69.1476L17.5412 104.857ZM42.8518 53.6165C43.0894 50.3817 44.3997 48.9135 44.3998 48.9134C44.4572 48.8488 44.4269 48.8929 44.3269 48.9582C44.2244 49.0252 44.2591 48.9776 44.5322 48.8906L68.8071 125.119C93.9207 117.121 120.14 93.482 122.637 59.4746L42.8518 53.6165ZM16.6696 87.0047V97.3978H96.6696V87.0047H16.6696ZM56.6696 137.398H72.2732V57.3978H56.6696V137.398ZM112.273 97.3978V96.9605H32.2732V97.3978H112.273ZM110.626 85.6013C109.922 83.2231 109.143 81.4179 108.749 80.5407C108.302 79.5476 107.902 78.7665 107.664 78.3133C107.212 77.4524 106.819 76.7841 106.746 76.6591C106.656 76.5056 106.516 76.271 106.582 76.3814C106.595 76.4031 106.663 76.5181 106.752 76.6728C107.15 77.3628 107.844 78.6195 108.551 80.2676C109.986 83.6143 111.342 88.2568 111.342 93.835H31.3418C31.3418 101.273 33.1398 107.4 35.0294 111.805C35.9634 113.982 36.8868 115.662 37.464 116.662C37.598 116.894 37.7077 117.08 37.7582 117.165C37.8611 117.339 37.7553 117.16 37.6941 117.056C37.6496 116.98 37.2805 116.353 36.8462 115.527C36.617 115.091 36.2245 114.325 35.7841 113.345C35.3958 112.482 34.6214 110.688 33.92 108.32L110.626 85.6013ZM111.342 93.835C111.342 124.175 74.532 139.869 52.7583 118.044L109.394 61.5424C80.4527 32.5326 31.3418 53.3458 31.3418 93.835H111.342ZM52.7583 118.044C43.4886 108.752 40.2437 94.8265 44.7559 82.254L120.053 109.278C126.086 92.4687 121.761 73.9387 109.394 61.5424L52.7583 118.044ZM44.7396 82.2994C45.6189 79.8403 46.7917 77.451 48.2565 75.1914L115.384 118.71C117.321 115.723 118.887 112.539 120.07 109.232L44.7396 82.2994ZM41.8204 96.9506V97.3978H121.82V96.9506H41.8204ZM81.8204 137.398H94.779V57.3978H81.8204V137.398ZM134.779 97.3978V97.3917H54.779V97.3978H134.779ZM94.779 137.392C118.386 137.392 137.418 118.228 137.418 94.7478H57.4179C57.4179 74.1758 74.0734 57.3917 94.779 57.3917V137.392ZM97.4179 134.748H97.424V54.7478H97.4179V134.748ZM137.424 94.7311L137.418 80.0707L57.4179 80.104L57.424 94.7645L137.424 94.7311ZM137.418 80.0873C137.418 101.167 120.345 118.416 99.0851 118.416V38.4162C75.984 38.4162 57.4179 57.1628 57.4179 80.0873H137.418ZM99.0851 118.416H101.729V38.4162H99.0851V118.416ZM61.7289 78.4162V78.4186H141.729V78.4162H61.7289ZM101.729 118.419C99.0756 118.419 96.2002 118.14 93.1982 117.455C90.1759 116.764 87.4964 115.769 85.1917 114.671C82.9685 113.611 81.3126 112.557 80.4157 111.957C79.9753 111.662 79.6459 111.427 79.539 111.351C79.4853 111.313 79.4437 111.283 79.4707 111.302C79.4779 111.307 79.5559 111.363 79.6421 111.425C80.3648 111.942 83.8169 114.458 88.8088 116.422C91.3252 117.412 93.9634 118.168 96.6959 118.663C99.3976 119.153 101.954 119.344 104.301 119.344V39.3436C106.29 39.3436 108.532 39.5056 110.954 39.9444C113.408 40.3887 115.801 41.0728 118.097 41.9761C122.648 43.7665 125.757 46.052 126.156 46.3372C126.202 46.3699 126.24 46.3972 126.207 46.3736C126.194 46.3643 126.113 46.3055 126.019 46.2387C125.832 46.1055 125.423 45.815 124.902 45.4661C123.843 44.7576 122.02 43.602 119.615 42.4555C117.128 41.2702 114.252 40.2029 111.008 39.4622C107.785 38.7261 104.663 38.4186 101.729 38.4186V118.419ZM104.301 119.344C127.807 119.344 146.677 100.258 146.677 76.9693H66.6766C66.6766 56.2807 83.4191 39.3436 104.301 39.3436V119.344ZM146.677 76.9693C146.677 41.7791 105.379 21.0122 77.2485 44.3536L128.334 105.919C103.298 126.693 66.6766 108.187 66.6766 76.9693H146.677ZM136.097 52.9848L136.095 52.9811L69.4823 97.2843L69.4848 97.288L136.097 52.9848ZM77.2098 44.38C83.8489 38.8579 92.4574 35.515 101.73 35.515V115.515C111.807 115.515 121.154 111.885 128.367 105.885L77.2098 44.38ZM101.73 35.515H99.0863V115.515H101.73V35.515ZM99.0863 35.515C120.35 35.515 137.426 52.7681 137.426 73.8512H57.4264C57.4264 96.772 75.9889 115.515 99.0863 115.515V35.515ZM137.426 73.8512V56.5468H57.4264V73.8512H137.426ZM97.4264 16.5468H82.7457V96.5468H97.4264V16.5468ZM111.063 28.296L111.062 28.2948L54.4267 84.7963L54.4279 84.7975L111.063 28.296ZM42.8117 36.313V53.2045H122.812V36.313H42.8117ZM82.8117 93.2045H84.8125V13.2045H82.8117V93.2045ZM113.13 81.4553L118.759 75.8133L62.1234 19.3118L56.4948 24.9538L113.13 81.4553ZM118.759 19.3118L118.485 19.0374L61.8496 75.5389L62.1234 75.8133L118.759 19.3118ZM109.273 12.1458C107.125 10.9781 105.32 10.2553 104.392 9.90182C103.358 9.50795 102.508 9.23318 102 9.0754C101.038 8.77623 100.262 8.57643 100.107 8.5363C99.9172 8.48707 99.6505 8.41999 99.7701 8.45024C99.7918 8.45571 99.925 8.48936 100.102 8.53634C100.9 8.74784 102.328 9.15661 104.049 9.8447C107.574 11.2538 111.803 13.6224 115.69 17.5182L59.0542 74.0197C64.24 79.2177 69.7943 82.3068 74.3565 84.1303C76.5964 85.0256 78.4702 85.5651 79.6027 85.8653C79.8635 85.9345 80.0734 85.9876 80.1642 86.0106C80.353 86.0583 80.1477 86.0066 80.0113 85.9712C79.91 85.9449 79.1789 85.7574 78.2527 85.4695C77.7633 85.3174 76.9286 85.048 75.9085 84.6593C74.9943 84.311 73.2008 83.5933 71.0619 82.4304L109.273 12.1458ZM115.69 17.5182C122.377 24.221 125.727 33.0728 125.727 41.7895H45.7268C45.7268 53.3854 50.1745 65.1189 59.0542 74.0197L115.69 17.5182ZM85.7268 81.7895H85.7329V1.78954H85.7268V81.7895ZM125.733 41.7895C125.733 72.463 88.6343 87.7599 66.9892 66.056L123.635 9.56435C94.959 -19.1893 45.7329 1.07448 45.7329 41.7895H125.733ZM66.9809 66.0476C63.1077 62.1616 60.7573 57.9425 59.3606 54.4316C58.6783 52.7164 58.2729 51.2941 58.0628 50.4973C58.016 50.32 57.9826 50.1867 57.9768 50.1636C57.9462 50.0419 58.0128 50.3082 58.0603 50.4926C58.0995 50.6447 58.2954 51.4104 58.5882 52.3599C58.7427 52.861 59.0113 53.6993 59.3959 54.7184C59.7415 55.6342 60.4454 57.4094 61.5805 59.5249L132.075 21.7018C133.205 23.8082 133.904 25.5719 134.244 26.474C134.623 27.4793 134.887 28.3017 135.036 28.7844C135.317 29.6974 135.501 30.4179 135.526 30.5164C135.56 30.6474 135.611 30.8519 135.563 30.6609C135.54 30.5685 135.487 30.3583 135.418 30.0971C135.119 28.9647 134.584 27.0951 133.695 24.8603C131.884 20.3102 128.815 14.7624 123.643 9.57275L66.9809 66.0476ZM68.5098 68.8641L68.7836 69.1385L125.419 12.6371L125.145 12.3626L68.5098 68.8641ZM125.421 69.1365L133.736 60.8004L77.0966 4.30304L68.7815 12.6391L125.421 69.1365ZM133.734 60.8025C142.16 52.357 146.424 41.1969 146.424 30.121H66.4236C66.4236 20.7995 70.0153 11.4012 77.0987 4.30097L133.734 60.8025ZM106.424 -9.87904H106.418V70.121H106.424V-9.87904ZM146.418 30.121C146.418 19.1674 142.244 7.98347 133.761 -0.534563L77.074 55.915C69.924 48.7348 66.4175 39.3103 66.4175 30.121H146.418ZM133.735 -0.560528L124.242 -10.0765L67.6065 46.425L77.0999 55.9409L133.735 -0.560528ZM124.242 -10.0765C139.168 4.885 139.168 29.1014 124.242 44.0629L67.6065 -12.4386C51.3799 3.82645 51.3799 30.1599 67.6065 46.425L124.242 -10.0765ZM124.242 44.0628L126.071 42.2299L69.435 -14.2714L67.6065 -12.4386L124.242 44.0628ZM69.462 42.257L69.4656 42.2606L126.047 -14.2948L126.044 -14.2984L69.462 42.257ZM126.096 42.2114C124.23 44.0849 122.026 45.9058 119.466 47.5298C116.89 49.1631 114.345 50.3491 111.992 51.2045C109.719 52.0309 107.838 52.4693 106.781 52.69C106.261 52.7986 105.861 52.87 105.718 52.8953C105.645 52.9082 105.591 52.9174 105.614 52.9136C105.614 52.9135 105.644 52.9084 105.668 52.9042C105.697 52.8993 105.74 52.8917 105.792 52.8826C106.539 52.7517 110.672 52.0791 115.476 49.9853C117.918 48.9211 120.305 47.6034 122.591 46.0205C124.853 44.4541 126.81 42.7718 128.489 41.0881L71.8539 -15.4133C73.2913 -16.8541 75.0147 -18.3428 77.052 -19.7533C79.113 -21.1803 81.2825 -22.3798 83.5128 -23.3519C87.8945 -25.2616 91.6296 -25.8547 91.9912 -25.918C92.0339 -25.9255 92.076 -25.9327 92.0257 -25.924C92.0002 -25.9196 91.8985 -25.9021 91.7782 -25.8809C91.5404 -25.8388 91.0456 -25.7498 90.4315 -25.6216C89.1861 -25.3615 87.118 -24.8752 84.6578 -23.9808C82.118 -23.0574 79.3856 -21.7833 76.6211 -20.0301C73.8713 -18.2863 71.4766 -16.3138 69.4165 -14.2455L126.096 42.2114ZM128.489 41.0881C155.307 14.2073 135.869 -31.0746 98.5583 -31.0746V48.9254C65.266 48.9254 47.9262 8.57116 71.8539 -15.4133L128.489 41.0881ZM58.5583 8.92541V8.93154H138.558V8.92541H58.5583ZM98.5583 -31.0685C77.7216 -31.0685 58.4081 -15.3044 56.4408 7.45574L136.144 14.345C135.162 25.7061 129.472 34.1995 123.619 39.4098C117.579 44.7872 108.895 48.9315 98.5583 48.9315V-31.0685ZM56.3137 9.58685C56.6197 0.274895 60.3531 -9.07384 67.4879 -16.2256L124.123 40.2758C131.879 32.5017 135.938 22.3443 136.271 12.2139L56.3137 9.58685ZM67.488 -16.2257L65.6594 -14.3928L122.295 42.1087L124.123 40.2759L67.488 -16.2257ZM65.6594 -14.3928C80.6378 -29.4067 104.96 -29.4067 119.938 -14.3928L63.3029 42.1087C79.5817 58.4262 106.016 58.4262 122.295 42.1087L65.6594 -14.3928ZM119.938 -14.3928L110.444 -23.9099L53.8082 32.5915L63.3029 42.1087L119.938 -14.3928ZM110.444 -23.9099C93.4816 -40.9123 65.9203 -40.9123 48.9582 -23.9099L105.594 32.5915C91.2987 46.9206 68.1033 46.9206 53.8082 32.5915L110.444 -23.9099ZM48.9603 -23.912L40.6439 -15.5772L97.2753 40.9285L105.592 32.5936L48.9603 -23.912ZM40.642 40.9266L40.9158 41.201L97.551 -15.3008L97.2772 -15.5752L40.642 40.9266ZM50.1974 48.1301C52.4035 49.3238 54.2525 50.0519 55.1546 50.3916C56.1787 50.7772 57.0182 51.0451 57.5061 51.1952C58.4321 51.4802 59.181 51.6723 59.3112 51.706C59.4652 51.7459 59.7415 51.8157 59.5974 51.7792C59.563 51.7705 59.4248 51.7354 59.2417 51.6866C58.4294 51.47 57.0147 51.0612 55.3138 50.3793C51.8478 48.9898 47.6181 46.6364 43.711 42.7201L100.347 -13.7814C95.1463 -18.994 89.5879 -22.0696 85.0821 -23.876C82.8613 -24.7663 80.9988 -25.3072 79.8515 -25.6131C79.766 -25.6359 78.5372 -25.9541 79.3691 -25.7387C79.4462 -25.7187 80.1504 -25.5387 81.0406 -25.2647C81.5106 -25.1201 82.3345 -24.8575 83.3452 -24.4769C84.234 -24.1422 86.072 -23.4189 88.2694 -22.2299L50.1974 48.1301ZM43.711 42.7201C22.4835 21.4423 36.8583 -15.9216 68.0576 -15.9216V64.0784C109.275 64.0784 128.583 14.5216 100.347 -13.7814L43.711 42.7201ZM68.0576 -15.9216C81.2724 -15.9216 93.474 -8.31594 99.1845 3.84021L26.776 37.855C34.3639 54.0077 50.533 64.0784 68.0576 64.0784V-15.9216ZM99.1706 3.81069C100.341 6.2974 101.166 8.81937 101.694 11.2963L23.448 27.9583C24.1539 31.2733 25.2501 34.6137 26.7899 37.8845L99.1706 3.81069ZM90.8886 -8.62336L90.6063 -8.90637L33.9706 47.595L34.253 47.878L90.8886 -8.62336ZM34.0976 -9.03307L29.3038 -4.27081L85.6855 52.4839L90.4793 47.7217L34.0976 -9.03307ZM33.0133 55.7398C45.8347 65.6625 60.1605 70.9824 73.2657 73.735L89.7102 -4.55664C85.1413 -5.51629 82.8832 -6.82458 81.976 -7.5267L33.0133 55.7398ZM73.3206 73.7465C54.3998 69.8 41.8347 52.6479 42.8715 34.0815L122.747 38.542C123.874 18.356 110.209 -0.281081 89.6553 -4.56813L73.3206 73.7465ZM64.8868 72.0719L64.8892 72.0731L100.734 0.5529L100.732 0.551675L64.8868 72.0719ZM101.054 94.2986C108.806 84.6234 115.413 70.9879 115.413 54.5669H35.4132C35.4132 48.9666 37.6573 45.4806 38.6202 44.2787L101.054 94.2986ZM75.4132 14.5669H75.4071V94.5669H75.4132V14.5669ZM115.407 54.5669V42.026H35.4071V54.5669H115.407ZM115.407 42.026C115.407 22.9839 102.648 6.94565 85.1791 1.96039L63.2248 78.889C47.1473 74.3007 35.4071 59.5464 35.4071 42.026H115.407ZM114.202 40.4247V40.4198H34.202V40.4247H114.202ZM85.2494 1.97561C82.0105 1.04487 79.7963 -0.0365783 78.2285 -1.08938L33.6294 65.3254C43.2821 71.8074 53.3982 76.0604 63.1546 78.864L85.2494 1.97561ZM78.2333 -1.08612C63.4779 -10.9979 44.7398 -10.1873 31.0876 -0.614253L77.0178 64.887C64.4559 73.6956 47.209 74.4473 33.6245 65.3221L78.2333 -1.08612ZM31.4433 -0.860767C30.4767 -0.198509 28.0065 1.04586 24.7966 1.96487L46.8165 78.8747C56.0935 76.2187 66.9289 71.8027 76.6622 65.1335L31.4433 -0.860767ZM24.8617 1.94631C6.39139 7.20073 -5.40346 23.9943 -5.40346 42.0248H74.5965C74.5965 58.6022 63.7575 74.0554 46.7515 78.8933L24.8617 1.94631ZM-5.40346 42.0248V54.1516H74.5965V42.0248H-5.40346ZM-5.40346 54.1516C-5.40346 87.637 19.7604 109.493 40.7699 117.131L68.1007 41.9439C69.3985 42.4157 70.4063 43.0862 71.3985 44.2832C72.4933 45.6042 74.5965 48.9608 74.5965 54.1516H-5.40346ZM40.7854 117.136C50.3101 120.594 60.3917 120.351 69.2563 117.122L41.8805 41.9521C50.0386 38.9811 59.3233 38.7574 68.0852 41.9383L40.7854 117.136ZM69.3239 117.098C81.3623 112.689 92.6619 104.78 101.063 94.2883L38.6142 44.2865C39.21 43.5424 39.7215 43.1159 40.0787 42.861C40.4321 42.6087 40.9664 42.2868 41.8128 41.9768L69.3239 117.098ZM41.5207 41.0367L41.5195 41.0379L98.155 97.5394L98.1562 97.5381L41.5207 41.0367ZM69.5907 113.435C79.8572 109.412 89.6439 102.635 97.2437 93.6919C104.872 84.7156 112.081 71.3014 112.081 54.5669H32.0813C32.0813 47.6264 35.0474 43.3405 36.2836 41.8858C37.4912 40.4648 38.7366 39.6022 40.4068 38.9478L69.5907 113.435ZM72.0813 94.5669H72.0874V14.5669H72.0813V94.5669ZM112.087 54.5669V43.2745H32.0874V54.5669H112.087ZM83.7374 5.00857C80.7342 4.09426 78.4162 2.99477 76.6844 1.87792L33.3253 69.1088C42.1712 74.8137 51.4403 78.8012 60.4374 81.5403L83.7374 5.00857ZM33.3238 1.87894C31.5939 2.99472 29.2779 4.09318 26.2813 5.00527L49.5756 81.5387C58.5744 78.7998 67.8432 74.8113 76.686 69.1078L33.3238 1.87894ZM-2.07153 43.272V54.1516H77.9285V43.272H-2.07153ZM-2.07153 54.1516C-2.07153 86.1428 22.0332 106.286 40.4951 113.469L69.5025 38.9133C71.183 39.5672 72.6186 40.5321 73.9715 42.1702C75.4114 43.9137 77.9285 47.9919 77.9285 54.1516H-2.07153ZM35.2162 20.2454L25.1202 30.3654L81.7557 86.8669L91.8517 76.7469L35.2162 20.2454ZM25.1202 30.3654C40.0985 15.3515 64.4208 15.3515 79.3991 30.3654L22.7636 86.8669C39.0425 103.184 65.4768 103.184 81.7557 86.8669L25.1202 30.3654ZM79.3992 30.3654L74.7936 25.7489L18.1581 82.2504L22.7636 86.8668L79.3992 30.3654ZM74.7936 25.7489C49.6948 0.590573 4.10096 16.7344 4.10096 54.9871H84.101C84.101 90.7086 41.5457 105.693 18.1581 82.2504L74.7936 25.7489ZM4.10096 54.9871C4.10096 65.2396 7.96003 76.0156 16.2519 84.2895L72.7592 27.6598C80.5108 35.3946 84.101 45.4526 84.101 54.9871H4.10096ZM16.1878 84.2254L23.3222 91.3767L79.9577 34.8752L72.8233 27.7239L16.1878 84.2254ZM23.3222 91.3767C39.3186 107.411 65.2201 107.338 81.15 91.4275L24.616 34.8244C39.8639 19.5952 64.6409 19.5221 79.9577 34.8752L23.3222 91.3767ZM81.2008 91.3767L93.8244 78.7231L37.1889 22.2216L24.5653 34.8752L81.2008 91.3767ZM93.8245 78.7231C102.018 70.5098 105.911 59.7922 105.911 49.4849H25.9113C25.9113 39.8955 29.5353 29.8934 37.1889 22.2216L93.8245 78.7231ZM65.9113 89.4849H65.9174V9.48487H65.9113V89.4849ZM105.917 49.4849C105.917 12.2028 61.02 -5.58081 35.2373 20.2267L91.833 76.7681C67.7859 100.838 25.9174 84.2798 25.9174 49.4849H105.917ZM91.8529 20.2466L91.8517 20.2454L35.2162 76.7469L35.2174 76.7481L91.8529 20.2466ZM80.5774 26.8222L77.1502 23.3868L20.5146 79.8882L23.9419 83.3236L80.5774 26.8222ZM77.1502 23.3868C68.4013 14.6171 56.8576 10.2531 45.4907 10.2531V90.2531C36.5439 90.2531 27.4228 86.8128 20.5146 79.8882L77.1502 23.3868ZM45.4907 10.2531C5.04396 10.2531 -13.8441 58.858 13.8371 86.5934L70.4609 30.0802C92.2409 51.9028 77.4939 90.2531 45.4907 90.2531V10.2531ZM13.8312 86.5875L20.9656 93.7389L77.6012 37.2374L70.4668 30.086L13.8312 86.5875ZM20.9657 93.7389C38.237 111.051 66.286 111.051 83.5573 93.7389L26.9218 37.2374C40.9077 23.2183 63.6153 23.2183 77.6012 37.2374L20.9657 93.7389ZM83.5573 93.7389L96.181 81.0852L39.5455 24.5838L26.9218 37.2374L83.5573 93.7389ZM96.181 81.0852C104.925 72.3204 109.244 60.7947 109.244 49.4849H29.2444C29.2444 40.6009 32.6422 31.5034 39.5455 24.5838L96.181 81.0852ZM69.2444 9.48487H69.2383V89.4849H69.2444V9.48487ZM109.238 49.4849C109.238 9.06104 60.6185 -9.94934 32.8562 17.8904L89.5035 74.3801C67.6179 96.3267 29.2383 81.4011 29.2383 49.4849H109.238ZM32.8621 17.8845L23.9443 26.8234L80.5799 83.3249L89.4976 74.386L32.8621 17.8845ZM70.1846 19.314L70.1821 19.3128L34.3372 90.833L34.3396 90.8342L70.1846 19.314Z" fill="white" mask="url(#path-1-inside-1_14_2839)"/>
</svg>
