<svg width="110" height="110" viewBox="0 0 110 110" fill="none" xmlns="http://www.w3.org/2000/svg">
<path d="M80.5 29.1675H84.5005V37.7233H80.5V29.1675Z" fill="white" stroke="white"/>
<path d="M63.3948 17.6161L63.395 17.6159C68.4565 12.7797 75.3252 10.0557 82.4952 10.0557C89.6655 10.0557 96.5338 12.7797 101.595 17.6159L101.596 17.6161C106.661 22.4514 109.498 29.0084 109.498 35.8345C109.498 42.6657 106.661 49.2178 101.595 54.0579C96.534 58.894 89.6657 61.6135 82.4952 61.6135C75.3246 61.6135 68.4564 58.894 63.395 54.0579C58.3295 49.2177 55.4922 42.6652 55.4922 35.8345C55.4922 29.008 58.3295 22.4514 63.3948 17.6161ZM82.4952 57.8347H82.4956C88.5887 57.83 94.4316 55.5163 98.746 51.3936C103.061 47.2702 105.493 41.677 105.498 35.8352V35.8348C105.498 29.9925 103.071 24.3945 98.7508 20.2711C94.436 16.1488 88.5887 13.8337 82.4952 13.8337C76.4017 13.8337 70.5539 16.1488 66.2395 20.2711C61.9192 24.3949 59.4925 29.9931 59.4925 35.8348C59.4925 41.6761 61.9193 47.2741 66.2395 51.402L66.5849 51.0404L66.2395 51.402C70.5546 55.5245 76.4025 57.8347 82.4952 57.8347Z" fill="white" stroke="white"/>
<path d="M63.3948 17.6161L63.395 17.6159C68.4565 12.7797 75.3252 10.0557 82.4952 10.0557C89.6655 10.0557 96.5338 12.7797 101.595 17.6159L101.596 17.6161C106.661 22.4514 109.498 29.0084 109.498 35.8345C109.498 42.6657 106.661 49.2178 101.595 54.0579C96.534 58.894 89.6657 61.6135 82.4952 61.6135C75.3246 61.6135 68.4564 58.894 63.395 54.0579C58.3295 49.2177 55.4922 42.6652 55.4922 35.8345C55.4922 29.008 58.3295 22.4514 63.3948 17.6161ZM82.4952 57.8347H82.4956C88.5887 57.83 94.4316 55.5163 98.746 51.3936C103.061 47.2702 105.493 41.677 105.498 35.8352V35.8348C105.498 29.9925 103.071 24.3945 98.7508 20.2711C94.436 16.1488 88.5887 13.8337 82.4952 13.8337C76.4017 13.8337 70.5539 16.1488 66.2395 20.2711C61.9192 24.3949 59.4925 29.9931 59.4925 35.8348C59.4925 41.6761 61.9193 47.2741 66.2395 51.402L66.5849 51.0404L66.2395 51.402C70.5546 55.5245 76.4025 57.8347 82.4952 57.8347Z" fill="white" stroke="white"/>
<path d="M80.5 5.27783H84.5005V13.8336H80.5V5.27783Z" fill="white" stroke="white"/>
<path d="M75.4961 0.5H89.4975V4.27791H75.4961V0.5Z" fill="white" stroke="white"/>
<mask id="path-6-inside-1_14_2828" fill="white">
<path d="M74.8855 63.5731L74.8415 63.7924C74.8122 63.9324 74.7878 64.077 74.7585 64.217C74.7292 64.357 74.6902 64.5063 74.6511 64.6509C74.6169 64.7956 74.5827 64.9402 74.5388 65.0895C74.4997 65.2342 74.4655 65.3508 74.4265 65.4815C74.3874 65.6121 74.3386 65.7988 74.2848 65.9574C74.2507 66.0694 74.2116 66.1767 74.1774 66.2887C74.1188 66.4706 74.0553 66.6526 73.987 66.8346L73.9088 67.0539C73.8551 67.1985 73.7965 67.3385 73.7428 67.4831L73.65 67.7071C73.5914 67.8517 73.5279 67.9917 73.4693 68.1364L73.3668 68.3743C73.3082 68.505 73.2447 68.6356 73.1861 68.7616C73.1226 68.8923 73.0592 69.0182 72.9957 69.1442L72.9029 69.3309V69.3262C71.1302 72.7277 68.4591 75.6298 65.1532 77.7389L64.8553 77.9302C64.7137 78.0188 64.5672 78.1028 64.4207 78.1868C64.2742 78.2708 64.1716 78.3361 64.0398 78.4108C63.9079 78.4808 63.7907 78.5461 63.6637 78.6161C63.5368 78.6814 63.3561 78.7794 63.1998 78.8541L62.8873 79.008C62.6969 79.1014 62.5064 79.1947 62.316 79.2787L62.1792 79.3393C62.023 79.4093 61.8716 79.4793 61.7104 79.5446L61.437 79.6566L61.0805 79.8012L60.6752 79.9506L60.4261 80.0392C60.2064 80.1185 59.9818 80.1932 59.7571 80.2632H59.7522C58.9025 80.5338 58.0431 80.7531 57.1641 80.9257C53.7409 81.593 50.2006 81.495 46.8214 80.6411C46.2012 80.4825 45.5957 80.3005 45 80.0999C44.79 80.0252 44.58 79.9505 44.37 79.8712L44.1454 79.7826L43.7743 79.6379L43.3641 79.4653L43.1931 79.3953L42.7341 79.1853L42.612 79.1293C42.4118 79.036 42.2165 78.9334 42.0163 78.8354L41.7477 78.7001C41.5524 78.5974 41.3619 78.4901 41.1715 78.3828L40.9371 78.2522C40.7417 78.1402 40.5513 78.0142 40.356 77.9022L40.146 77.7716C39.9555 77.6503 39.7602 77.5336 39.5746 77.3936L39.3793 77.263C39.1937 77.1323 39.0082 76.997 38.8226 76.8617L38.6322 76.7217C38.4515 76.5864 38.2757 76.4464 38.0999 76.3064L37.9095 76.1525C37.7385 76.0125 37.5725 75.8725 37.4114 75.7279L37.2111 75.5552C37.0549 75.4152 36.9035 75.2706 36.7472 75.126L36.5372 74.93C36.3907 74.79 36.254 74.65 36.1124 74.5054L35.8878 74.2674C35.7559 74.1321 35.6387 73.9921 35.5069 73.8521C35.4287 73.7635 35.3457 73.6795 35.2578 73.5862C35.1406 73.4555 35.0332 73.3202 34.9209 73.1849C34.8086 73.0496 34.75 72.9796 34.6718 72.877C34.5937 72.7743 34.4765 72.625 34.3788 72.499C34.2812 72.373 34.1982 72.2611 34.1151 72.1491C34.0321 72.0371 33.9442 71.9111 33.8661 71.7945C33.7879 71.6778 33.6805 71.5332 33.5926 71.4025C33.5047 71.2672 33.4461 71.1786 33.3777 71.0713C33.3094 70.9593 33.1873 70.782 33.0994 70.628C33.0359 70.5253 32.9773 70.4227 32.9187 70.3201C32.8259 70.1567 32.7283 69.9934 32.6355 69.8441C32.5867 69.7555 32.5378 69.6622 32.489 69.5688C32.3864 69.3775 32.2839 69.1909 32.1911 68.9949L32.1618 68.9343C32.0886 68.7896 32.0202 68.645 31.9518 68.5003L31.8297 68.2344L31.7077 67.9637C31.6637 67.8564 31.6198 67.7538 31.5758 67.6465L31.4782 67.4085C31.4293 67.2919 31.3854 67.1752 31.3414 67.0586L31.273 66.8766C31.2047 66.6946 31.1412 66.5033 31.0826 66.3167C31.0435 66.2047 31.0094 66.0974 30.9752 65.9854C30.9263 65.8314 30.8824 65.6681 30.8336 65.5095C30.7896 65.3462 30.7554 65.2482 30.7212 65.1175C30.6871 64.9869 30.648 64.8283 30.6089 64.679C30.5699 64.5343 30.5357 64.3943 30.5015 64.245C30.4673 64.1004 30.4429 63.9651 30.4185 63.8204C30.3892 63.6758 30.355 63.5171 30.3306 63.3678C30.3013 63.2138 30.2866 63.0785 30.2622 62.9292C30.2378 62.7846 30.2134 62.6306 30.1938 62.4813C30.1743 62.332 30.1597 62.164 30.1401 62.0054C30.1206 61.8467 30.106 61.7254 30.0962 61.5808C30.0767 61.3941 30.0669 61.2075 30.0571 61.0162C30.0571 60.8995 30.0376 60.7782 30.0327 60.6709C30.0181 60.363 30.0132 60.0597 30.0132 59.7517C30.0132 59.4438 30.0181 59.1358 30.0327 58.8325C30.0327 58.7159 30.0474 58.5946 30.0571 58.4873C30.0571 58.3006 30.0815 58.1093 30.0962 57.9227C30.0962 57.7827 30.1255 57.6427 30.1401 57.4981C30.1548 57.3581 30.1743 57.1808 30.1938 57.0222C30.2134 56.8635 30.2378 56.7189 30.2622 56.5742C30.2866 56.4249 30.3062 56.2849 30.3306 56.1356C30.355 55.991 30.3892 55.8323 30.4185 55.683C30.4478 55.5337 30.4722 55.3984 30.5015 55.2584C30.5308 55.1184 30.5699 54.9691 30.6089 54.8245C30.6431 54.6799 30.6773 54.5352 30.7212 54.3859C30.7603 54.2413 30.7945 54.1246 30.8336 53.994C30.8726 53.8633 30.9215 53.6767 30.9752 53.518C31.0094 53.4061 31.0484 53.2987 31.0826 53.1868C31.1461 53.0001 31.2096 52.8135 31.273 52.6268L31.3414 52.4449C31.3854 52.3282 31.4293 52.2116 31.4782 52.0949L31.5758 51.857C31.6198 51.7497 31.6637 51.6423 31.7077 51.5397L31.8297 51.2691L31.9518 51.0031C32.0202 50.8585 32.0886 50.7138 32.1618 50.5692L32.1911 50.5085C32.2839 50.3172 32.3864 50.1259 32.489 49.9346C32.5378 49.8413 32.5867 49.748 32.6355 49.6593C32.7234 49.496 32.8211 49.3327 32.9187 49.1834C32.9773 49.0807 33.0359 48.9781 33.0994 48.8754C33.1873 48.7261 33.285 48.5815 33.3777 48.4322C33.4705 48.2829 33.5194 48.2082 33.5926 48.1009C33.6659 47.9889 33.7733 47.8396 33.8661 47.709C33.9589 47.5783 34.0321 47.471 34.1151 47.3544C34.1982 47.2377 34.2909 47.1164 34.3788 47.0044C34.4667 46.8924 34.5742 46.7478 34.6718 46.6265C34.7695 46.5005 34.8379 46.4212 34.9209 46.3185C35.0039 46.2159 35.1455 46.0526 35.2578 45.9173C35.336 45.8286 35.419 45.7399 35.5069 45.6513C35.6338 45.5113 35.7559 45.3713 35.8878 45.236L36.1124 44.9981C36.254 44.8534 36.3908 44.7134 36.5372 44.5735L36.7521 44.3775C36.9035 44.2328 37.0598 44.0882 37.216 43.9482L37.4162 43.7756C37.5823 43.631 37.7483 43.491 37.9143 43.351L38.1048 43.197C38.2806 43.057 38.4564 42.9171 38.6371 42.7817L38.8275 42.6418C39.0131 42.5064 39.1986 42.3711 39.3842 42.2405L39.5795 42.1098C39.77 41.9792 39.9604 41.8532 40.1509 41.7319L40.3608 41.6012C40.5513 41.4799 40.7466 41.3633 40.942 41.2513L41.1763 41.1206C41.3668 41.0133 41.5572 40.906 41.7526 40.8034L42.0212 40.6681C42.2165 40.5654 42.4167 40.4674 42.6169 40.3741L42.739 40.3181L43.198 40.1081L43.3689 40.0382L43.7791 39.8655L44.1503 39.7209L44.3749 39.6322C44.5849 39.5529 44.7949 39.4782 45.0048 39.4036C45.6006 39.1983 46.211 39.021 46.8263 38.8623L46.8165 38.8297C48.7014 38.3538 50.6401 38.1158 52.5886 38.1158C52.5251 37.3692 52.4958 36.6087 52.4958 35.8482C52.4958 35.0037 52.5348 34.1778 52.613 33.3379C50.225 33.3379 47.8469 33.6318 45.537 34.2197C44.785 34.4064 44.0379 34.635 43.3103 34.8823C43.0613 34.971 42.7927 35.0643 42.5388 35.1576L42.319 35.2416L42.2116 35.2836L41.8063 35.4422C41.6305 35.5122 41.4596 35.5869 41.2935 35.6615L41.0933 35.7502C40.9077 35.8342 40.7173 35.9181 40.5317 36.0068L40.3852 36.0721C40.1362 36.1888 39.9018 36.3101 39.6625 36.4314L39.599 36.464L39.3353 36.5994C39.1009 36.7253 38.8665 36.8513 38.6321 36.982L38.5735 37.0146L38.3489 37.1406C38.0999 37.2806 37.8704 37.4252 37.636 37.5699L37.592 37.5979L37.3869 37.7239C37.1379 37.8778 36.9132 38.0318 36.6837 38.1858L36.6398 38.2138L36.4444 38.3491C36.21 38.5077 35.9854 38.6757 35.7608 38.839L35.7217 38.867L35.5313 39.0116C35.3115 39.175 35.0966 39.3476 34.8818 39.5202L34.833 39.5576L34.6523 39.7022C34.4374 39.8748 34.2372 40.0521 34.037 40.2248L33.993 40.2621L33.7928 40.4394C33.6072 40.6074 33.4168 40.78 33.2312 40.9573L33.1775 41.0087L32.9773 41.1953C32.8015 41.3679 32.6306 41.5406 32.4597 41.7179L32.4011 41.7739L32.1813 41.9978C32.03 42.1565 31.8835 42.3198 31.7321 42.4738L31.6539 42.5624L31.4244 42.819C31.3023 42.959 31.1754 43.1037 31.0631 43.2483L30.9556 43.379C30.8726 43.4816 30.7896 43.5796 30.7066 43.6822C30.6236 43.7849 30.5015 43.9482 30.3989 44.0835L30.2915 44.2188C30.2036 44.3355 30.1108 44.4568 30.0229 44.5734C29.935 44.6901 29.8569 44.8114 29.7739 44.9234L29.6665 45.0727C29.5688 45.2127 29.4711 45.348 29.3783 45.488C29.31 45.5906 29.2416 45.6979 29.1732 45.8053L29.0707 45.9639C28.973 46.1179 28.8705 46.2765 28.7728 46.4398C28.7142 46.5331 28.6556 46.6311 28.6019 46.7291L28.5433 46.8318C28.431 47.0231 28.3187 47.2144 28.2112 47.4103C28.1624 47.499 28.1185 47.583 28.0696 47.6716L28.011 47.7789C27.8938 47.9982 27.7766 48.2222 27.6643 48.4415L27.6301 48.5115C27.5471 48.6795 27.4592 48.8614 27.3811 49.0388C27.3323 49.1507 27.2834 49.2581 27.2346 49.3654C27.1858 49.4727 27.1369 49.5847 27.0881 49.6967C27.0393 49.8086 26.9758 49.9626 26.9221 50.0933L26.8 50.3825C26.7414 50.5319 26.6828 50.6718 26.6339 50.8211L26.5558 51.0358C26.4728 51.2737 26.3947 51.493 26.3068 51.7217L26.2775 51.8057C26.2433 51.913 26.2042 52.0203 26.17 52.1276C26.1163 52.3002 26.0626 52.4775 26.0138 52.6502L25.9698 52.7948C25.9308 52.9255 25.8966 53.0561 25.8575 53.1868C25.8233 53.3174 25.7843 53.476 25.7452 53.6254L25.6964 53.8167C25.6622 53.9613 25.628 54.1013 25.5938 54.2506C25.5596 54.3952 25.5352 54.5259 25.5108 54.6659L25.4717 54.8712C25.4424 55.0205 25.4131 55.1745 25.3838 55.3238C25.3545 55.4778 25.335 55.6131 25.3155 55.7577L25.2813 55.9677C25.2569 56.1123 25.2373 56.2616 25.2178 56.4063C25.1983 56.5509 25.1787 56.7235 25.1641 56.8822L25.1397 57.0968C25.125 57.2321 25.1104 57.3675 25.0957 57.5074C25.0762 57.7034 25.0664 57.8994 25.0518 58.0953V58.2773C25.0518 58.3893 25.0371 58.5013 25.0322 58.6086C25.0127 58.9912 25.0078 59.3691 25.0078 59.7331C25.0078 60.097 25.0078 60.475 25.0322 60.8529C25.0322 60.9695 25.0469 61.0909 25.0518 61.1888V61.3708C25.0518 61.5668 25.0762 61.7627 25.0957 61.9587C25.0957 62.0987 25.125 62.234 25.1397 62.3693L25.1641 62.584C25.1836 62.7426 25.1983 62.8966 25.2178 63.0599C25.2422 63.2232 25.2617 63.3538 25.2813 63.5031L25.3155 63.7131C25.3399 63.8577 25.3594 64.0024 25.3838 64.147C25.4082 64.2917 25.4424 64.4503 25.4717 64.5996L25.5108 64.7956C25.5401 64.9356 25.5645 65.0756 25.5987 65.2155C25.6329 65.3555 25.6671 65.5048 25.7012 65.6495L25.7501 65.8408C25.7843 65.9901 25.8233 66.1347 25.8624 66.284C25.9015 66.4287 25.9356 66.5453 25.9747 66.6713L26.0187 66.8159C26.0675 66.9886 26.1212 67.1659 26.1749 67.3385C26.2091 67.4458 26.2433 67.5532 26.2823 67.6605L26.3116 67.7398C26.3898 67.9778 26.4679 68.1971 26.5509 68.4257L26.6291 68.6357C26.6877 68.7943 26.7463 68.9389 26.8 69.0836L26.9221 69.3869C26.9709 69.5129 27.0295 69.6388 27.0832 69.7695C27.1369 69.9001 27.1858 70.0074 27.2346 70.1101C27.2834 70.2127 27.3323 70.3247 27.3811 70.432C27.4641 70.614 27.552 70.796 27.6301 70.9733L27.6594 71.0339C27.7718 71.2626 27.889 71.4819 28.011 71.7058L28.0696 71.8131C28.1136 71.8971 28.1575 71.9811 28.2064 72.0651C28.3187 72.2611 28.4261 72.4524 28.5384 72.639L28.597 72.7417C28.6556 72.8443 28.7142 72.9423 28.7728 73.0403C28.8656 73.1943 28.9682 73.3576 29.0707 73.5162L29.1635 73.6609C29.2319 73.7682 29.3002 73.8755 29.3735 73.9828C29.4467 74.0901 29.559 74.2534 29.6567 74.3887L29.769 74.5474C29.852 74.6687 29.9351 74.7853 30.0181 74.902C30.1011 75.0186 30.1939 75.14 30.2866 75.2519L30.399 75.3966C30.4966 75.5272 30.5992 75.6579 30.7066 75.7885C30.814 75.9192 30.8678 75.9845 30.9557 76.0871L31.0582 76.2131C31.1803 76.3624 31.3072 76.5071 31.4293 76.6517L31.654 76.8897L31.7419 76.9923C31.8884 77.151 32.03 77.3143 32.1814 77.4683L32.3962 77.6876L32.4548 77.7482C32.6355 77.9302 32.8015 78.1028 32.9725 78.2661L33.1727 78.4528L33.2264 78.5041C33.4168 78.6861 33.6073 78.8634 33.7977 79.0313L33.9931 79.204L34.0419 79.246C34.2372 79.4139 34.4374 79.5913 34.6474 79.7592L34.8281 79.9086L34.8721 79.9412C35.0967 80.1232 35.3115 80.2912 35.5313 80.4591L35.7266 80.6038L35.7706 80.6364C35.9903 80.7997 36.215 80.963 36.4445 81.1124L36.6496 81.2523L36.6886 81.2803C36.9133 81.4343 37.1477 81.5883 37.3821 81.7376L37.5969 81.8682L37.6458 81.9009C37.8753 82.0409 38.1097 82.1855 38.3489 82.3255L38.5785 82.4561L38.6322 82.4888C38.8666 82.6195 39.101 82.7501 39.3354 82.8761L39.5991 83.0114L39.6674 83.0487C39.9165 83.1747 40.1509 83.2867 40.3901 83.408L40.5269 83.4733C40.7125 83.562 40.9029 83.646 41.0933 83.7299L41.3131 83.8233L41.8112 84.0332L42.236 84.2012L42.5534 84.3225C42.8074 84.4158 43.0662 84.5091 43.325 84.5978C44.0575 84.8358 44.8046 85.0737 45.5517 85.2604L45.5419 85.2417C50.7377 86.5622 56.2315 86.4035 61.3347 84.7798C61.6082 84.6958 61.8816 84.6025 62.1502 84.5091L62.3992 84.4205L62.4969 84.3925L62.9559 84.2245L63.3368 84.0705L63.4687 84.0192L63.7324 83.9119C63.9277 83.8279 64.1182 83.7439 64.3086 83.6599L64.4746 83.5853C64.6797 83.492 64.8995 83.3893 65.1192 83.2773L65.2462 83.2167L65.5392 83.072C65.7101 82.9881 65.8713 82.8994 66.0373 82.8154L66.2131 82.7221L66.5744 82.5261L66.9407 82.3162L67.1116 82.2135C67.263 82.1249 67.4193 82.0362 67.5706 81.9429L67.8636 81.7563L67.9418 81.7049H67.9369C71.9754 79.1294 75.2373 75.5879 77.4007 71.4305L77.5179 71.1926C77.5862 71.0573 77.6644 70.8986 77.7425 70.74C77.8206 70.5813 77.8988 70.4133 77.972 70.264L78.0941 69.9981C78.1771 69.8161 78.2504 69.6388 78.3236 69.4615L78.3431 69.4148L78.4359 69.1769C78.4994 69.0182 78.5678 68.8409 78.6361 68.6636L78.7387 68.3883C78.8168 68.1737 78.8949 67.9451 78.9682 67.7211L78.9975 67.6325C79.0317 67.5298 79.0659 67.4225 79.1 67.3198C79.1538 67.1472 79.2075 66.9652 79.2563 66.7879L79.3003 66.6433C79.3393 66.5173 79.3735 66.3913 79.4077 66.2607C79.4419 66.13 79.4858 65.9574 79.5249 65.8081L79.5688 65.6308C79.603 65.4861 79.6372 65.3462 79.6714 65.1968C79.7056 65.0522 79.73 64.9215 79.7593 64.7769L79.7983 64.5856C79.813 64.5156 79.8276 64.4456 79.8374 64.3756L79.8325 64.385C78.1625 64.245 76.5066 63.9744 74.8855 63.5731Z"/>
</mask>
<path d="M74.8855 63.5731L74.8415 63.7924C74.8122 63.9324 74.7878 64.077 74.7585 64.217C74.7292 64.357 74.6902 64.5063 74.6511 64.6509C74.6169 64.7956 74.5827 64.9402 74.5388 65.0895C74.4997 65.2342 74.4655 65.3508 74.4265 65.4815C74.3874 65.6121 74.3386 65.7988 74.2848 65.9574C74.2507 66.0694 74.2116 66.1767 74.1774 66.2887C74.1188 66.4706 74.0553 66.6526 73.987 66.8346L73.9088 67.0539C73.8551 67.1985 73.7965 67.3385 73.7428 67.4831L73.65 67.7071C73.5914 67.8517 73.5279 67.9917 73.4693 68.1364L73.3668 68.3743C73.3082 68.505 73.2447 68.6356 73.1861 68.7616C73.1226 68.8923 73.0592 69.0182 72.9957 69.1442L72.9029 69.3309V69.3262C71.1302 72.7277 68.4591 75.6298 65.1532 77.7389L64.8553 77.9302C64.7137 78.0188 64.5672 78.1028 64.4207 78.1868C64.2742 78.2708 64.1716 78.3361 64.0398 78.4108C63.9079 78.4808 63.7907 78.5461 63.6637 78.6161C63.5368 78.6814 63.3561 78.7794 63.1998 78.8541L62.8873 79.008C62.6969 79.1014 62.5064 79.1947 62.316 79.2787L62.1792 79.3393C62.023 79.4093 61.8716 79.4793 61.7104 79.5446L61.437 79.6566L61.0805 79.8012L60.6752 79.9506L60.4261 80.0392C60.2064 80.1185 59.9818 80.1932 59.7571 80.2632H59.7522C58.9025 80.5338 58.0431 80.7531 57.1641 80.9257C53.7409 81.593 50.2006 81.495 46.8214 80.6411C46.2012 80.4825 45.5957 80.3005 45 80.0999C44.79 80.0252 44.58 79.9505 44.37 79.8712L44.1454 79.7826L43.7743 79.6379L43.3641 79.4653L43.1931 79.3953L42.7341 79.1853L42.612 79.1293C42.4118 79.036 42.2165 78.9334 42.0163 78.8354L41.7477 78.7001C41.5524 78.5974 41.3619 78.4901 41.1715 78.3828L40.9371 78.2522C40.7417 78.1402 40.5513 78.0142 40.356 77.9022L40.146 77.7716C39.9555 77.6503 39.7602 77.5336 39.5746 77.3936L39.3793 77.263C39.1937 77.1323 39.0082 76.997 38.8226 76.8617L38.6322 76.7217C38.4515 76.5864 38.2757 76.4464 38.0999 76.3064L37.9095 76.1525C37.7385 76.0125 37.5725 75.8725 37.4114 75.7279L37.2111 75.5552C37.0549 75.4152 36.9035 75.2706 36.7472 75.126L36.5372 74.93C36.3907 74.79 36.254 74.65 36.1124 74.5054L35.8878 74.2674C35.7559 74.1321 35.6387 73.9921 35.5069 73.8521C35.4287 73.7635 35.3457 73.6795 35.2578 73.5862C35.1406 73.4555 35.0332 73.3202 34.9209 73.1849C34.8086 73.0496 34.75 72.9796 34.6718 72.877C34.5937 72.7743 34.4765 72.625 34.3788 72.499C34.2812 72.373 34.1982 72.2611 34.1151 72.1491C34.0321 72.0371 33.9442 71.9111 33.8661 71.7945C33.7879 71.6778 33.6805 71.5332 33.5926 71.4025C33.5047 71.2672 33.4461 71.1786 33.3777 71.0713C33.3094 70.9593 33.1873 70.782 33.0994 70.628C33.0359 70.5253 32.9773 70.4227 32.9187 70.3201C32.8259 70.1567 32.7283 69.9934 32.6355 69.8441C32.5867 69.7555 32.5378 69.6622 32.489 69.5688C32.3864 69.3775 32.2839 69.1909 32.1911 68.9949L32.1618 68.9343C32.0886 68.7896 32.0202 68.645 31.9518 68.5003L31.8297 68.2344L31.7077 67.9637C31.6637 67.8564 31.6198 67.7538 31.5758 67.6465L31.4782 67.4085C31.4293 67.2919 31.3854 67.1752 31.3414 67.0586L31.273 66.8766C31.2047 66.6946 31.1412 66.5033 31.0826 66.3167C31.0435 66.2047 31.0094 66.0974 30.9752 65.9854C30.9263 65.8314 30.8824 65.6681 30.8336 65.5095C30.7896 65.3462 30.7554 65.2482 30.7212 65.1175C30.6871 64.9869 30.648 64.8283 30.6089 64.679C30.5699 64.5343 30.5357 64.3943 30.5015 64.245C30.4673 64.1004 30.4429 63.9651 30.4185 63.8204C30.3892 63.6758 30.355 63.5171 30.3306 63.3678C30.3013 63.2138 30.2866 63.0785 30.2622 62.9292C30.2378 62.7846 30.2134 62.6306 30.1938 62.4813C30.1743 62.332 30.1597 62.164 30.1401 62.0054C30.1206 61.8467 30.106 61.7254 30.0962 61.5808C30.0767 61.3941 30.0669 61.2075 30.0571 61.0162C30.0571 60.8995 30.0376 60.7782 30.0327 60.6709C30.0181 60.363 30.0132 60.0597 30.0132 59.7517C30.0132 59.4438 30.0181 59.1358 30.0327 58.8325C30.0327 58.7159 30.0474 58.5946 30.0571 58.4873C30.0571 58.3006 30.0815 58.1093 30.0962 57.9227C30.0962 57.7827 30.1255 57.6427 30.1401 57.4981C30.1548 57.3581 30.1743 57.1808 30.1938 57.0222C30.2134 56.8635 30.2378 56.7189 30.2622 56.5742C30.2866 56.4249 30.3062 56.2849 30.3306 56.1356C30.355 55.991 30.3892 55.8323 30.4185 55.683C30.4478 55.5337 30.4722 55.3984 30.5015 55.2584C30.5308 55.1184 30.5699 54.9691 30.6089 54.8245C30.6431 54.6799 30.6773 54.5352 30.7212 54.3859C30.7603 54.2413 30.7945 54.1246 30.8336 53.994C30.8726 53.8633 30.9215 53.6767 30.9752 53.518C31.0094 53.4061 31.0484 53.2987 31.0826 53.1868C31.1461 53.0001 31.2096 52.8135 31.273 52.6268L31.3414 52.4449C31.3854 52.3282 31.4293 52.2116 31.4782 52.0949L31.5758 51.857C31.6198 51.7497 31.6637 51.6423 31.7077 51.5397L31.8297 51.2691L31.9518 51.0031C32.0202 50.8585 32.0886 50.7138 32.1618 50.5692L32.1911 50.5085C32.2839 50.3172 32.3864 50.1259 32.489 49.9346C32.5378 49.8413 32.5867 49.748 32.6355 49.6593C32.7234 49.496 32.8211 49.3327 32.9187 49.1834C32.9773 49.0807 33.0359 48.9781 33.0994 48.8754C33.1873 48.7261 33.285 48.5815 33.3777 48.4322C33.4705 48.2829 33.5194 48.2082 33.5926 48.1009C33.6659 47.9889 33.7733 47.8396 33.8661 47.709C33.9589 47.5783 34.0321 47.471 34.1151 47.3544C34.1982 47.2377 34.2909 47.1164 34.3788 47.0044C34.4667 46.8924 34.5742 46.7478 34.6718 46.6265C34.7695 46.5005 34.8379 46.4212 34.9209 46.3185C35.0039 46.2159 35.1455 46.0526 35.2578 45.9173C35.336 45.8286 35.419 45.7399 35.5069 45.6513C35.6338 45.5113 35.7559 45.3713 35.8878 45.236L36.1124 44.9981C36.254 44.8534 36.3908 44.7134 36.5372 44.5735L36.7521 44.3775C36.9035 44.2328 37.0598 44.0882 37.216 43.9482L37.4162 43.7756C37.5823 43.631 37.7483 43.491 37.9143 43.351L38.1048 43.197C38.2806 43.057 38.4564 42.9171 38.6371 42.7817L38.8275 42.6418C39.0131 42.5064 39.1986 42.3711 39.3842 42.2405L39.5795 42.1098C39.77 41.9792 39.9604 41.8532 40.1509 41.7319L40.3608 41.6012C40.5513 41.4799 40.7466 41.3633 40.942 41.2513L41.1763 41.1206C41.3668 41.0133 41.5572 40.906 41.7526 40.8034L42.0212 40.6681C42.2165 40.5654 42.4167 40.4674 42.6169 40.3741L42.739 40.3181L43.198 40.1081L43.3689 40.0382L43.7791 39.8655L44.1503 39.7209L44.3749 39.6322C44.5849 39.5529 44.7949 39.4782 45.0048 39.4036C45.6006 39.1983 46.211 39.021 46.8263 38.8623L46.8165 38.8297C48.7014 38.3538 50.6401 38.1158 52.5886 38.1158C52.5251 37.3692 52.4958 36.6087 52.4958 35.8482C52.4958 35.0037 52.5348 34.1778 52.613 33.3379C50.225 33.3379 47.8469 33.6318 45.537 34.2197C44.785 34.4064 44.0379 34.635 43.3103 34.8823C43.0613 34.971 42.7927 35.0643 42.5388 35.1576L42.319 35.2416L42.2116 35.2836L41.8063 35.4422C41.6305 35.5122 41.4596 35.5869 41.2935 35.6615L41.0933 35.7502C40.9077 35.8342 40.7173 35.9181 40.5317 36.0068L40.3852 36.0721C40.1362 36.1888 39.9018 36.3101 39.6625 36.4314L39.599 36.464L39.3353 36.5994C39.1009 36.7253 38.8665 36.8513 38.6321 36.982L38.5735 37.0146L38.3489 37.1406C38.0999 37.2806 37.8704 37.4252 37.636 37.5699L37.592 37.5979L37.3869 37.7239C37.1379 37.8778 36.9132 38.0318 36.6837 38.1858L36.6398 38.2138L36.4444 38.3491C36.21 38.5077 35.9854 38.6757 35.7608 38.839L35.7217 38.867L35.5313 39.0116C35.3115 39.175 35.0966 39.3476 34.8818 39.5202L34.833 39.5576L34.6523 39.7022C34.4374 39.8748 34.2372 40.0521 34.037 40.2248L33.993 40.2621L33.7928 40.4394C33.6072 40.6074 33.4168 40.78 33.2312 40.9573L33.1775 41.0087L32.9773 41.1953C32.8015 41.3679 32.6306 41.5406 32.4597 41.7179L32.4011 41.7739L32.1813 41.9978C32.03 42.1565 31.8835 42.3198 31.7321 42.4738L31.6539 42.5624L31.4244 42.819C31.3023 42.959 31.1754 43.1037 31.0631 43.2483L30.9556 43.379C30.8726 43.4816 30.7896 43.5796 30.7066 43.6822C30.6236 43.7849 30.5015 43.9482 30.3989 44.0835L30.2915 44.2188C30.2036 44.3355 30.1108 44.4568 30.0229 44.5734C29.935 44.6901 29.8569 44.8114 29.7739 44.9234L29.6665 45.0727C29.5688 45.2127 29.4711 45.348 29.3783 45.488C29.31 45.5906 29.2416 45.6979 29.1732 45.8053L29.0707 45.9639C28.973 46.1179 28.8705 46.2765 28.7728 46.4398C28.7142 46.5331 28.6556 46.6311 28.6019 46.7291L28.5433 46.8318C28.431 47.0231 28.3187 47.2144 28.2112 47.4103C28.1624 47.499 28.1185 47.583 28.0696 47.6716L28.011 47.7789C27.8938 47.9982 27.7766 48.2222 27.6643 48.4415L27.6301 48.5115C27.5471 48.6795 27.4592 48.8614 27.3811 49.0388C27.3323 49.1507 27.2834 49.2581 27.2346 49.3654C27.1858 49.4727 27.1369 49.5847 27.0881 49.6967C27.0393 49.8086 26.9758 49.9626 26.9221 50.0933L26.8 50.3825C26.7414 50.5319 26.6828 50.6718 26.6339 50.8211L26.5558 51.0358C26.4728 51.2737 26.3947 51.493 26.3068 51.7217L26.2775 51.8057C26.2433 51.913 26.2042 52.0203 26.17 52.1276C26.1163 52.3002 26.0626 52.4775 26.0138 52.6502L25.9698 52.7948C25.9308 52.9255 25.8966 53.0561 25.8575 53.1868C25.8233 53.3174 25.7843 53.476 25.7452 53.6254L25.6964 53.8167C25.6622 53.9613 25.628 54.1013 25.5938 54.2506C25.5596 54.3952 25.5352 54.5259 25.5108 54.6659L25.4717 54.8712C25.4424 55.0205 25.4131 55.1745 25.3838 55.3238C25.3545 55.4778 25.335 55.6131 25.3155 55.7577L25.2813 55.9677C25.2569 56.1123 25.2373 56.2616 25.2178 56.4063C25.1983 56.5509 25.1787 56.7235 25.1641 56.8822L25.1397 57.0968C25.125 57.2321 25.1104 57.3675 25.0957 57.5074C25.0762 57.7034 25.0664 57.8994 25.0518 58.0953V58.2773C25.0518 58.3893 25.0371 58.5013 25.0322 58.6086C25.0127 58.9912 25.0078 59.3691 25.0078 59.7331C25.0078 60.097 25.0078 60.475 25.0322 60.8529C25.0322 60.9695 25.0469 61.0909 25.0518 61.1888V61.3708C25.0518 61.5668 25.0762 61.7627 25.0957 61.9587C25.0957 62.0987 25.125 62.234 25.1397 62.3693L25.1641 62.584C25.1836 62.7426 25.1983 62.8966 25.2178 63.0599C25.2422 63.2232 25.2617 63.3538 25.2813 63.5031L25.3155 63.7131C25.3399 63.8577 25.3594 64.0024 25.3838 64.147C25.4082 64.2917 25.4424 64.4503 25.4717 64.5996L25.5108 64.7956C25.5401 64.9356 25.5645 65.0756 25.5987 65.2155C25.6329 65.3555 25.6671 65.5048 25.7012 65.6495L25.7501 65.8408C25.7843 65.9901 25.8233 66.1347 25.8624 66.284C25.9015 66.4287 25.9356 66.5453 25.9747 66.6713L26.0187 66.8159C26.0675 66.9886 26.1212 67.1659 26.1749 67.3385C26.2091 67.4458 26.2433 67.5532 26.2823 67.6605L26.3116 67.7398C26.3898 67.9778 26.4679 68.1971 26.5509 68.4257L26.6291 68.6357C26.6877 68.7943 26.7463 68.9389 26.8 69.0836L26.9221 69.3869C26.9709 69.5129 27.0295 69.6388 27.0832 69.7695C27.1369 69.9001 27.1858 70.0074 27.2346 70.1101C27.2834 70.2127 27.3323 70.3247 27.3811 70.432C27.4641 70.614 27.552 70.796 27.6301 70.9733L27.6594 71.0339C27.7718 71.2626 27.889 71.4819 28.011 71.7058L28.0696 71.8131C28.1136 71.8971 28.1575 71.9811 28.2064 72.0651C28.3187 72.2611 28.4261 72.4524 28.5384 72.639L28.597 72.7417C28.6556 72.8443 28.7142 72.9423 28.7728 73.0403C28.8656 73.1943 28.9682 73.3576 29.0707 73.5162L29.1635 73.6609C29.2319 73.7682 29.3002 73.8755 29.3735 73.9828C29.4467 74.0901 29.559 74.2534 29.6567 74.3887L29.769 74.5474C29.852 74.6687 29.9351 74.7853 30.0181 74.902C30.1011 75.0186 30.1939 75.14 30.2866 75.2519L30.399 75.3966C30.4966 75.5272 30.5992 75.6579 30.7066 75.7885C30.814 75.9192 30.8678 75.9845 30.9557 76.0871L31.0582 76.2131C31.1803 76.3624 31.3072 76.5071 31.4293 76.6517L31.654 76.8897L31.7419 76.9923C31.8884 77.151 32.03 77.3143 32.1814 77.4683L32.3962 77.6876L32.4548 77.7482C32.6355 77.9302 32.8015 78.1028 32.9725 78.2661L33.1727 78.4528L33.2264 78.5041C33.4168 78.6861 33.6073 78.8634 33.7977 79.0313L33.9931 79.204L34.0419 79.246C34.2372 79.4139 34.4374 79.5913 34.6474 79.7592L34.8281 79.9086L34.8721 79.9412C35.0967 80.1232 35.3115 80.2912 35.5313 80.4591L35.7266 80.6038L35.7706 80.6364C35.9903 80.7997 36.215 80.963 36.4445 81.1124L36.6496 81.2523L36.6886 81.2803C36.9133 81.4343 37.1477 81.5883 37.3821 81.7376L37.5969 81.8682L37.6458 81.9009C37.8753 82.0409 38.1097 82.1855 38.3489 82.3255L38.5785 82.4561L38.6322 82.4888C38.8666 82.6195 39.101 82.7501 39.3354 82.8761L39.5991 83.0114L39.6674 83.0487C39.9165 83.1747 40.1509 83.2867 40.3901 83.408L40.5269 83.4733C40.7125 83.562 40.9029 83.646 41.0933 83.7299L41.3131 83.8233L41.8112 84.0332L42.236 84.2012L42.5534 84.3225C42.8074 84.4158 43.0662 84.5091 43.325 84.5978C44.0575 84.8358 44.8046 85.0737 45.5517 85.2604L45.5419 85.2417C50.7377 86.5622 56.2315 86.4035 61.3347 84.7798C61.6082 84.6958 61.8816 84.6025 62.1502 84.5091L62.3992 84.4205L62.4969 84.3925L62.9559 84.2245L63.3368 84.0705L63.4687 84.0192L63.7324 83.9119C63.9277 83.8279 64.1182 83.7439 64.3086 83.6599L64.4746 83.5853C64.6797 83.492 64.8995 83.3893 65.1192 83.2773L65.2462 83.2167L65.5392 83.072C65.7101 82.9881 65.8713 82.8994 66.0373 82.8154L66.2131 82.7221L66.5744 82.5261L66.9407 82.3162L67.1116 82.2135C67.263 82.1249 67.4193 82.0362 67.5706 81.9429L67.8636 81.7563L67.9418 81.7049H67.9369C71.9754 79.1294 75.2373 75.5879 77.4007 71.4305L77.5179 71.1926C77.5862 71.0573 77.6644 70.8986 77.7425 70.74C77.8206 70.5813 77.8988 70.4133 77.972 70.264L78.0941 69.9981C78.1771 69.8161 78.2504 69.6388 78.3236 69.4615L78.3431 69.4148L78.4359 69.1769C78.4994 69.0182 78.5678 68.8409 78.6361 68.6636L78.7387 68.3883C78.8168 68.1737 78.8949 67.9451 78.9682 67.7211L78.9975 67.6325C79.0317 67.5298 79.0659 67.4225 79.1 67.3198C79.1538 67.1472 79.2075 66.9652 79.2563 66.7879L79.3003 66.6433C79.3393 66.5173 79.3735 66.3913 79.4077 66.2607C79.4419 66.13 79.4858 65.9574 79.5249 65.8081L79.5688 65.6308C79.603 65.4861 79.6372 65.3462 79.6714 65.1968C79.7056 65.0522 79.73 64.9215 79.7593 64.7769L79.7983 64.5856C79.813 64.5156 79.8276 64.4456 79.8374 64.3756L79.8325 64.385C78.1625 64.245 76.5066 63.9744 74.8855 63.5731Z" fill="white" stroke="white" stroke-width="2" mask="url(#path-6-inside-1_14_2828)"/>
<mask id="path-7-inside-2_14_2828" fill="white">
<path d="M105.235 58.5575C105.235 58.3475 105.235 58.1422 105.215 57.9322C105.215 57.8296 105.215 57.7269 105.201 57.6243C105.201 57.4283 105.181 57.237 105.171 57.041C105.171 56.9337 105.157 56.8264 105.152 56.7238C105.152 56.5371 105.128 56.3458 105.113 56.1545C105.113 56.0425 105.093 55.9352 105.084 55.8279C105.069 55.6459 105.054 55.4593 105.035 55.2727C105.035 55.156 105.01 55.0347 105.001 54.9321L104.986 54.7921L104.996 54.7967C103.575 56.3412 101.983 57.7362 100.249 58.9541V59.7287V60.5452V60.7832C100.249 60.9745 100.249 61.1658 100.234 61.3524L100.22 61.6837C100.22 61.8283 100.22 61.973 100.2 62.1223H94.5015C91.4592 63.3914 88.2168 64.1659 84.9058 64.4179L84.6226 65.8317L84.5591 66.1117C83.7094 70.0358 82.0638 73.7637 79.7247 77.0859L77.4296 80.3475L87.8749 90.3279C86.8104 91.4431 85.6872 92.5115 84.5104 93.5334L74.0601 83.5483L70.6515 85.7179H70.6467C67.1404 87.9529 63.2046 89.5067 59.0733 90.2905L58.6094 90.3792L54.7468 91.0791V105.175C54.3122 105.194 53.8776 105.203 53.4429 105.212H52.6225C51.7484 105.212 50.8744 105.189 49.9953 105.142V91.0416L45.9959 90.2578C45.7322 90.2064 45.4685 90.1504 45.2097 90.0944L44.78 89.9918L44.4284 89.9125L43.9303 89.7818L43.6568 89.7118L43.4712 89.6605L43.1636 89.5719L42.895 89.4972L42.1381 89.2639L41.7279 89.1239L41.3812 89.0073L41.015 88.872L40.639 88.7367L40.2874 88.6013L39.9065 88.452L39.5646 88.3074L39.1837 88.1488L38.8175 87.9854L38.4659 87.8268L38.0899 87.6495L37.7627 87.4955L37.3623 87.2949L37.0742 87.1502L36.8593 87.0383L36.6102 86.9076L36.3758 86.7816L36.0828 86.6183L35.7068 86.4037L35.3259 86.1797L35.0574 86.0211C34.8913 85.9184 34.7253 85.8111 34.5593 85.7085L34.4469 85.6385L31.0286 83.4221L20.5784 93.4072L20.2707 93.1413L20.0217 92.922C19.8166 92.74 19.6164 92.5487 19.4162 92.3621L19.0646 92.0355C18.9815 91.9608 18.8985 91.8815 18.8155 91.7975C18.6299 91.6202 18.4493 91.4382 18.2686 91.2562L17.9072 90.897L17.6582 90.6404C17.4873 90.4677 17.3212 90.2857 17.1601 90.1084L17.1112 90.0571L27.581 80.0906L25.3298 76.8384L25.1882 76.6285L24.9684 76.3019C24.8756 76.1572 24.778 76.0079 24.6852 75.8586L24.568 75.6766C24.4703 75.5227 24.3775 75.3687 24.2848 75.2147L24.1724 75.0281C24.0846 74.8787 23.9967 74.7248 23.9087 74.5661L23.8013 74.3795C23.7183 74.2255 23.6304 74.0669 23.5523 73.9036L23.4448 73.7123C23.3667 73.5583 23.2837 73.4043 23.1958 73.2457L23.0884 73.0357C23.0151 72.8864 22.9419 72.7324 22.8686 72.5785L22.7612 72.3592C22.6928 72.2052 22.6244 72.0559 22.5561 71.9019L22.4487 71.6639C22.3852 71.5146 22.3217 71.37 22.2631 71.2207L22.1557 70.9641C22.0971 70.8194 22.0385 70.6748 21.9847 70.5301L21.8773 70.2548C21.8236 70.1149 21.7748 69.9749 21.7259 69.8349L21.6185 69.541C21.5745 69.4103 21.5306 69.2843 21.4866 69.1584L21.3743 68.8177C21.3353 68.6918 21.2962 68.5658 21.2571 68.4398C21.2571 68.4398 21.1741 68.1692 21.1497 68.0898C21.1106 67.9639 21.0765 67.8379 21.0423 67.7119C21.0423 67.7119 20.969 67.4366 20.9446 67.3526C20.9104 67.222 20.8762 67.0867 20.8469 66.9514C20.8469 66.9514 20.7835 66.6901 20.7639 66.6107C20.7297 66.4754 20.7004 66.3354 20.6711 66.1955L20.6174 65.9575L19.8068 62.1361H15.7147L5.05452 62.1221C5.05452 61.9868 5.03987 61.8468 5.03499 61.7069L5.02034 61.3522C5.02034 61.1796 5.02034 61.007 5.00569 60.8343V60.5497V59.7332V58.9166V58.6274C5.00569 58.4547 5.00569 58.2774 5.02034 58.1048L5.03499 57.7548C5.03499 57.6148 5.03499 57.4795 5.05452 57.3396H19.8309L20.6367 53.5042L20.6904 53.2662C20.7246 53.1216 20.7539 52.9863 20.7832 52.8416C20.8027 52.7623 20.8613 52.5104 20.8613 52.5104C20.8955 52.3657 20.9297 52.2351 20.9687 52.0951C20.9883 52.0158 21.0664 51.7312 21.0664 51.7312C21.1006 51.6052 21.1348 51.4932 21.1738 51.3579C21.1982 51.2832 21.2666 51.0406 21.2666 51.0406C21.3106 50.8913 21.3496 50.7606 21.3936 50.63L21.4961 50.3174C21.5449 50.1681 21.5889 50.0374 21.6329 49.9021L21.7403 49.6082C21.7891 49.4682 21.8379 49.3235 21.8965 49.1836L22.004 48.9083C22.0577 48.7636 22.1163 48.619 22.1749 48.4743L22.2823 48.2177C22.3409 48.0684 22.4044 47.9238 22.4679 47.7745L22.5753 47.5365C22.6437 47.3825 22.7121 47.2285 22.7804 47.0839L22.8879 46.8599C22.9611 46.7059 23.0344 46.5473 23.1125 46.398L23.215 46.1927C23.2932 46.0341 23.3762 45.8754 23.4641 45.7168L23.5715 45.5255C23.6545 45.3668 23.7375 45.2128 23.8206 45.0495L23.9231 44.8722C24.011 44.7136 24.1038 44.5549 24.1966 44.3963L24.304 44.219C24.3968 44.065 24.4896 43.911 24.5824 43.7571L24.6996 43.5798C24.7972 43.4258 24.89 43.2765 24.9877 43.1272L25.2074 42.8005L25.349 42.5906L27.6002 39.3384L17.15 29.3533L17.194 29.3019C17.36 29.1246 17.526 28.9427 17.6921 28.7654C17.7751 28.6814 17.863 28.5974 17.9411 28.5087L18.2976 28.1541C18.4783 27.9721 18.6589 27.7902 18.8494 27.6082L19.0984 27.3702L19.4598 27.0343C19.6551 26.8523 19.8505 26.6657 20.0556 26.4837L20.3046 26.2644L20.6123 25.9985L31.0527 35.9742L34.4662 33.7813L34.5834 33.7113C34.7494 33.604 34.9155 33.5014 35.0815 33.3987L35.3305 33.2447L35.7261 33.0068L36.107 32.7875L36.3902 32.6288L36.6246 32.5028L36.8541 32.3815L37.069 32.2695L37.3669 32.1202L37.7624 31.9243L38.1189 31.7516L38.4656 31.5883L38.8367 31.4204L39.1786 31.2664L39.5595 31.1077L39.9013 30.9678L40.2871 30.8138L40.6338 30.6785L41.0049 30.5432L41.3809 30.4078L41.7081 30.2959L42.1378 30.1512L42.4309 30.0626L42.8948 29.9179L43.1682 29.8386L43.6663 29.6986L43.9349 29.6286L44.433 29.498L44.7699 29.4187L45.2143 29.316C45.4731 29.26 45.7368 29.204 46.0005 29.1527L49.9999 28.3688L50.0048 14.2824C50.8789 14.2357 51.753 14.2124 52.632 14.2124H53.4524C53.887 14.2124 54.3216 14.231 54.7563 14.2497V24.9207H54.7514C55.9722 22.0931 57.6618 19.4662 59.7519 17.1426V9.89178C58.8778 9.7798 57.9989 9.68647 57.11 9.61649C56.5191 9.56983 55.9234 9.5325 55.3276 9.49984C54.7318 9.47184 54.1312 9.45318 53.5306 9.44385H52.6271C50.078 9.44385 47.529 9.62116 45.0043 9.9711V24.5198C44.7015 24.5805 44.3939 24.6411 44.096 24.7065L43.7395 24.7905L43.1926 24.9164L42.7922 25.0191L42.2941 25.1497L41.8936 25.2664L41.4102 25.4064L41.0293 25.5277L40.5312 25.6817L40.1747 25.803L39.662 25.9756L39.3299 26.0969L38.8025 26.2882L38.4802 26.4142L37.9528 26.6242L37.6403 26.7548L37.1178 26.9741L36.8004 27.1141L36.3023 27.3521L35.9751 27.506L35.4917 27.744L35.1449 27.9166L34.6957 28.1546L34.3148 28.3599L33.9144 28.5746L33.4846 28.8125L33.1477 29.0038L32.6496 29.2978L32.4005 29.4518C32.2101 29.5684 32.0196 29.6897 31.8292 29.811L31.6925 29.895L20.9394 19.6206L20.7978 19.7279C20.5341 19.9192 20.2753 20.1198 20.0165 20.3158C19.8212 20.4651 19.6258 20.6051 19.4305 20.7591C19.1375 20.997 18.8494 21.235 18.5564 21.4636C18.3757 21.6083 18.195 21.7529 18.0144 21.9022C17.7262 22.1402 17.443 22.3782 17.1598 22.6395C16.9889 22.7888 16.8131 22.9381 16.6422 23.0921C16.3687 23.33 16.0952 23.596 15.8267 23.8479C15.6557 24.0066 15.4848 24.1652 15.3286 24.3239C15.0795 24.5758 14.8158 24.8324 14.557 25.0891C14.3861 25.257 14.2103 25.4297 14.0589 25.6023C13.8099 25.8589 13.5706 26.1202 13.3313 26.3769C13.1653 26.5588 12.9895 26.7361 12.8332 26.9181C12.5842 27.1841 12.3644 27.4547 12.13 27.7253C11.9689 27.9073 11.8077 28.0893 11.6515 28.2759C11.4122 28.5559 11.1827 28.8451 10.9531 29.1344C10.8213 29.2977 10.6846 29.4564 10.5576 29.6103L10.4453 29.7457L21.2129 40.034C21.125 40.1647 21.0371 40.2953 20.9492 40.426L20.7979 40.6546C20.6855 40.8226 20.5732 40.9952 20.4658 41.1679L20.3291 41.3825C20.2167 41.5598 20.1093 41.7371 20.0019 41.9144L19.8749 42.1244C19.7675 42.3017 19.6649 42.4837 19.5624 42.6656L19.4403 42.8803C19.3426 43.0576 19.245 43.2395 19.1473 43.4215L19.0252 43.6455C18.9324 43.8228 18.8397 44.0047 18.7469 44.1867L18.6248 44.4247C18.5369 44.602 18.4539 44.7793 18.3757 44.9566L18.2537 45.2132C18.1755 45.3858 18.0974 45.5631 18.0193 45.7358L17.8972 46.0111C17.8239 46.179 17.7507 46.3517 17.6823 46.5243L17.5602 46.8183C17.4919 46.9816 17.4284 47.1496 17.3649 47.3175C17.3258 47.4249 17.2819 47.5275 17.2428 47.6348C17.1842 47.7981 17.1207 47.9614 17.067 48.1247C17.028 48.2367 16.9889 48.3487 16.9449 48.4607C16.8912 48.6193 16.8375 48.7826 16.7838 48.9366C16.7447 49.0579 16.7057 49.1746 16.6666 49.2912C16.6178 49.4499 16.5689 49.6085 16.5201 49.7672C16.4713 49.9305 16.4468 50.0051 16.4078 50.1358C16.3736 50.2664 16.3199 50.453 16.2759 50.6117C16.232 50.775 16.2076 50.8637 16.1734 50.9896C16.1392 51.1156 16.0952 51.3069 16.0513 51.4656C16.0122 51.6242 15.9878 51.7175 15.9585 51.8482C15.9292 51.9788 15.8853 52.1701 15.8462 52.3241C15.8267 52.4174 15.8022 52.5061 15.7827 52.5994L0.522511 52.5947C0.522511 52.674 0.498095 52.7534 0.488329 52.8327L0.444379 53.1686C0.429729 53.2806 0.405312 53.4393 0.390662 53.5746C0.37113 53.7099 0.351596 53.9058 0.332064 54.0738C0.317414 54.1951 0.302764 54.3118 0.288114 54.4378C0.268581 54.6151 0.249047 54.7924 0.234397 54.9697C0.234397 55.0863 0.209981 55.2076 0.200216 55.3103C0.180682 55.4923 0.166032 55.6789 0.151382 55.8655C0.151382 55.9775 0.131849 56.0848 0.122083 56.1922C0.107433 56.3788 0.097667 56.5701 0.0830169 56.7614C0.0830169 56.8687 0.0683667 56.976 0.0634838 57.0787C0.0634838 57.27 0.0439507 57.4659 0.0341835 57.6619C0.0341835 57.7646 0.0341832 57.8672 0.0195343 57.9699C0.0195343 58.1798 0.0195344 58.3851 0 58.5951V58.8657V59.7616V60.6574V60.928C0 61.138 -5.82132e-08 61.3433 0.0195343 61.5533C0.0195343 61.6559 0.0195346 61.7586 0.0341835 61.8612C0.0341835 62.0572 0.0537166 62.2485 0.0634838 62.4445C0.0634838 62.5518 0.0781327 62.6591 0.0830169 62.7618C0.0830169 62.9484 0.107433 63.1397 0.122083 63.331C0.122083 63.443 0.141616 63.5503 0.151382 63.6576C0.166032 63.8396 0.180682 64.0262 0.200216 64.2129C0.200216 64.3295 0.224631 64.4508 0.234397 64.5535C0.253932 64.7308 0.268581 64.9081 0.288114 65.0854C0.302764 65.2067 0.317414 65.3233 0.332064 65.4493C0.351596 65.6173 0.37113 65.7806 0.390662 65.9486C0.410196 66.1166 0.429729 66.2192 0.444379 66.3545C0.463912 66.4898 0.473679 66.5785 0.488329 66.6905C0.488329 66.7698 0.512745 66.8491 0.522511 66.9284L15.744 66.9238C15.7635 67.0171 15.7879 67.1057 15.8074 67.1991C15.8416 67.3624 15.8758 67.521 15.9198 67.675C15.9588 67.829 15.9832 67.9269 16.0125 68.0576C16.0418 68.1882 16.0907 68.3749 16.1346 68.5335C16.1786 68.6922 16.203 68.7855 16.2372 68.9115C16.2713 69.0374 16.3251 69.2287 16.369 69.3874C16.413 69.5507 16.4423 69.6253 16.4813 69.756C16.5204 69.8866 16.5741 70.0733 16.6278 70.2319C16.6669 70.3532 16.706 70.4699 16.745 70.5865C16.7987 70.7452 16.8525 70.9085 16.9062 71.0625C16.9453 71.1744 16.9843 71.2864 17.0283 71.3984C17.0869 71.5617 17.1455 71.725 17.2041 71.8883C17.2431 71.9956 17.2871 72.103 17.3261 72.2056C17.3896 72.3736 17.458 72.5416 17.5215 72.7049C17.5605 72.8075 17.6045 72.9008 17.6436 73.0035C17.7119 73.1715 17.7852 73.3441 17.8584 73.5168L17.9805 73.792C18.0586 73.9647 18.1368 74.142 18.2149 74.3146L18.337 74.5712C18.42 74.7486 18.5079 74.9259 18.586 75.1032L18.7081 75.3411C18.796 75.5184 18.8888 75.7004 18.9865 75.8824L19.1085 76.1063C19.2062 76.2883 19.3039 76.4703 19.4016 76.6476L19.5236 76.8622C19.6262 77.0442 19.7287 77.2262 19.8362 77.4035L19.9631 77.6134C20.0706 77.7907 20.178 77.968 20.2903 78.1453L20.427 78.36C20.5394 78.5326 20.6468 78.7052 20.7591 78.8732L20.9105 79.1019C20.9984 79.2325 21.0863 79.3632 21.1742 79.4938L10.3919 89.7495L10.4896 89.8848C10.6214 90.0481 10.7533 90.2067 10.8851 90.3607C11.1146 90.6453 11.3442 90.9346 11.5834 91.2192C11.7397 91.4059 11.9057 91.5878 12.062 91.7698C12.2964 92.0404 12.5259 92.3111 12.7652 92.577C12.9312 92.759 13.1021 92.9363 13.2633 93.1183C13.5123 93.3795 13.7467 93.6408 13.9909 93.8928C14.1569 94.0654 14.3327 94.2334 14.489 94.4061C14.738 94.6627 14.9871 94.9193 15.2605 95.1713C15.4266 95.3346 15.6024 95.4885 15.7586 95.6472C16.0272 95.8992 16.3007 96.1558 16.5741 96.4031C16.7451 96.557 16.9208 96.7064 17.0918 96.8557C17.375 97.0936 17.6582 97.3502 17.9463 97.5929C18.1221 97.7422 18.3077 97.8822 18.4884 98.0315C18.7765 98.2694 19.0646 98.5074 19.3625 98.736C19.5529 98.8853 19.7531 99.03 19.9485 99.1793C20.1975 99.3753 20.4661 99.5759 20.7298 99.7672L20.8714 99.8745L31.6244 89.6001L31.7612 89.6841C31.9516 89.8054 32.1421 89.922 32.3325 90.0434L32.5815 90.1973L33.0796 90.4913L33.4166 90.6826L33.8463 90.9206L34.2467 91.1352L34.6276 91.3405L35.0769 91.5785L35.4236 91.7511L35.9071 91.9891L36.2342 92.143L36.7323 92.381L37.0498 92.521L37.5723 92.7403L37.8848 92.8709L38.4122 93.0809L38.7345 93.2069L39.2619 93.3982L39.5939 93.5195L40.1067 93.6921L40.4632 93.8135L40.9613 93.9674L41.3422 94.0888L41.8256 94.2287L42.226 94.3454L42.7241 94.476L43.1246 94.5787L43.6715 94.7047L44.028 94.7886C44.3307 94.854 44.6335 94.9193 44.9363 94.9753L44.946 109.477C47.4706 109.827 50.0198 110 52.5738 110H53.4772C55.577 109.972 57.6671 109.823 59.7473 109.557V95.0367L60.0549 94.976C64.8259 94.0615 69.3673 92.2652 73.4199 89.6895L84.1729 99.9639V99.9593C88.1236 97.127 91.6444 93.7769 94.6232 90.0115L83.8702 79.7371C86.5707 75.9018 88.4653 71.6044 89.4517 67.0781C89.4663 67.0174 89.481 66.9521 89.4908 66.8914H104.712C104.712 66.8121 104.737 66.7328 104.746 66.6535C104.761 66.5415 104.776 66.4295 104.79 66.3175C104.805 66.2055 104.829 66.0469 104.844 65.9116C104.864 65.7763 104.883 65.5803 104.903 65.4123C104.917 65.291 104.932 65.1744 104.947 65.0484C104.966 64.8711 104.986 64.6938 105 64.5165C105 64.3998 105.025 64.2785 105.035 64.1758C105.054 63.9939 105.069 63.8072 105.083 63.6206C105.083 63.5086 105.103 63.4013 105.113 63.294C105.127 63.1074 105.137 62.916 105.152 62.7248C105.152 62.6174 105.166 62.5101 105.171 62.4075C105.171 62.2162 105.191 62.0202 105.201 61.8242C105.201 61.7216 105.201 61.6189 105.215 61.5163C105.215 61.3063 105.215 61.101 105.235 60.891V60.6204V59.7246V58.8287C105.249 58.74 105.24 58.6508 105.235 58.5575Z"/>
</mask>
<path d="M105.235 58.5575C105.235 58.3475 105.235 58.1422 105.215 57.9322C105.215 57.8296 105.215 57.7269 105.201 57.6243C105.201 57.4283 105.181 57.237 105.171 57.041C105.171 56.9337 105.157 56.8264 105.152 56.7238C105.152 56.5371 105.128 56.3458 105.113 56.1545C105.113 56.0425 105.093 55.9352 105.084 55.8279C105.069 55.6459 105.054 55.4593 105.035 55.2727C105.035 55.156 105.01 55.0347 105.001 54.9321L104.986 54.7921L104.996 54.7967C103.575 56.3412 101.983 57.7362 100.249 58.9541V59.7287V60.5452V60.7832C100.249 60.9745 100.249 61.1658 100.234 61.3524L100.22 61.6837C100.22 61.8283 100.22 61.973 100.2 62.1223H94.5015C91.4592 63.3914 88.2168 64.1659 84.9058 64.4179L84.6226 65.8317L84.5591 66.1117C83.7094 70.0358 82.0638 73.7637 79.7247 77.0859L77.4296 80.3475L87.8749 90.3279C86.8104 91.4431 85.6872 92.5115 84.5104 93.5334L74.0601 83.5483L70.6515 85.7179H70.6467C67.1404 87.9529 63.2046 89.5067 59.0733 90.2905L58.6094 90.3792L54.7468 91.0791V105.175C54.3122 105.194 53.8776 105.203 53.4429 105.212H52.6225C51.7484 105.212 50.8744 105.189 49.9953 105.142V91.0416L45.9959 90.2578C45.7322 90.2064 45.4685 90.1504 45.2097 90.0944L44.78 89.9918L44.4284 89.9125L43.9303 89.7818L43.6568 89.7118L43.4712 89.6605L43.1636 89.5719L42.895 89.4972L42.1381 89.2639L41.7279 89.1239L41.3812 89.0073L41.015 88.872L40.639 88.7367L40.2874 88.6013L39.9065 88.452L39.5646 88.3074L39.1837 88.1488L38.8175 87.9854L38.4659 87.8268L38.0899 87.6495L37.7627 87.4955L37.3623 87.2949L37.0742 87.1502L36.8593 87.0383L36.6102 86.9076L36.3758 86.7816L36.0828 86.6183L35.7068 86.4037L35.3259 86.1797L35.0574 86.0211C34.8913 85.9184 34.7253 85.8111 34.5593 85.7085L34.4469 85.6385L31.0286 83.4221L20.5784 93.4072L20.2707 93.1413L20.0217 92.922C19.8166 92.74 19.6164 92.5487 19.4162 92.3621L19.0646 92.0355C18.9815 91.9608 18.8985 91.8815 18.8155 91.7975C18.6299 91.6202 18.4493 91.4382 18.2686 91.2562L17.9072 90.897L17.6582 90.6404C17.4873 90.4677 17.3212 90.2857 17.1601 90.1084L17.1112 90.0571L27.581 80.0906L25.3298 76.8384L25.1882 76.6285L24.9684 76.3019C24.8756 76.1572 24.778 76.0079 24.6852 75.8586L24.568 75.6766C24.4703 75.5227 24.3775 75.3687 24.2848 75.2147L24.1724 75.0281C24.0846 74.8787 23.9967 74.7248 23.9087 74.5661L23.8013 74.3795C23.7183 74.2255 23.6304 74.0669 23.5523 73.9036L23.4448 73.7123C23.3667 73.5583 23.2837 73.4043 23.1958 73.2457L23.0884 73.0357C23.0151 72.8864 22.9419 72.7324 22.8686 72.5785L22.7612 72.3592C22.6928 72.2052 22.6244 72.0559 22.5561 71.9019L22.4487 71.6639C22.3852 71.5146 22.3217 71.37 22.2631 71.2207L22.1557 70.9641C22.0971 70.8194 22.0385 70.6748 21.9847 70.5301L21.8773 70.2548C21.8236 70.1149 21.7748 69.9749 21.7259 69.8349L21.6185 69.541C21.5745 69.4103 21.5306 69.2843 21.4866 69.1584L21.3743 68.8177C21.3353 68.6918 21.2962 68.5658 21.2571 68.4398C21.2571 68.4398 21.1741 68.1692 21.1497 68.0898C21.1106 67.9639 21.0765 67.8379 21.0423 67.7119C21.0423 67.7119 20.969 67.4366 20.9446 67.3526C20.9104 67.222 20.8762 67.0867 20.8469 66.9514C20.8469 66.9514 20.7835 66.6901 20.7639 66.6107C20.7297 66.4754 20.7004 66.3354 20.6711 66.1955L20.6174 65.9575L19.8068 62.1361H15.7147L5.05452 62.1221C5.05452 61.9868 5.03987 61.8468 5.03499 61.7069L5.02034 61.3522C5.02034 61.1796 5.02034 61.007 5.00569 60.8343V60.5497V59.7332V58.9166V58.6274C5.00569 58.4547 5.00569 58.2774 5.02034 58.1048L5.03499 57.7548C5.03499 57.6148 5.03499 57.4795 5.05452 57.3396H19.8309L20.6367 53.5042L20.6904 53.2662C20.7246 53.1216 20.7539 52.9863 20.7832 52.8416C20.8027 52.7623 20.8613 52.5104 20.8613 52.5104C20.8955 52.3657 20.9297 52.2351 20.9687 52.0951C20.9883 52.0158 21.0664 51.7312 21.0664 51.7312C21.1006 51.6052 21.1348 51.4932 21.1738 51.3579C21.1982 51.2832 21.2666 51.0406 21.2666 51.0406C21.3106 50.8913 21.3496 50.7606 21.3936 50.63L21.4961 50.3174C21.5449 50.1681 21.5889 50.0374 21.6329 49.9021L21.7403 49.6082C21.7891 49.4682 21.8379 49.3235 21.8965 49.1836L22.004 48.9083C22.0577 48.7636 22.1163 48.619 22.1749 48.4743L22.2823 48.2177C22.3409 48.0684 22.4044 47.9238 22.4679 47.7745L22.5753 47.5365C22.6437 47.3825 22.7121 47.2285 22.7804 47.0839L22.8879 46.8599C22.9611 46.7059 23.0344 46.5473 23.1125 46.398L23.215 46.1927C23.2932 46.0341 23.3762 45.8754 23.4641 45.7168L23.5715 45.5255C23.6545 45.3668 23.7375 45.2128 23.8206 45.0495L23.9231 44.8722C24.011 44.7136 24.1038 44.5549 24.1966 44.3963L24.304 44.219C24.3968 44.065 24.4896 43.911 24.5824 43.7571L24.6996 43.5798C24.7972 43.4258 24.89 43.2765 24.9877 43.1272L25.2074 42.8005L25.349 42.5906L27.6002 39.3384L17.15 29.3533L17.194 29.3019C17.36 29.1246 17.526 28.9427 17.6921 28.7654C17.7751 28.6814 17.863 28.5974 17.9411 28.5087L18.2976 28.1541C18.4783 27.9721 18.6589 27.7902 18.8494 27.6082L19.0984 27.3702L19.4598 27.0343C19.6551 26.8523 19.8505 26.6657 20.0556 26.4837L20.3046 26.2644L20.6123 25.9985L31.0527 35.9742L34.4662 33.7813L34.5834 33.7113C34.7494 33.604 34.9155 33.5014 35.0815 33.3987L35.3305 33.2447L35.7261 33.0068L36.107 32.7875L36.3902 32.6288L36.6246 32.5028L36.8541 32.3815L37.069 32.2695L37.3669 32.1202L37.7624 31.9243L38.1189 31.7516L38.4656 31.5883L38.8367 31.4204L39.1786 31.2664L39.5595 31.1077L39.9013 30.9678L40.2871 30.8138L40.6338 30.6785L41.0049 30.5432L41.3809 30.4078L41.7081 30.2959L42.1378 30.1512L42.4309 30.0626L42.8948 29.9179L43.1682 29.8386L43.6663 29.6986L43.9349 29.6286L44.433 29.498L44.7699 29.4187L45.2143 29.316C45.4731 29.26 45.7368 29.204 46.0005 29.1527L49.9999 28.3688L50.0048 14.2824C50.8789 14.2357 51.753 14.2124 52.632 14.2124H53.4524C53.887 14.2124 54.3216 14.231 54.7563 14.2497V24.9207H54.7514C55.9722 22.0931 57.6618 19.4662 59.7519 17.1426V9.89178C58.8778 9.7798 57.9989 9.68647 57.11 9.61649C56.5191 9.56983 55.9234 9.5325 55.3276 9.49984C54.7318 9.47184 54.1312 9.45318 53.5306 9.44385H52.6271C50.078 9.44385 47.529 9.62116 45.0043 9.9711V24.5198C44.7015 24.5805 44.3939 24.6411 44.096 24.7065L43.7395 24.7905L43.1926 24.9164L42.7922 25.0191L42.2941 25.1497L41.8936 25.2664L41.4102 25.4064L41.0293 25.5277L40.5312 25.6817L40.1747 25.803L39.662 25.9756L39.3299 26.0969L38.8025 26.2882L38.4802 26.4142L37.9528 26.6242L37.6403 26.7548L37.1178 26.9741L36.8004 27.1141L36.3023 27.3521L35.9751 27.506L35.4917 27.744L35.1449 27.9166L34.6957 28.1546L34.3148 28.3599L33.9144 28.5746L33.4846 28.8125L33.1477 29.0038L32.6496 29.2978L32.4005 29.4518C32.2101 29.5684 32.0196 29.6897 31.8292 29.811L31.6925 29.895L20.9394 19.6206L20.7978 19.7279C20.5341 19.9192 20.2753 20.1198 20.0165 20.3158C19.8212 20.4651 19.6258 20.6051 19.4305 20.7591C19.1375 20.997 18.8494 21.235 18.5564 21.4636C18.3757 21.6083 18.195 21.7529 18.0144 21.9022C17.7262 22.1402 17.443 22.3782 17.1598 22.6395C16.9889 22.7888 16.8131 22.9381 16.6422 23.0921C16.3687 23.33 16.0952 23.596 15.8267 23.8479C15.6557 24.0066 15.4848 24.1652 15.3286 24.3239C15.0795 24.5758 14.8158 24.8324 14.557 25.0891C14.3861 25.257 14.2103 25.4297 14.0589 25.6023C13.8099 25.8589 13.5706 26.1202 13.3313 26.3769C13.1653 26.5588 12.9895 26.7361 12.8332 26.9181C12.5842 27.1841 12.3644 27.4547 12.13 27.7253C11.9689 27.9073 11.8077 28.0893 11.6515 28.2759C11.4122 28.5559 11.1827 28.8451 10.9531 29.1344C10.8213 29.2977 10.6846 29.4564 10.5576 29.6103L10.4453 29.7457L21.2129 40.034C21.125 40.1647 21.0371 40.2953 20.9492 40.426L20.7979 40.6546C20.6855 40.8226 20.5732 40.9952 20.4658 41.1679L20.3291 41.3825C20.2167 41.5598 20.1093 41.7371 20.0019 41.9144L19.8749 42.1244C19.7675 42.3017 19.6649 42.4837 19.5624 42.6656L19.4403 42.8803C19.3426 43.0576 19.245 43.2395 19.1473 43.4215L19.0252 43.6455C18.9324 43.8228 18.8397 44.0047 18.7469 44.1867L18.6248 44.4247C18.5369 44.602 18.4539 44.7793 18.3757 44.9566L18.2537 45.2132C18.1755 45.3858 18.0974 45.5631 18.0193 45.7358L17.8972 46.0111C17.8239 46.179 17.7507 46.3517 17.6823 46.5243L17.5602 46.8183C17.4919 46.9816 17.4284 47.1496 17.3649 47.3175C17.3258 47.4249 17.2819 47.5275 17.2428 47.6348C17.1842 47.7981 17.1207 47.9614 17.067 48.1247C17.028 48.2367 16.9889 48.3487 16.9449 48.4607C16.8912 48.6193 16.8375 48.7826 16.7838 48.9366C16.7447 49.0579 16.7057 49.1746 16.6666 49.2912C16.6178 49.4499 16.5689 49.6085 16.5201 49.7672C16.4713 49.9305 16.4468 50.0051 16.4078 50.1358C16.3736 50.2664 16.3199 50.453 16.2759 50.6117C16.232 50.775 16.2076 50.8637 16.1734 50.9896C16.1392 51.1156 16.0952 51.3069 16.0513 51.4656C16.0122 51.6242 15.9878 51.7175 15.9585 51.8482C15.9292 51.9788 15.8853 52.1701 15.8462 52.3241C15.8267 52.4174 15.8022 52.5061 15.7827 52.5994L0.522511 52.5947C0.522511 52.674 0.498095 52.7534 0.488329 52.8327L0.444379 53.1686C0.429729 53.2806 0.405312 53.4393 0.390662 53.5746C0.37113 53.7099 0.351596 53.9058 0.332064 54.0738C0.317414 54.1951 0.302764 54.3118 0.288114 54.4378C0.268581 54.6151 0.249047 54.7924 0.234397 54.9697C0.234397 55.0863 0.209981 55.2076 0.200216 55.3103C0.180682 55.4923 0.166032 55.6789 0.151382 55.8655C0.151382 55.9775 0.131849 56.0848 0.122083 56.1922C0.107433 56.3788 0.097667 56.5701 0.0830169 56.7614C0.0830169 56.8687 0.0683667 56.976 0.0634838 57.0787C0.0634838 57.27 0.0439507 57.4659 0.0341835 57.6619C0.0341835 57.7646 0.0341832 57.8672 0.0195343 57.9699C0.0195343 58.1798 0.0195344 58.3851 0 58.5951V58.8657V59.7616V60.6574V60.928C0 61.138 -5.82132e-08 61.3433 0.0195343 61.5533C0.0195343 61.6559 0.0195346 61.7586 0.0341835 61.8612C0.0341835 62.0572 0.0537166 62.2485 0.0634838 62.4445C0.0634838 62.5518 0.0781327 62.6591 0.0830169 62.7618C0.0830169 62.9484 0.107433 63.1397 0.122083 63.331C0.122083 63.443 0.141616 63.5503 0.151382 63.6576C0.166032 63.8396 0.180682 64.0262 0.200216 64.2129C0.200216 64.3295 0.224631 64.4508 0.234397 64.5535C0.253932 64.7308 0.268581 64.9081 0.288114 65.0854C0.302764 65.2067 0.317414 65.3233 0.332064 65.4493C0.351596 65.6173 0.37113 65.7806 0.390662 65.9486C0.410196 66.1166 0.429729 66.2192 0.444379 66.3545C0.463912 66.4898 0.473679 66.5785 0.488329 66.6905C0.488329 66.7698 0.512745 66.8491 0.522511 66.9284L15.744 66.9238C15.7635 67.0171 15.7879 67.1057 15.8074 67.1991C15.8416 67.3624 15.8758 67.521 15.9198 67.675C15.9588 67.829 15.9832 67.9269 16.0125 68.0576C16.0418 68.1882 16.0907 68.3749 16.1346 68.5335C16.1786 68.6922 16.203 68.7855 16.2372 68.9115C16.2713 69.0374 16.3251 69.2287 16.369 69.3874C16.413 69.5507 16.4423 69.6253 16.4813 69.756C16.5204 69.8866 16.5741 70.0733 16.6278 70.2319C16.6669 70.3532 16.706 70.4699 16.745 70.5865C16.7987 70.7452 16.8525 70.9085 16.9062 71.0625C16.9453 71.1744 16.9843 71.2864 17.0283 71.3984C17.0869 71.5617 17.1455 71.725 17.2041 71.8883C17.2431 71.9956 17.2871 72.103 17.3261 72.2056C17.3896 72.3736 17.458 72.5416 17.5215 72.7049C17.5605 72.8075 17.6045 72.9008 17.6436 73.0035C17.7119 73.1715 17.7852 73.3441 17.8584 73.5168L17.9805 73.792C18.0586 73.9647 18.1368 74.142 18.2149 74.3146L18.337 74.5712C18.42 74.7486 18.5079 74.9259 18.586 75.1032L18.7081 75.3411C18.796 75.5184 18.8888 75.7004 18.9865 75.8824L19.1085 76.1063C19.2062 76.2883 19.3039 76.4703 19.4016 76.6476L19.5236 76.8622C19.6262 77.0442 19.7287 77.2262 19.8362 77.4035L19.9631 77.6134C20.0706 77.7907 20.178 77.968 20.2903 78.1453L20.427 78.36C20.5394 78.5326 20.6468 78.7052 20.7591 78.8732L20.9105 79.1019C20.9984 79.2325 21.0863 79.3632 21.1742 79.4938L10.3919 89.7495L10.4896 89.8848C10.6214 90.0481 10.7533 90.2067 10.8851 90.3607C11.1146 90.6453 11.3442 90.9346 11.5834 91.2192C11.7397 91.4059 11.9057 91.5878 12.062 91.7698C12.2964 92.0404 12.5259 92.3111 12.7652 92.577C12.9312 92.759 13.1021 92.9363 13.2633 93.1183C13.5123 93.3795 13.7467 93.6408 13.9909 93.8928C14.1569 94.0654 14.3327 94.2334 14.489 94.4061C14.738 94.6627 14.9871 94.9193 15.2605 95.1713C15.4266 95.3346 15.6024 95.4885 15.7586 95.6472C16.0272 95.8992 16.3007 96.1558 16.5741 96.4031C16.7451 96.557 16.9208 96.7064 17.0918 96.8557C17.375 97.0936 17.6582 97.3502 17.9463 97.5929C18.1221 97.7422 18.3077 97.8822 18.4884 98.0315C18.7765 98.2694 19.0646 98.5074 19.3625 98.736C19.5529 98.8853 19.7531 99.03 19.9485 99.1793C20.1975 99.3753 20.4661 99.5759 20.7298 99.7672L20.8714 99.8745L31.6244 89.6001L31.7612 89.6841C31.9516 89.8054 32.1421 89.922 32.3325 90.0434L32.5815 90.1973L33.0796 90.4913L33.4166 90.6826L33.8463 90.9206L34.2467 91.1352L34.6276 91.3405L35.0769 91.5785L35.4236 91.7511L35.9071 91.9891L36.2342 92.143L36.7323 92.381L37.0498 92.521L37.5723 92.7403L37.8848 92.8709L38.4122 93.0809L38.7345 93.2069L39.2619 93.3982L39.5939 93.5195L40.1067 93.6921L40.4632 93.8135L40.9613 93.9674L41.3422 94.0888L41.8256 94.2287L42.226 94.3454L42.7241 94.476L43.1246 94.5787L43.6715 94.7047L44.028 94.7886C44.3307 94.854 44.6335 94.9193 44.9363 94.9753L44.946 109.477C47.4706 109.827 50.0198 110 52.5738 110H53.4772C55.577 109.972 57.6671 109.823 59.7473 109.557V95.0367L60.0549 94.976C64.8259 94.0615 69.3673 92.2652 73.4199 89.6895L84.1729 99.9639V99.9593C88.1236 97.127 91.6444 93.7769 94.6232 90.0115L83.8702 79.7371C86.5707 75.9018 88.4653 71.6044 89.4517 67.0781C89.4663 67.0174 89.481 66.9521 89.4908 66.8914H104.712C104.712 66.8121 104.737 66.7328 104.746 66.6535C104.761 66.5415 104.776 66.4295 104.79 66.3175C104.805 66.2055 104.829 66.0469 104.844 65.9116C104.864 65.7763 104.883 65.5803 104.903 65.4123C104.917 65.291 104.932 65.1744 104.947 65.0484C104.966 64.8711 104.986 64.6938 105 64.5165C105 64.3998 105.025 64.2785 105.035 64.1758C105.054 63.9939 105.069 63.8072 105.083 63.6206C105.083 63.5086 105.103 63.4013 105.113 63.294C105.127 63.1074 105.137 62.916 105.152 62.7248C105.152 62.6174 105.166 62.5101 105.171 62.4075C105.171 62.2162 105.191 62.0202 105.201 61.8242C105.201 61.7216 105.201 61.6189 105.215 61.5163C105.215 61.3063 105.215 61.101 105.235 60.891V60.6204V59.7246V58.8287C105.249 58.74 105.24 58.6508 105.235 58.5575Z" fill="white" stroke="white" stroke-width="2" mask="url(#path-7-inside-2_14_2828)"/>
<path d="M66.788 29.6354L66.7881 29.6352C69.4151 23.575 75.6066 19.6108 82.4981 19.6107C91.9031 19.6201 99.4903 26.9013 99.4998 35.8336C99.4995 42.3839 95.3717 48.3041 89.0142 50.8174L89.014 50.8175C82.6474 53.3366 75.3304 51.9404 70.4691 47.2954C65.6116 42.654 64.163 35.6865 66.788 29.6354ZM82.4983 48.2782H82.4987C89.6533 48.2733 95.4888 42.7239 95.499 35.8346V35.8339C95.499 30.7889 92.3166 26.2533 87.4674 24.334L87.4673 24.334C82.6169 22.4161 77.0329 23.4739 73.3142 27.027C69.5915 30.5834 68.4718 35.9432 70.4905 40.6047L70.4906 40.6048C72.5077 45.2575 77.2551 48.2782 82.4983 48.2782Z" fill="white" stroke="white"/>
</svg>
