<svg width="25" height="26" viewBox="0 0 25 26" fill="none" xmlns="http://www.w3.org/2000/svg">
<path d="M20.55 3.96191H4.45C3.535 3.96191 2.65748 4.31749 2.01048 4.95043C1.36348 5.58336 1 6.44181 1 7.33691V18.5869C1 19.482 1.36348 20.3405 2.01048 20.9734C2.65748 21.6063 3.535 21.9619 4.45 21.9619H20.55C21.465 21.9619 22.3425 21.6063 22.9895 20.9734C23.6365 20.3405 24 19.482 24 18.5869V7.33691C24 6.44181 23.6365 5.58336 22.9895 4.95043C22.3425 4.31749 21.465 3.96191 20.55 3.96191ZM19.7795 6.21191L12.5 11.5557L5.2205 6.21191H19.7795ZM20.55 19.7119H4.45C4.145 19.7119 3.85249 19.5934 3.63683 19.3824C3.42116 19.1714 3.3 18.8853 3.3 18.5869V7.61816L11.81 13.8619C12.0091 14.008 12.2512 14.0869 12.5 14.0869C12.7488 14.0869 12.9909 14.008 13.19 13.8619L21.7 7.61816V18.5869C21.7 18.8853 21.5788 19.1714 21.3632 19.3824C21.1475 19.5934 20.855 19.7119 20.55 19.7119Z" fill="white"/>
</svg>
