<svg width="21" height="21" viewBox="0 0 21 21" fill="none" xmlns="http://www.w3.org/2000/svg">
<path d="M4.78147 20.6206H0.635045V7.26797H4.78147V20.6206ZM2.70603 5.44654C1.38013 5.44654 0.304688 4.34833 0.304688 3.02243C0.304688 2.38556 0.557685 1.77477 1.00802 1.32443C1.45836 0.874091 2.06915 0.621094 2.70603 0.621094C3.3429 0.621094 3.95369 0.874091 4.40403 1.32443C4.85437 1.77477 5.10737 2.38556 5.10737 3.02243C5.10737 4.34833 4.03147 5.44654 2.70603 5.44654ZM20.3002 20.6206H16.1627V14.1206C16.1627 12.5715 16.1315 10.5849 14.0069 10.5849C11.8511 10.5849 11.5208 12.268 11.5208 14.009V20.6206H7.3788V7.26797H11.3556V9.0894H11.4136C11.9672 8.04029 13.3194 6.93315 15.3368 6.93315C19.5333 6.93315 20.3047 9.69654 20.3047 13.2858V20.6206H20.3002Z" fill="white"/>
</svg>
