<svg width="396" height="297" viewBox="0 0 396 297" fill="none" xmlns="http://www.w3.org/2000/svg">
<path d="M62.5 70H47.0437C49.6402 67.6816 52.0887 65.2028 54.375 62.5781C62.9531 52.7125 67.5 42.3125 67.5 32.5C67.5 25.2065 64.6027 18.2118 59.4454 13.0546C54.2882 7.89731 47.2935 5 40 5C32.7065 5 25.7118 7.89731 20.5546 13.0546C15.3973 18.2118 12.5 25.2065 12.5 32.5C12.5 42.3125 17.0344 52.7125 25.625 62.5781C27.9113 65.2028 30.3598 67.6816 32.9562 70H17.5C16.837 70 16.2011 70.2634 15.7322 70.7322C15.2634 71.2011 15 71.837 15 72.5C15 73.163 15.2634 73.7989 15.7322 74.2678C16.2011 74.7366 16.837 75 17.5 75H62.5C63.163 75 63.7989 74.7366 64.2678 74.2678C64.7366 73.7989 65 73.163 65 72.5C65 71.837 64.7366 71.2011 64.2678 70.7322C63.7989 70.2634 63.163 70 62.5 70ZM17.5 32.5C17.5 26.5326 19.8705 20.8097 24.0901 16.5901C28.3097 12.3705 34.0326 10 40 10C45.9674 10 51.6903 12.3705 55.9099 16.5901C60.1295 20.8097 62.5 26.5326 62.5 32.5C62.5 50.3844 45.1656 65.3125 40 69.375C34.8344 65.3125 17.5 50.3844 17.5 32.5ZM52.5 32.5C52.5 30.0277 51.7669 27.611 50.3934 25.5554C49.0199 23.4998 47.0676 21.8976 44.7835 20.9515C42.4995 20.0054 39.9861 19.7579 37.5614 20.2402C35.1366 20.7225 32.9093 21.913 31.1612 23.6612C29.413 25.4093 28.2225 27.6366 27.7402 30.0614C27.2579 32.4861 27.5054 34.9995 28.4515 37.2835C29.3976 39.5676 30.9998 41.5199 33.0554 42.8934C35.111 44.2669 37.5277 45 40 45C43.3152 45 46.4946 43.683 48.8388 41.3388C51.183 38.9946 52.5 35.8152 52.5 32.5ZM32.5 32.5C32.5 31.0166 32.9399 29.5666 33.764 28.3332C34.5881 27.0999 35.7594 26.1386 37.1299 25.5709C38.5003 25.0032 40.0083 24.8547 41.4632 25.1441C42.918 25.4335 44.2544 26.1478 45.3033 27.1967C46.3522 28.2456 47.0665 29.582 47.3559 31.0368C47.6453 32.4917 47.4968 33.9997 46.9291 35.3701C46.3614 36.7406 45.4001 37.9119 44.1668 38.736C42.9334 39.5601 41.4834 40 40 40C38.0109 40 36.1032 39.2098 34.6967 37.8033C33.2902 36.3968 32.5 34.4891 32.5 32.5Z" fill="white"/>
<path d="M378.5 287H363.044C365.64 284.682 368.089 282.203 370.375 279.578C378.953 269.713 383.5 259.312 383.5 249.5C383.5 242.207 380.603 235.212 375.445 230.055C370.288 224.897 363.293 222 356 222C348.707 222 341.712 224.897 336.555 230.055C331.397 235.212 328.5 242.207 328.5 249.5C328.5 259.312 333.034 269.713 341.625 279.578C343.911 282.203 346.36 284.682 348.956 287H333.5C332.837 287 332.201 287.263 331.732 287.732C331.263 288.201 331 288.837 331 289.5C331 290.163 331.263 290.799 331.732 291.268C332.201 291.737 332.837 292 333.5 292H378.5C379.163 292 379.799 291.737 380.268 291.268C380.737 290.799 381 290.163 381 289.5C381 288.837 380.737 288.201 380.268 287.732C379.799 287.263 379.163 287 378.5 287ZM333.5 249.5C333.5 243.533 335.871 237.81 340.09 233.59C344.31 229.371 350.033 227 356 227C361.967 227 367.69 229.371 371.91 233.59C376.129 237.81 378.5 243.533 378.5 249.5C378.5 267.384 361.166 282.312 356 286.375C350.834 282.312 333.5 267.384 333.5 249.5ZM368.5 249.5C368.5 247.028 367.767 244.611 366.393 242.555C365.02 240.5 363.068 238.898 360.784 237.952C358.499 237.005 355.986 236.758 353.561 237.24C351.137 237.722 348.909 238.913 347.161 240.661C345.413 242.409 344.222 244.637 343.74 247.061C343.258 249.486 343.505 251.999 344.452 254.284C345.398 256.568 347 258.52 349.055 259.893C351.111 261.267 353.528 262 356 262C359.315 262 362.495 260.683 364.839 258.339C367.183 255.995 368.5 252.815 368.5 249.5ZM348.5 249.5C348.5 248.017 348.94 246.567 349.764 245.333C350.588 244.1 351.759 243.139 353.13 242.571C354.5 242.003 356.008 241.855 357.463 242.144C358.918 242.433 360.254 243.148 361.303 244.197C362.352 245.246 363.067 246.582 363.356 248.037C363.645 249.492 363.497 251 362.929 252.37C362.361 253.741 361.4 254.912 360.167 255.736C358.933 256.56 357.483 257 356 257C354.011 257 352.103 256.21 350.697 254.803C349.29 253.397 348.5 251.489 348.5 249.5Z" fill="white"/>
<path d="M49 85C48.9974 185.5 386.977 -41.5 353.5 209" stroke="white" stroke-width="2" stroke-dasharray="4 4"/>
</svg>
