<svg width="25" height="26" viewBox="0 0 25 26" fill="none" xmlns="http://www.w3.org/2000/svg">
<path d="M21.1492 14.5147C20.8953 14.5147 20.6299 14.4337 20.376 14.3758C19.8618 14.2622 19.3565 14.1113 18.864 13.9244C18.3286 13.7291 17.7401 13.7392 17.2116 13.9529C16.6832 14.1666 16.2523 14.5687 16.0017 15.0819L15.7478 15.6028C14.6237 14.9756 13.5907 14.1967 12.6778 13.2878C11.7715 12.3722 10.9949 11.3362 10.3695 10.2088L10.8543 9.88473C11.366 9.63345 11.7669 9.20126 11.98 8.67131C12.1931 8.14135 12.2032 7.5511 12.0084 7.01412C11.8252 6.51919 11.6748 6.01264 11.5583 5.49778C11.5006 5.24313 11.4544 4.97691 11.4198 4.71068C11.2796 3.89536 10.8538 3.15701 10.2191 2.62861C9.58427 2.1002 8.78223 1.81646 7.95737 1.82849H4.49494C3.99754 1.82381 3.50497 1.92666 3.05077 2.13006C2.59657 2.33345 2.1914 2.63261 1.86283 3.00716C1.53427 3.38171 1.29004 3.82287 1.14676 4.30059C1.00347 4.77832 0.964506 5.2814 1.03251 5.77558C1.64737 10.6248 3.85558 15.1304 7.30834 18.5806C10.7611 22.0309 15.2616 24.2291 20.099 24.8281H20.5375C21.3886 24.8294 22.2103 24.5162 22.8458 23.9484C23.2109 23.6209 23.5026 23.2194 23.7016 22.7704C23.9005 22.3215 24.0022 21.8353 24 21.344V17.8715C23.9858 17.0675 23.6939 16.2933 23.174 15.6811C22.6541 15.0689 21.9384 14.6567 21.1492 14.5147ZM21.7263 21.4598C21.7261 21.6241 21.691 21.7865 21.6233 21.9362C21.5557 22.0859 21.457 22.2194 21.3339 22.3279C21.2049 22.4396 21.0541 22.523 20.8912 22.5728C20.7282 22.6227 20.5566 22.6378 20.3875 22.6173C16.0651 22.0615 12.0502 20.0783 8.97615 16.9806C5.90207 13.8829 3.94373 9.84692 3.41004 5.50936C3.39168 5.33981 3.40777 5.16828 3.45737 5.00514C3.50696 4.842 3.58902 4.69064 3.69858 4.5602C3.80674 4.43674 3.93987 4.33778 4.08912 4.26992C4.23837 4.20206 4.40032 4.16686 4.56419 4.16665H8.02662C8.29501 4.16066 8.55709 4.2487 8.76774 4.4156C8.9784 4.5825 9.12445 4.81783 9.18076 5.08108C9.22693 5.39747 9.28463 5.70999 9.35388 6.01866C9.48721 6.62883 9.66465 7.22846 9.88479 7.81279L8.26899 8.56517C8.13083 8.62874 8.00656 8.71906 7.90331 8.83093C7.80005 8.9428 7.71985 9.07403 7.6673 9.21707C7.61475 9.36012 7.5909 9.51216 7.5971 9.66448C7.60331 9.8168 7.63945 9.96638 7.70346 10.1047C9.3645 13.673 12.2245 16.5413 15.7825 18.2072C16.0635 18.323 16.3786 18.323 16.6596 18.2072C16.8035 18.1556 16.9358 18.0758 17.0488 17.9724C17.1617 17.8691 17.253 17.7443 17.3175 17.6053L18.033 15.9848C18.6297 16.1988 19.2386 16.3766 19.8566 16.5172C20.1644 16.5867 20.476 16.6446 20.7914 16.6909C21.0539 16.7473 21.2886 16.8938 21.455 17.1051C21.6214 17.3163 21.7092 17.5792 21.7032 17.8484L21.7263 21.4598Z" fill="white"/>
</svg>
