<svg width="114" height="89" viewBox="0 0 114 89" fill="none" xmlns="http://www.w3.org/2000/svg">
<g clip-path="url(#clip0_14_2853)">
<path d="M114 69.3557H0V0H114V69.3557ZM2.375 66.9903H111.623V2.36541H2.375V66.9903Z" fill="white"/>
<path d="M56.9998 89.0002C53.4088 89.0002 49.8178 87.6397 47.0856 84.9185C41.6193 79.4743 41.6193 70.6144 47.0856 65.172C52.5519 59.7278 61.4496 59.7278 66.9159 65.172C72.3822 70.6163 72.3822 79.4743 66.9159 84.9185C64.1837 87.6397 60.5927 89.0002 57.0017 89.0002H56.9998ZM56.9998 63.4519C54.0168 63.4519 51.0357 64.5816 48.7652 66.843C44.2261 71.3637 44.2261 78.723 48.7652 83.2457C53.3081 87.7702 60.6934 87.7646 65.2363 83.2457C69.7754 78.723 69.7754 71.3656 65.2363 66.843C62.9658 64.5816 59.9847 63.4519 57.0017 63.4519H56.9998Z" fill="white"/>
<path d="M54.9876 80.3638C54.6722 80.3638 54.3701 80.2389 54.1478 80.0175L49.8633 75.7484C49.3997 75.2867 49.3997 74.5373 49.8633 74.0756C50.3269 73.6138 51.0793 73.6138 51.5429 74.0756L54.9876 77.5082L62.4546 70.0714C62.9182 69.6097 63.6706 69.6097 64.1342 70.0714C64.5978 70.5331 64.5978 71.2825 64.1342 71.7442L55.8274 80.0175C55.6051 80.2389 55.303 80.3638 54.9876 80.3638Z" fill="white"/>
<path d="M104.13 56.4235H79.7546C79.3366 56.4235 78.9281 56.3762 78.5348 56.2835L78.5253 56.2967L78.3163 56.2267C78.2612 56.2097 78.2042 56.1926 78.1491 56.1756C78.0636 56.1472 77.9781 56.117 77.8907 56.0848L76.9255 55.7498V55.6212C76.1978 55.1746 75.5841 54.5671 75.1376 53.8405H75.0882L74.4498 52.4421L74.5087 52.3777C74.389 51.9292 74.3301 51.4789 74.3301 51.0209V17.5532C74.3301 15.0042 76.4106 12.9321 78.9699 12.9321H104.128C105.355 12.9321 106.353 13.9275 106.353 15.1499V54.2095C106.353 55.4319 105.355 56.4273 104.128 56.4273L104.13 56.4235ZM78.4664 53.761L78.5842 53.8102C78.6811 53.8518 78.7875 53.8935 78.8863 53.9256C79.1561 54.0127 79.4506 54.0581 79.7565 54.0581H104.132L103.981 15.2975H78.9737C77.7254 15.2975 76.7089 16.3099 76.7089 17.5532V51.0228C76.7089 51.3256 76.7526 51.6208 76.8438 51.8971L76.9939 52.2907C77.2998 52.9397 77.8147 53.4582 78.4664 53.7648V53.761Z" fill="white"/>
<path d="M83.5907 52.2055H74.332V17.5532C74.332 15.0042 76.4125 12.9321 78.9718 12.9321H83.5907V52.2055ZM76.707 49.8401H81.2138V15.2975H78.9699C77.7216 15.2975 76.7051 16.3099 76.7051 17.5532V49.8401H76.707Z" fill="white"/>
<path d="M104.13 56.4234H79.7546C79.3366 56.4234 78.9281 56.376 78.5348 56.2833L78.5253 56.2966L78.3163 56.2266C78.2612 56.2095 78.2042 56.1925 78.1491 56.1755C78.0636 56.1471 77.9781 56.1168 77.8907 56.0846L76.9255 55.7497V55.6229C76.1997 55.1801 75.5803 54.5651 75.1338 53.8384H75.0882L74.4498 52.44L74.5087 52.3757C74.389 51.9272 74.3301 51.4768 74.3301 51.0189C74.3434 49.558 74.9058 48.2201 75.909 47.2039C76.9578 46.1764 78.3201 45.6182 79.7527 45.6182H104.38C105.469 45.6182 106.353 46.4981 106.353 47.5805V54.2037C106.353 55.4261 105.355 56.4215 104.128 56.4215L104.13 56.4234ZM78.4379 53.7495L78.5842 53.8101C78.6811 53.8517 78.7875 53.8933 78.8863 53.9255C79.1561 54.0125 79.4506 54.058 79.7565 54.058H104.132L103.991 47.9874H79.7584C78.9509 47.9874 78.1833 48.3053 77.5943 48.8824C77.0376 49.4445 76.7165 50.2033 76.7108 51.0037C76.7108 51.3254 76.7545 51.6206 76.8457 51.8969L77.0034 52.3075C77.2979 52.9377 77.8128 53.4543 78.4417 53.7533L78.4379 53.7495Z" fill="white"/>
<path d="M66.2091 24.0817H7.67578V13.3408H66.2091V24.0817ZM9.98998 21.7787H63.893V15.6457H9.99188V21.7787H9.98998Z" fill="white"/>
<path d="M66.2091 40.0475H7.67578V29.3066H66.2091V40.0475ZM9.98998 37.7445H63.893V31.6115H9.99188V37.7445H9.98998Z" fill="white"/>
<path d="M66.2091 56.0148H7.67578V45.2739H66.2091V56.0148ZM9.98998 53.7118H63.893V47.5788H9.99188V53.7118H9.98998Z" fill="white"/>
</g>
<defs>
<clipPath id="clip0_14_2853">
<rect width="114" height="89" fill="white"/>
</clipPath>
</defs>
</svg>
