<svg width="84" height="79" viewBox="0 0 84 79" fill="none" xmlns="http://www.w3.org/2000/svg">
<path d="M41.851 0L39.769 2.082V30.977L41.851 33.059H81.66L83.742 30.977V14.172H79.574V26.496L67.765 16.5351L79.574 6.5703V9.6484H83.742V2.0859L81.66 0.00389957L41.851 0ZM50.308 21.117L43.933 26.4959V6.5659L55.745 16.5307L53.6747 18.2768L56.3622 21.4604L58.9755 19.2534L60.413 20.4643H63.0966L64.5341 19.2534L75.9561 28.8901L47.5541 28.894L52.9994 24.3002L50.308 21.117ZM63.195 14.9412L61.7575 16.1521L60.32 14.9412L47.55 4.1682H75.96L63.195 14.9412Z" fill="white"/>
<path d="M25.4879 68.9331C26.7848 70.5347 27.6246 72.3901 27.9684 74.3784H4.34742C5.3357 68.7573 10.2576 64.4722 16.1564 64.4722C18.2541 64.4722 20.3166 65.023 22.1212 66.0581L24.1993 62.4487C23.7657 62.1987 23.3204 61.98 22.8673 61.7729C24.7228 59.9995 25.8868 57.5112 25.8868 54.7456C25.8868 49.3823 21.5235 45.019 16.1602 45.019C14.0469 45.019 12.0352 45.687 10.3477 46.9448L12.8399 50.2846C13.8048 49.5659 14.9532 49.183 16.1602 49.183C19.2266 49.183 21.7188 51.6791 21.7188 54.7455C21.7188 57.8119 19.2227 60.3041 16.1602 60.3041C13.0938 60.3041 10.5977 57.808 10.5977 54.7455C10.5977 53.7729 10.8516 52.8197 11.3321 51.9799L7.7188 49.9057C6.87505 51.3745 6.4297 53.0463 6.4297 54.7455C6.4297 57.5111 7.5977 60.0072 9.457 61.7807C3.8867 64.3315 0 69.9487 0 76.4647L2.082 78.5467H30.227L32.309 76.4647C32.309 72.7811 31.0356 69.1795 28.727 66.3197L25.4879 68.9331Z" fill="white"/>
<path d="M52.675 58.644H41.667L44.4951 55.8159L41.5498 52.8706L35.167 59.2534V62.1987L41.5498 68.5815L44.4951 65.6362L41.667 62.8081H52.675C57.2688 62.8081 61.5148 60.5112 64.034 56.6675L60.5457 54.3863C58.8035 57.0543 55.8586 58.644 52.675 58.644Z" fill="white"/>
<path d="M62.1011 49.2073C62.1011 49.4456 62.0933 49.6878 62.0737 49.9221L66.2299 50.2229C66.2534 49.8909 66.2651 49.551 66.2651 49.2073L66.269 38.0703H62.101L62.1011 49.2073Z" fill="white"/>
</svg>
