<svg width="221" height="266" viewBox="0 0 221 266" fill="none" xmlns="http://www.w3.org/2000/svg">
<path d="M158.533 227.948C141.22 262.001 117.675 265.618 110.732 265.962V265.989C110.732 265.989 110.935 266.006 110.416 265.995C109.898 266.006 110.1 265.989 110.1 265.989V265.962C103.788 265.68 87.4013 263.16 71.8632 243.122C68.5848 238.895 65.332 233.884 62.315 227.95C42.2004 188.394 56.8261 168.022 56.8261 168.022L110.1 167.894V167.889L110.416 167.894L110.732 167.889V167.894L133.43 167.949L164.095 168.022C164.095 168.022 178.648 188.393 158.533 227.95V227.948Z" fill="url(#paint0_linear_689_131)"/>
<path d="M110.5 175.674C140.373 175.674 164.589 172.617 164.589 168.847C164.589 165.076 140.373 162.02 110.5 162.02C80.6276 162.02 56.4111 165.076 56.4111 168.847C56.4111 172.617 80.6276 175.674 110.5 175.674Z" fill="url(#paint1_linear_689_131)"/>
<path style="mix-blend-mode:multiply" opacity="0.3" d="M158.533 227.948C141.22 262.001 117.675 265.617 110.732 265.962V265.989C110.732 265.989 110.935 266.005 110.416 265.995C109.899 266.005 110.1 265.989 110.1 265.989V265.962C103.788 265.679 87.4014 263.159 71.8633 243.122C71.9529 224.67 114.914 212.132 128.336 203.577C145.317 192.76 131.655 168.848 131.655 168.848C132.312 168.537 132.951 168.238 133.593 167.95L164.176 168.023C164.176 168.023 178.646 188.394 158.533 227.951V227.948Z" fill="url(#paint2_linear_689_131)"/>
<path d="M28.2055 108.871C43.783 108.871 56.4111 92.7691 56.4111 72.9066C56.4111 53.0441 43.783 36.9424 28.2055 36.9424C12.628 36.9424 0 53.0441 0 72.9066C0 92.7691 12.628 108.871 28.2055 108.871Z" fill="url(#paint3_linear_689_131)"/>
<path d="M206.334 81.0097C206.334 125.753 161.914 162.019 107.121 162.019C98.7031 162.019 90.5373 161.165 82.7317 159.55C39.7304 150.679 7.9082 118.88 7.9082 81.0097C7.91003 36.2721 52.3302 0 107.121 0C122.515 0 137.089 2.86249 150.095 7.9716C183.371 21.0487 206.334 48.8427 206.334 81.0079V81.0097Z" fill="url(#paint4_linear_689_131)"/>
<path d="M40.8692 117.987L117.366 124.639C134.277 126.11 148.864 112.927 149.455 95.0088L150.086 75.8897C150.356 67.6648 144.037 60.8047 136.078 60.6006L27.0279 57.7983C20.6942 57.6361 15.6221 63.372 15.6221 70.5856V87.3688C15.6221 103.115 26.7609 116.761 40.8674 117.987H40.8692Z" fill="#F4F7FA"/>
<path d="M39.0334 107.054L120.885 113.058C132.973 113.945 143.302 104.423 143.702 91.6995L143.969 83.256C144.227 75.0967 137.978 68.2621 130.115 68.0216L32.5351 65.0498C26.1374 64.8548 21.0032 70.5852 20.994 77.8225L20.9849 85.3167C20.9703 96.6155 28.9679 106.316 39.0334 107.054Z" fill="url(#paint5_linear_689_131)"/>
<path d="M87.021 99.7484C86.2512 98.4875 85.785 97.0936 85.8106 95.6195C85.8929 90.8439 90.6962 87.2034 96.5965 87.5004C102.566 87.801 107.368 92.0064 107.256 96.8804C107.222 98.3836 106.68 99.7447 105.83 100.929L87.0192 99.7484H87.021Z" fill="#D8DEE8"/>
<path d="M36.6527 96.5862C35.9433 95.3873 35.5063 94.0626 35.5118 92.6615C35.5337 88.119 39.8305 84.6425 45.1605 84.9121C50.5489 85.1836 54.9243 89.1685 54.8786 93.8003C54.864 95.2288 54.3922 96.5243 53.6389 97.6521L36.6509 96.5862H36.6527Z" fill="#D8DEE8"/>
<path style="mix-blend-mode:multiply" opacity="0.3" d="M206.334 81.0098C206.334 125.753 161.914 162.019 107.121 162.019C98.7028 162.019 90.5369 161.165 82.7313 159.551C75.0153 135.279 118.624 108.66 143.703 91.6999C174.428 70.9227 150.093 7.97168 150.093 7.97168C183.369 21.0487 206.332 48.8428 206.332 81.0079L206.334 81.0098Z" fill="url(#paint6_linear_689_131)"/>
<path d="M192.794 122.976C208.372 122.976 221 106.875 221 87.0121C221 67.1496 208.372 51.0479 192.794 51.0479C177.217 51.0479 164.589 67.1496 164.589 87.0121C164.589 106.875 177.217 122.976 192.794 122.976Z" fill="url(#paint7_linear_689_131)"/>
<defs>
<linearGradient id="paint0_linear_689_131" x1="109.048" y1="-135.161" x2="111.697" y2="486.968" gradientUnits="userSpaceOnUse">
<stop stop-color="#AA80F9"/>
<stop offset="1" stop-color="#6165D7"/>
</linearGradient>
<linearGradient id="paint1_linear_689_131" x1="110.29" y1="119.871" x2="110.658" y2="206.416" gradientUnits="userSpaceOnUse">
<stop stop-color="#444B8C"/>
<stop offset="1" stop-color="#26264F"/>
</linearGradient>
<linearGradient id="paint2_linear_689_131" x1="119.037" y1="-134.163" x2="121.681" y2="486.351" gradientUnits="userSpaceOnUse">
<stop stop-color="#AA80F9"/>
<stop offset="1" stop-color="#6165D7"/>
</linearGradient>
<linearGradient id="paint3_linear_689_131" x1="0" y1="72.9066" x2="56.4111" y2="72.9066" gradientUnits="userSpaceOnUse">
<stop stop-color="#444B8C"/>
<stop offset="1" stop-color="#26264F"/>
</linearGradient>
<linearGradient id="paint4_linear_689_131" x1="7.91003" y1="81.0097" x2="206.334" y2="81.0097" gradientUnits="userSpaceOnUse">
<stop stop-color="#AA80F9"/>
<stop offset="1" stop-color="#6165D7"/>
</linearGradient>
<linearGradient id="paint5_linear_689_131" x1="143.977" y1="89.0793" x2="20.9849" y2="89.0793" gradientUnits="userSpaceOnUse">
<stop stop-color="#444B8C"/>
<stop offset="1" stop-color="#26264F"/>
</linearGradient>
<linearGradient id="paint6_linear_689_131" x1="141.578" y1="-466.647" x2="145.729" y2="508.058" gradientUnits="userSpaceOnUse">
<stop stop-color="#AA80F9"/>
<stop offset="1" stop-color="#6165D7"/>
</linearGradient>
<linearGradient id="paint7_linear_689_131" x1="164.589" y1="87.0121" x2="221" y2="87.0121" gradientUnits="userSpaceOnUse">
<stop stop-color="#444B8C"/>
<stop offset="1" stop-color="#26264F"/>
</linearGradient>
</defs>
</svg>
