<svg width="110" height="110" viewBox="0 0 110 110" fill="none" xmlns="http://www.w3.org/2000/svg">
<path d="M52.8582 4.69761L52.8583 4.69764C53.5091 4.31831 54.2498 4.12108 55 4.12108C55.7502 4.12108 56.4909 4.31831 57.1417 4.69764L57.1515 4.70336L57.1515 4.70339C63.2798 8.32598 69.7974 11.3123 76.5926 13.6071C84.1193 16.1474 91.9359 17.8234 99.8778 18.5993C100.847 18.6864 101.766 19.1005 102.467 19.7871C103.17 20.4757 103.608 21.3951 103.68 22.3863C103.68 22.3896 103.681 22.393 103.681 22.3963L105.414 43.9476C105.414 43.9481 105.414 43.9486 105.414 43.9491C106.425 56.0451 103.352 68.126 96.6571 78.4143C89.9635 88.7012 80.0068 96.6484 68.2622 101.103C68.2619 101.104 68.2617 101.104 68.2614 101.104L56.5455 105.583L52.8582 4.69761ZM52.8582 4.69761L52.8482 4.70353M52.8582 4.69761L52.8482 4.70353M52.8482 4.70353C46.7205 8.327 40.2033 11.3126 33.408 13.6088C25.88 16.1481 18.0623 17.8235 10.1194 18.5995C9.15091 18.6872 8.23208 19.1017 7.53156 19.7885C6.82931 20.4769 6.39228 21.3958 6.3198 22.3863L4.5861 43.9478C4.58602 43.9488 4.58593 43.9498 4.58585 43.9508C3.57551 56.0466 6.64904 68.127 13.3436 78.4149C20.0375 88.7017 29.9945 96.6487 41.7394 101.103C41.7398 101.103 41.7403 101.104 41.7407 101.104L53.4505 105.583M52.8482 4.70353L53.4505 105.583M53.4505 105.583L53.4523 105.584C54.4456 105.965 55.55 105.965 56.5434 105.584L53.4505 105.583ZM100.163 16.3373L100.164 16.3374C101.764 16.493 103.242 17.1808 104.345 18.262C105.445 19.3415 106.101 20.7426 106.219 22.2153L106.219 22.2162L107.954 43.791L107.954 43.797C109.003 56.3329 105.821 68.8664 98.8649 79.5571C91.908 90.2493 81.5388 98.5391 69.2697 103.193L69.265 103.194L57.5443 107.677L57.5393 107.679C55.9102 108.307 54.0857 108.307 52.4565 107.679L52.4519 107.677L40.7374 103.195L40.7323 103.193C28.4627 98.5395 18.093 90.2498 11.1356 79.5575C4.1793 68.8667 0.997156 56.3329 2.04585 43.7966L2.04633 43.7907L3.78111 22.2158L3.78118 22.215C3.89886 20.7425 4.55459 19.3417 5.65492 18.2623C6.75697 17.1812 8.2347 16.4932 9.83469 16.3373L9.83516 16.3373C17.5676 15.5819 25.1797 13.9512 32.512 11.4788L32.5133 11.4784C39.1269 9.24297 45.4725 6.33611 51.4415 2.80694C52.5071 2.18343 53.7387 1.85 54.9999 1.85C56.2611 1.85 57.4927 2.18341 58.5582 2.80688C64.527 6.33631 70.873 9.24262 77.4871 11.4766L77.4876 11.4767C84.8191 13.9505 92.4308 15.582 100.163 16.3373Z" stroke="white" stroke-width="3.7"/>
<path d="M96.4457 28.6137L96.4458 28.6152L97.8408 45.9661C97.8408 45.9663 97.8408 45.9665 97.8408 45.9667C98.5764 55.1537 96.5159 64.3525 91.9007 72.4535C87.2852 80.5551 80.3085 87.2173 71.8031 91.6244C71.496 91.7832 71.1264 91.8214 70.7827 91.7233C70.4404 91.6256 70.1776 91.4091 70.0311 91.1498C69.8866 90.8941 69.8577 90.6043 69.9413 90.3362C70.0258 90.0654 70.2278 89.8123 70.5328 89.6547L70.5346 89.6537C78.5955 85.476 85.232 79.1483 89.6321 71.4244C94.0328 63.6995 96.0047 54.9136 95.3021 46.13L95.302 46.1292L93.9081 28.7962C93.9078 28.7924 93.9075 28.7886 93.9073 28.7848C93.8518 28.0359 93.5211 27.3447 92.9954 26.8296C92.4717 26.3163 91.7884 26.0093 91.072 25.944C84.6624 25.3179 78.3541 23.9652 72.2801 21.9146C66.7977 20.0623 61.5396 17.6544 56.5954 14.7326L56.5886 14.7286C56.1064 14.4463 55.5588 14.3 55.0054 14.2992C54.452 14.2984 53.9041 14.443 53.421 14.7238L53.4209 14.7237L53.4092 14.7307C48.464 17.6535 43.205 20.0627 37.7217 21.9168C31.6477 23.9657 25.3398 25.3177 18.9307 25.944C18.2143 26.0093 17.531 26.3163 17.0073 26.8296L18.2149 28.0618L17.0073 26.8296C16.4816 27.3447 16.1509 28.0359 16.0954 28.7848L14.7012 46.1233C14.7011 46.1243 14.701 46.1253 14.7009 46.1262C13.8915 55.8121 16.3526 65.4845 21.7114 73.72C27.0692 81.954 35.0368 88.3124 44.4315 91.8761C44.4325 91.8764 44.4335 91.8768 44.4345 91.8772L55.4992 96.1105L55.4996 96.1107C55.8275 96.2361 56.0643 96.4706 56.1833 96.7362C56.3009 96.9984 56.3044 97.2888 56.1942 97.5525C56.0827 97.8195 55.8533 98.0584 55.5299 98.1911C55.2047 98.3245 54.8325 98.3292 54.5029 98.2033C54.5027 98.2032 54.5026 98.2032 54.5025 98.2031L43.4331 93.968L43.4279 93.966C33.5074 90.2044 25.126 83.5033 19.5041 74.8634C13.8832 66.225 11.3131 56.0992 12.1607 45.9727L12.1612 45.9667L13.5565 28.6152L13.5566 28.6137C13.6547 27.3818 14.2033 26.2072 15.1277 25.3006C16.0538 24.3924 17.2979 23.8128 18.6471 23.6821L18.6487 23.6819C24.8469 23.0757 30.9488 21.7682 36.8267 19.7865L36.828 19.786C42.129 17.9944 47.2153 15.6641 51.9997 12.8346C52.8981 12.3096 53.9372 12.0285 55.002 12.0287C56.067 12.029 57.1062 12.3107 58.0044 12.8363C62.7882 15.6652 67.8741 17.9943 73.1748 19.7843L73.1752 19.7844C79.0529 21.7678 85.1551 23.0759 91.3537 23.6819L91.3552 23.6821C92.7045 23.8128 93.9485 24.3924 94.8746 25.3006L96.17 23.9799L94.8746 25.3006C95.799 26.2072 96.3476 27.3818 96.4457 28.6137Z" stroke="white" stroke-width="3.7"/>
<path d="M70.0768 42.7062L68.6874 44.053L56.5132 55.8535L55.2341 57.0934L53.9468 55.862L49.945 52.0339C49.9447 52.0336 49.9444 52.0333 49.9441 52.033C49.7107 51.8111 49.3781 51.6732 49.0155 51.6735C48.6524 51.6739 48.3198 51.8128 48.0869 52.0355C47.8569 52.2556 47.7436 52.5361 47.7433 52.8104C47.743 53.0842 47.8553 53.3643 48.084 53.5845C48.0844 53.5849 48.0848 53.5853 48.0852 53.5857L54.31 59.5401L54.3104 59.5405C54.4256 59.6507 54.5669 59.7423 54.7282 59.8059C54.8896 59.8696 55.0653 59.9031 55.2443 59.9025C55.4234 59.902 55.5988 59.8674 55.7596 59.8028C55.9203 59.7382 56.0609 59.6459 56.1752 59.5351L56.1753 59.535L69.7456 46.3818L71.571 44.6126L72.6932 46.8935C73.9043 49.3551 74.5398 52.0443 74.5518 54.772L74.5518 54.7801C74.5518 55.0548 74.6651 55.3358 74.8955 55.5563C75.1288 55.7794 75.4619 55.9183 75.8256 55.9183C76.1893 55.9183 76.5225 55.7794 76.7557 55.5563L78.0345 56.8931L76.7557 55.5563C76.9861 55.3359 77.0994 55.0551 77.0995 54.7805L70.0768 42.7062ZM70.0768 42.7062L68.669 41.3787L70.0768 42.7062ZM68.5412 70.0659C68.3488 69.8215 68.046 69.6412 67.6872 69.5925C67.3282 69.5438 66.9724 69.6354 66.7002 69.8303C66.6998 69.8306 66.6993 69.8309 66.6989 69.8312L65.6202 68.3282L68.5412 70.0659ZM68.5412 70.0659C68.6353 70.1859 68.7003 70.3178 68.7367 70.4532C68.7732 70.5887 68.7812 70.7284 68.7609 70.8656C68.7405 71.0028 68.6916 71.1386 68.6135 71.2652C68.5354 71.3916 68.4288 71.5075 68.2959 71.6033C64.3136 74.4612 59.4283 75.956 54.4316 75.8326C49.435 75.7092 44.6386 73.9753 40.8182 70.9264C36.9992 67.8786 34.3826 63.6993 33.3723 59.0746C32.3623 54.4511 33.0123 49.6346 35.2245 45.4005C37.4376 41.1646 41.0907 37.7503 45.6078 35.7275C50.126 33.7042 55.2321 33.1978 60.0944 34.2949C64.9561 35.3919 69.2724 38.0237 72.3529 41.7457C75.4319 45.4659 77.0986 50.0591 77.0995 54.7801L68.5412 70.0659ZM71.8006 49.5428C72.3884 51.2278 72.6939 52.9955 72.7018 54.7801L71.8006 49.5428Z" stroke="white" stroke-width="3.7"/>
<path d="M62.0392 94.3728C62.0818 94.1681 62.189 93.9683 62.3611 93.8035L64.2226 93.8035C64.3947 93.9683 64.5019 94.1681 64.5444 94.3728C64.5869 94.577 64.5659 94.7896 64.4802 94.9875C64.394 95.1864 64.2422 95.3698 64.031 95.5048C63.819 95.6403 63.5616 95.7172 63.2918 95.7172C63.0221 95.7172 62.7647 95.6403 62.5527 95.5048C62.3414 95.3698 62.1896 95.1864 62.1035 94.9875C62.0178 94.7896 61.9968 94.577 62.0392 94.3728ZM62.3616 93.803C62.5951 93.5801 62.9282 93.4413 63.2918 93.4413C63.6554 93.4413 63.9886 93.5801 64.222 93.803H62.3616Z" stroke="white" stroke-width="3.7"/>
</svg>
