<svg width="20" height="21" viewBox="0 0 20 21" fill="none" xmlns="http://www.w3.org/2000/svg">
<g clip-path="url(#clip0_14_2798)">
<path d="M18.5633 18.786L11.8625 9.27195L11.1048 8.19593L6.31058 1.39018L5.91341 0.826172H0.0229492L1.45941 2.86633L7.83375 11.9163L8.59137 12.9911L13.7126 20.2633L14.1099 20.8267H20.0004L18.5633 18.786ZM14.8088 19.5239L9.48857 11.9696L8.73094 10.8942L2.55746 2.12809H5.2132L10.2061 9.21732L10.9638 10.2927L17.4654 19.5238L14.8088 19.5239Z" fill="white"/>
<path d="M8.73156 10.8943L9.48919 11.9696L8.59098 12.9912L1.69944 20.8263H0L7.83335 11.9163L8.73156 10.8943Z" fill="white"/>
<path d="M19.2907 0.826172L11.8619 9.27195L10.9637 10.2929L10.2061 9.21749L11.1043 8.19593L16.1364 2.47212L17.5912 0.826172H19.2907Z" fill="white"/>
</g>
<defs>
<clipPath id="clip0_14_2798">
<rect width="20" height="20" fill="white" transform="translate(0 0.826172)"/>
</clipPath>
</defs>
</svg>
